Nunito-Regular.ufo
<glyph name="exclam" format="2">
  <advance width="228.3855421686747"/>
  <unicode hex="0021"/>
  <outline>
    <contour>
      <point x="114.92771084337349" y="179.14457831325302" type="curve" smooth="yes"/>
      <point x="130.44578313253012" y="179.14457831325302"/>
      <point x="140.20481927710844" y="189.8433734939759"/>
      <point x="141.14457831325302" y="210.83132530120483" type="curve" smooth="yes"/>
      <point x="161.0722891566265" y="659.0963855421687" type="line" smooth="yes"/>
      <point x="162.95180722891567" y="691.1325301204819"/>
      <point x="145.96385542168676" y="711.9397590361446"/>
      <point x="114.92771084337349" y="711.9397590361446" type="curve" smooth="yes"/>
      <point x="82.89156626506023" y="711.9397590361446"/>
      <point x="65.43373493975903" y="691.1325301204819"/>
      <point x="67.3132530120482" y="659.0963855421687" type="curve" smooth="yes"/>
      <point x="87.24096385542168" y="210.83132530120483" type="line" smooth="yes"/>
      <point x="88.18072289156626" y="189.8433734939759"/>
      <point x="98.93975903614458" y="179.14457831325302"/>
    </contour>
    <contour>
      <point x="114.92771084337349" y="-3.9397590361445785" type="curve" smooth="yes"/>
      <point x="148.20481927710844" y="-3.9397590361445785"/>
      <point x="169.3132530120482" y="19.10843373493976"/>
      <point x="169.3132530120482" y="51.445783132530124" type="curve" smooth="yes"/>
      <point x="169.3132530120482" y="83.3132530120482"/>
      <point x="148.20481927710844" y="105.89156626506025"/>
      <point x="114.92771084337349" y="105.89156626506025" type="curve" smooth="yes"/>
      <point x="81.65060240963855" y="105.89156626506025"/>
      <point x="59.54216867469879" y="83.3132530120482"/>
      <point x="59.54216867469879" y="51.445783132530124" type="curve" smooth="yes"/>
      <point x="59.54216867469879" y="19.10843373493976"/>
      <point x="81.65060240963855" y="-3.9397590361445785"/>
    </contour>
  </outline>
</glyph>
<glyph name="numbersign" format="2">
  <advance width="600.0"/>
  <unicode hex="0023"/>
  <outline>
    <contour>
      <point x="120.16867469879519" y="-6.9397590361445785" type="curve" smooth="yes"/>
      <point x="140.27710843373495" y="-6.9397590361445785"/>
      <point x="152.56626506024097" y="2.879518072289157"/>
      <point x="156.97590361445782" y="25.518072289156628" type="curve" smooth="yes"/>
      <point x="187.1566265060241" y="182.0722891566265" type="line"/>
      <point x="345.49397590361446" y="182.0722891566265" type="line"/>
      <point x="316.3132530120482" y="32.39759036144578" type="line" smooth="yes"/>
      <point x="311.3734939759036" y="7.289156626506024"/>
      <point x="321.66265060240966" y="-6.9397590361445785"/>
      <point x="341.71084337349396" y="-6.9397590361445785" type="curve" smooth="yes"/>
      <point x="361.8192771084337" y="-6.9397590361445785"/>
      <point x="374.10843373493975" y="2.879518072289157"/>
      <point x="378.51807228915663" y="25.518072289156628" type="curve" smooth="yes"/>
      <point x="411.1686746987952" y="189.0120481927711" type="line"/>
      <point x="383.65060240963857" y="182.0722891566265" type="line"/>
      <point x="511.0240963855422" y="182.0722891566265" type="line" smooth="yes"/>
      <point x="534.1325301204819" y="182.0722891566265"/>
      <point x="547.4216867469879" y="192.36144578313252"/>
      <point x="547.4216867469879" y="211.46987951807228" type="curve" smooth="yes"/>
      <point x="547.4216867469879" y="230.57831325301206"/>
      <point x="534.1325301204819" y="240.86746987951807"/>
      <point x="511.0240963855422" y="240.86746987951807" type="curve" smooth="yes"/>
      <point x="394.4096385542169" y="240.86746987951807" type="line"/>
      <point x="418.51807228915663" y="232.9277108433735" type="line"/>
      <point x="467.2289156626506" y="481.6024096385542" type="line"/>
      <point x="439.65060240963857" y="472.13253012048193" type="line"/>
      <point x="530.9638554216867" y="472.13253012048193" type="line" smooth="yes"/>
      <point x="554.0722891566265" y="472.13253012048193"/>
      <point x="567.3614457831326" y="482.89156626506025"/>
      <point x="567.3614457831326" y="502.0" type="curve" smooth="yes"/>
      <point x="567.3614457831326" y="521.1084337349398"/>
      <point x="554.0722891566265" y="530.9277108433735"/>
      <point x="530.9638554216867" y="530.9277108433735" type="curve" smooth="yes"/>
      <point x="451.4096385542169" y="530.9277108433735" type="line"/>
      <point x="475.04819277108436" y="523.5180722891566" type="line"/>
      <point x="503.69879518072287" y="672.6024096385543" type="line" smooth="yes"/>
      <point x="508.10843373493975" y="697.1807228915662"/>
      <point x="499.34939759036143" y="711.9397590361446"/>
      <point x="479.30120481927713" y="711.9397590361446" type="curve" smooth="yes"/>
      <point x="459.1927710843373" y="711.9397590361446"/>
      <point x="445.90361445783134" y="702.1204819277109"/>
      <point x="441.49397590361446" y="679.4819277108434" type="curve" smooth="yes"/>
      <point x="412.8433734939759" y="530.9277108433735" type="line"/>
      <point x="253.97590361445782" y="530.9277108433735" type="line"/>
      <point x="281.1566265060241" y="672.6024096385543" type="line" smooth="yes"/>
      <point x="285.56626506024094" y="697.1807228915662"/>
      <point x="276.8072289156627" y="711.9397590361446"/>
      <point x="256.7590361445783" y="711.9397590361446" type="curve" smooth="yes"/>
      <point x="236.65060240963857" y="711.9397590361446"/>
      <point x="223.89156626506025" y="702.1204819277109"/>
      <point x="219.48192771084337" y="679.4819277108434" type="curve" smooth="yes"/>
      <point x="188.83132530120483" y="523.5180722891566" type="line"/>
      <point x="216.34939759036143" y="530.9277108433735" type="line"/>
      <point x="88.97590361445783" y="530.9277108433735" type="line" smooth="yes"/>
      <point x="65.86746987951807" y="530.9277108433735"/>
      <point x="52.57831325301205" y="521.1084337349398"/>
      <point x="52.57831325301205" y="502.0" type="curve" smooth="yes"/>
      <point x="52.57831325301205" y="482.89156626506025"/>
      <point x="65.86746987951807" y="472.13253012048193"/>
      <point x="88.97590361445783" y="472.13253012048193" type="curve" smooth="yes"/>
      <point x="205.59036144578315" y="472.13253012048193" type="line"/>
      <point x="182.0120481927711" y="481.6024096385542" type="line"/>
      <point x="133.3012048192771" y="233.4578313253012" type="line"/>
      <point x="165.04819277108433" y="240.86746987951807" type="line"/>
      <point x="69.03614457831326" y="240.86746987951807" type="line" smooth="yes"/>
      <point x="45.9277108433735" y="240.86746987951807"/>
      <point x="32.63855421686747" y="230.57831325301206"/>
      <point x="32.63855421686747" y="211.46987951807228" type="curve" smooth="yes"/>
      <point x="32.63855421686747" y="192.36144578313252"/>
      <point x="45.9277108433735" y="182.0722891566265"/>
      <point x="69.03614457831326" y="182.0722891566265" type="curve" smooth="yes"/>
      <point x="154.289156626506" y="182.0722891566265" type="line"/>
      <point x="125.01204819277109" y="189.0120481927711" type="line"/>
      <point x="94.7710843373494" y="32.39759036144578" type="line" smooth="yes"/>
      <point x="89.83132530120481" y="7.759036144578314"/>
      <point x="98.71084337349397" y="-6.9397590361445785"/>
    </contour>
    <contour>
      <point x="197.9156626506024" y="240.86746987951807" type="line"/>
      <point x="243.1566265060241" y="472.13253012048193" type="line"/>
      <point x="401.5542168674699" y="472.13253012048193" type="line"/>
      <point x="356.3132530120482" y="240.86746987951807" type="line"/>
    </contour>
  </outline>
</glyph>
<glyph name="dollar" format="2">
  <advance width="600.0"/>
  <unicode hex="0024"/>
  <outline>
    <contour>
      <point x="310.0" y="-121.93975903614458" type="curve" smooth="yes"/>
      <point x="329.9879518072289" y="-121.93975903614458"/>
      <point x="344.09638554216866" y="-106.83132530120481"/>
      <point x="344.09638554216866" y="-87.8433734939759" type="curve" smooth="yes"/>
      <point x="344.09638554216866" y="13.289156626506024" type="line"/>
      <point x="328.27710843373495" y="-4.0" type="line"/>
      <point x="459.1566265060241" y="4.759036144578314"/>
      <point x="551.6265060240964" y="77.51807228915662"/>
      <point x="551.6265060240964" y="191.86746987951807" type="curve" smooth="yes"/>
      <point x="551.6265060240964" y="287.2168674698795"/>
      <point x="492.03614457831327" y="342.4457831325301"/>
      <point x="362.4457831325301" y="369.9156626506024" type="curve" smooth="yes"/>
      <point x="260.86746987951807" y="391.7951807228916" type="line" smooth="yes"/>
      <point x="176.6144578313253" y="409.9156626506024"/>
      <point x="142.13253012048193" y="444.3975903614458"/>
      <point x="142.13253012048193" y="505.8313253012048" type="curve" smooth="yes"/>
      <point x="142.13253012048193" y="584.3253012048193"/>
      <point x="206.32530120481928" y="637.4578313253012"/>
      <point x="306.1686746987952" y="637.4578313253012" type="curve" smooth="yes"/>
      <point x="380.65060240963857" y="637.4578313253012"/>
      <point x="431.95180722891564" y="616.6867469879518"/>
      <point x="476.7831325301205" y="581.433734939759" type="curve" smooth="yes"/>
      <point x="522.3975903614457" y="551.4457831325301"/>
      <point x="551.855421686747" y="606.8795180722891"/>
      <point x="519.8795180722891" y="634.7469879518072" type="curve" smooth="yes"/>
      <point x="470.4096385542169" y="681.1686746987951"/>
      <point x="393.34939759036143" y="706.9397590361446"/>
      <point x="330.51807228915663" y="708.9397590361446" type="curve"/>
      <point x="344.09638554216866" y="695.0602409638554" type="line"/>
      <point x="344.09638554216866" y="792.843373493976" type="line" smooth="yes"/>
      <point x="344.09638554216866" y="811.8313253012049"/>
      <point x="328.9879518072289" y="826.9397590361446"/>
      <point x="310.0" y="826.9397590361446" type="curve" smooth="yes"/>
      <point x="290.5421686746988" y="826.9397590361446"/>
      <point x="275.90361445783134" y="811.8313253012049"/>
      <point x="275.90361445783134" y="792.843373493976" type="curve" smooth="yes"/>
      <point x="275.90361445783134" y="695.0602409638554" type="line"/>
      <point x="287.95180722891564" y="709.0" type="line"/>
      <point x="151.66265060240963" y="703.2409638554217"/>
      <point x="60.72289156626506" y="619.8313253012049"/>
      <point x="60.72289156626506" y="503.95180722891564" type="curve" smooth="yes"/>
      <point x="60.72289156626506" y="404.0722891566265"/>
      <point x="119.13253012048193" y="344.72289156626505"/>
      <point x="239.6024096385542" y="319.2530120481928" type="curve" smooth="yes"/>
      <point x="339.7710843373494" y="297.8433734939759" type="line" smooth="yes"/>
      <point x="433.144578313253" y="277.66265060240966"/>
      <point x="469.1566265060241" y="245.36144578313252"/>
      <point x="469.1566265060241" y="187.57831325301206" type="curve" smooth="yes"/>
      <point x="469.1566265060241" y="116.6144578313253"/>
      <point x="415.43373493975906" y="67.5421686746988"/>
      <point x="301.12048192771084" y="67.5421686746988" type="curve" smooth="yes"/>
      <point x="207.10843373493975" y="67.5421686746988"/>
      <point x="147.6987951807229" y="94.19277108433735"/>
      <point x="103.80722891566265" y="125.26506024096386" type="curve" smooth="yes"/>
      <point x="57.60240963855422" y="154.72289156626505"/>
      <point x="28.6144578313253" y="88.24096385542168"/>
      <point x="68.40963855421687" y="61.72289156626506" type="curve" smooth="yes"/>
      <point x="120.06024096385542" y="23.120481927710845"/>
      <point x="200.0120481927711" y="-4.0"/>
      <point x="293.6024096385542" y="-4.9397590361445785" type="curve"/>
      <point x="275.90361445783134" y="12.289156626506024" type="line"/>
      <point x="275.90361445783134" y="-87.8433734939759" type="line" smooth="yes"/>
      <point x="275.90361445783134" y="-106.83132530120481"/>
      <point x="290.5421686746988" y="-121.93975903614458"/>
    </contour>
  </outline>
</glyph>
<glyph name="percent" format="2">
  <advance width="929.6265060240964"/>
  <unicode hex="0025"/>
  <outline>
    <contour>
      <point x="300.3734939759036" y="-1.0120481927710845" type="curve" smooth="yes"/>
      <point x="685.8072289156627" y="671.2650602409639" type="line" smooth="yes"/>
      <point x="709.2650602409639" y="712.8313253012049"/>
      <point x="653.1807228915662" y="747.5180722891566"/>
      <point x="628.722891566265" y="703.9518072289156" type="curve" smooth="yes"/>
      <point x="243.289156626506" y="32.144578313253014" type="line" smooth="yes"/>
      <point x="219.36144578313252" y="-9.891566265060241"/>
      <point x="275.3855421686747" y="-44.10843373493976"/>
    </contour>
    <contour>
      <point x="225.710843373494" y="282.4096385542169" type="curve" smooth="yes"/>
      <point x="331.87951807228916" y="282.4096385542169"/>
      <point x="395.7590361445783" y="362.28915662650604"/>
      <point x="395.7590361445783" y="498.4096385542169" type="curve" smooth="yes"/>
      <point x="395.7590361445783" y="633.5301204819277"/>
      <point x="331.34939759036143" y="713.4096385542168"/>
      <point x="225.710843373494" y="713.4096385542168" type="curve" smooth="yes"/>
      <point x="120.07228915662651" y="713.4096385542168"/>
      <point x="55.66265060240964" y="633.5301204819277"/>
      <point x="55.66265060240964" y="498.4096385542169" type="curve" smooth="yes"/>
      <point x="55.66265060240964" y="361.7590361445783"/>
      <point x="119.5421686746988" y="282.4096385542169"/>
    </contour>
    <contour>
      <point x="225.710843373494" y="341.49397590361446" type="curve" smooth="yes"/>
      <point x="163.3975903614458" y="341.49397590361446"/>
      <point x="125.855421686747" y="393.6265060240964"/>
      <point x="125.855421686747" y="498.4096385542169" type="curve" smooth="yes"/>
      <point x="125.855421686747" y="602.1927710843373"/>
      <point x="163.3975903614458" y="654.3253012048193"/>
      <point x="225.710843373494" y="654.3253012048193" type="curve" smooth="yes"/>
      <point x="288.0240963855422" y="654.3253012048193"/>
      <point x="325.56626506024094" y="601.722891566265"/>
      <point x="325.56626506024094" y="498.4096385542169" type="curve" smooth="yes"/>
      <point x="325.56626506024094" y="394.09638554216866"/>
      <point x="288.0240963855422" y="341.49397590361446"/>
    </contour>
    <contour>
      <point x="704.3855421686746" y="-8.939759036144578" type="curve" smooth="yes"/>
      <point x="810.5542168674699" y="-8.939759036144578"/>
      <point x="874.433734939759" y="70.93975903614458"/>
      <point x="874.433734939759" y="207.06024096385542" type="curve" smooth="yes"/>
      <point x="874.433734939759" y="342.1807228915663"/>
      <point x="810.0240963855422" y="422.06024096385545"/>
      <point x="704.3855421686746" y="422.06024096385545" type="curve" smooth="yes"/>
      <point x="598.7469879518072" y="422.06024096385545"/>
      <point x="534.3373493975904" y="342.1807228915663"/>
      <point x="534.3373493975904" y="207.06024096385542" type="curve" smooth="yes"/>
      <point x="534.3373493975904" y="70.40963855421687"/>
      <point x="598.2168674698795" y="-8.939759036144578"/>
    </contour>
    <contour>
      <point x="704.3855421686746" y="50.144578313253014" type="curve" smooth="yes"/>
      <point x="642.0722891566265" y="50.144578313253014"/>
      <point x="604.5301204819277" y="102.27710843373494"/>
      <point x="604.5301204819277" y="207.06024096385542" type="curve" smooth="yes"/>
      <point x="604.5301204819277" y="310.8433734939759"/>
      <point x="642.0722891566265" y="362.9759036144578"/>
      <point x="704.3855421686746" y="362.9759036144578" type="curve" smooth="yes"/>
      <point x="766.6987951807229" y="362.9759036144578"/>
      <point x="804.2409638554217" y="310.3734939759036"/>
      <point x="804.2409638554217" y="207.06024096385542" type="curve" smooth="yes"/>
      <point x="804.2409638554217" y="102.74698795180723"/>
      <point x="766.6987951807229" y="50.144578313253014"/>
    </contour>
  </outline>
</glyph>
<glyph name="ampersand" format="2">
  <advance width="693.1325301204819"/>
  <unicode hex="0026"/>
  <outline>
    <contour>
      <point x="287.2168674698795" y="-8.939759036144578" type="curve" smooth="yes"/>
      <point x="378.3975903614458" y="-8.939759036144578"/>
      <point x="460.3975903614458" y="31.710843373493976"/>
      <point x="515.6867469879518" y="101.07228915662651" type="curve"/>
      <point x="494.6385542168675" y="101.07228915662651" type="line"/>
      <point x="571.4819277108434" y="15.397590361445783" type="line" smooth="yes"/>
      <point x="586.0602409638554" y="-0.7108433734939759"/>
      <point x="595.7590361445783" y="-6.9397590361445785"/>
      <point x="614.6265060240964" y="-6.9397590361445785" type="curve" smooth="yes"/>
      <point x="646.1325301204819" y="-6.9397590361445785"/>
      <point x="663.2409638554217" y="21.156626506024097"/>
      <point x="638.4939759036145" y="46.963855421686745" type="curve" smooth="yes"/>
      <point x="538.722891566265" y="156.21686746987953" type="line"/>
      <point x="540.2530120481928" y="132.10843373493975" type="line"/>
      <point x="580.1325301204819" y="195.2289156626506"/>
      <point x="608.4819277108434" y="279.4698795180723"/>
      <point x="615.8313253012049" y="381.3614457831325" type="curve" smooth="yes"/>
      <point x="618.2409638554217" y="406.2289156626506"/>
      <point x="606.0722891566265" y="419.86746987951807"/>
      <point x="582.7349397590361" y="419.86746987951807" type="curve" smooth="yes"/>
      <point x="560.8072289156627" y="419.86746987951807"/>
      <point x="548.5783132530121" y="407.6385542168675"/>
      <point x="545.6987951807229" y="384.71084337349396" type="curve" smooth="yes"/>
      <point x="539.3493975903615" y="303.86746987951807"/>
      <point x="520.289156626506" y="232.20481927710844"/>
      <point x="492.6385542168675" y="184.96385542168676" type="curve"/>
      <point x="510.6265060240964" y="184.96385542168676" type="line"/>
      <point x="323.66265060240966" y="394.5903614457831" type="line"/>
      <point x="322.13253012048193" y="373.6024096385542" type="line"/>
      <point x="438.5542168674699" y="445.26506024096386"/>
      <point x="474.72289156626505" y="499.3132530120482"/>
      <point x="474.72289156626505" y="571.0722891566265" type="curve" smooth="yes"/>
      <point x="474.72289156626505" y="658.710843373494"/>
      <point x="409.43373493975906" y="713.9397590361446"/>
      <point x="317.3975903614458" y="713.9397590361446" type="curve" smooth="yes"/>
      <point x="211.59036144578315" y="713.9397590361446"/>
      <point x="143.6024096385542" y="650.710843373494"/>
      <point x="143.6024096385542" y="558.1325301204819" type="curve" smooth="yes"/>
      <point x="143.6024096385542" y="503.72289156626505"/>
      <point x="166.5421686746988" y="456.43373493975906"/>
      <point x="230.8433734939759" y="387.8313253012048" type="curve"/>
      <point x="241.95180722891567" y="404.7590361445783" type="line"/>
      <point x="209.5421686746988" y="383.69879518072287" type="line" smooth="yes"/>
      <point x="111.59036144578313" y="319.03614457831327"/>
      <point x="61.7710843373494" y="258.86746987951807"/>
      <point x="61.7710843373494" y="169.3975903614458" type="curve" smooth="yes"/>
      <point x="61.7710843373494" y="61.75903614457831"/>
      <point x="145.75903614457832" y="-8.939759036144578"/>
    </contour>
    <contour>
      <point x="290.50602409638554" y="58.25301204819277" type="curve" smooth="yes"/>
      <point x="193.66265060240963" y="58.25301204819277"/>
      <point x="142.3012048192771" y="101.55421686746988"/>
      <point x="142.3012048192771" y="174.6265060240964" type="curve" smooth="yes"/>
      <point x="142.3012048192771" y="240.16867469879517"/>
      <point x="172.5421686746988" y="279.87951807228916"/>
      <point x="257.9759036144578" y="336.3132530120482" type="curve" smooth="yes"/>
      <point x="288.56626506024094" y="356.49397590361446" type="line"/>
      <point x="257.2409638554217" y="358.8433734939759" type="line"/>
      <point x="469.0722891566265" y="126.75903614457832" type="line"/>
      <point x="470.48192771084337" y="152.3975903614458" type="line"/>
      <point x="426.30120481927713" y="90.67469879518072"/>
      <point x="367.2289156626506" y="58.25301204819277"/>
    </contour>
    <contour>
      <point x="317.3975903614458" y="651.4457831325301" type="curve" smooth="yes"/>
      <point x="369.34939759036143" y="651.4457831325301"/>
      <point x="404.1807228915663" y="619.0240963855422"/>
      <point x="404.1807228915663" y="566.6024096385543" type="curve" smooth="yes"/>
      <point x="404.1807228915663" y="517.4216867469879"/>
      <point x="371.0" y="480.0"/>
      <point x="275.8072289156627" y="420.27710843373495" type="curve"/>
      <point x="297.4457831325301" y="421.4578313253012" type="line"/>
      <point x="236.43373493975903" y="490.1807228915663"/>
      <point x="219.90361445783134" y="516.7710843373494"/>
      <point x="219.90361445783134" y="559.5421686746988" type="curve" smooth="yes"/>
      <point x="219.90361445783134" y="614.5542168674699"/>
      <point x="259.32530120481925" y="651.4457831325301"/>
    </contour>
  </outline>
</glyph>
<glyph name="quotesingle" format="2">
  <advance width="221.26506024096386"/>
  <unicode hex="0027"/>
  <outline>
    <contour>
      <point x="111.39759036144578" y="421.3132530120482" type="curve" smooth="yes"/>
      <point x="127.3855421686747" y="421.3132530120482"/>
      <point x="139.55421686746988" y="432.421686746988"/>
      <point x="140.96385542168676" y="452.87951807228916" type="curve" smooth="yes"/>
      <point x="154.66265060240963" y="663.3253012048193" type="line" smooth="yes"/>
      <point x="157.0722891566265" y="691.5421686746988"/>
      <point x="137.6144578313253" y="711.9397590361446"/>
      <point x="110.86746987951807" y="711.9397590361446" type="curve" smooth="yes"/>
      <point x="83.65060240963855" y="711.9397590361446"/>
      <point x="64.19277108433735" y="690.5421686746988"/>
      <point x="66.60240963855422" y="663.3253012048193" type="curve" smooth="yes"/>
      <point x="81.36144578313252" y="452.87951807228916" type="line" smooth="yes"/>
      <point x="83.3012048192771" y="432.95180722891564"/>
      <point x="95.87951807228916" y="421.3132530120482"/>
    </contour>
  </outline>
</glyph>
<glyph name="parenleft" format="2">
  <advance width="317.1807228915663"/>
  <unicode hex="0028"/>
  <outline>
    <contour>
      <point x="209.57831325301206" y="-168.83132530120483" type="curve" smooth="yes"/>
      <point x="229.50602409638554" y="-202.04819277108433"/>
      <point x="287.06024096385545" y="-185.46987951807228"/>
      <point x="268.48192771084337" y="-135.3855421686747" type="curve" smooth="yes"/>
      <point x="216.06024096385542" y="-1.1445783132530103"/>
      <point x="188.40963855421688" y="127.16867469879519"/>
      <point x="188.40963855421688" y="263.0" type="curve" smooth="yes"/>
      <point x="188.40963855421688" y="398.8313253012048"/>
      <point x="214.65060240963857" y="527.6144578313254"/>
      <point x="268.48192771084337" y="661.3855421686746" type="curve" smooth="yes"/>
      <point x="286.5301204819277" y="710.9397590361446"/>
      <point x="229.50602409638554" y="729.1084337349398"/>
      <point x="209.57831325301206" y="694.8313253012049" type="curve" smooth="yes"/>
      <point x="136.06024096385542" y="556.9397590361446"/>
      <point x="102.12048192771084" y="412.06024096385545"/>
      <point x="102.12048192771084" y="263.0" type="curve" smooth="yes"/>
      <point x="102.12048192771084" y="113.93975903614458"/>
      <point x="135.59036144578315" y="-31.40963855421687"/>
    </contour>
  </outline>
</glyph>
<glyph name="parenright" format="2">
  <advance width="317.1807228915663"/>
  <unicode hex="0029"/>
  <outline>
    <contour>
      <point x="107.60240963855422" y="-168.83132530120483" type="curve" smooth="yes"/>
      <point x="181.18072289156626" y="-33.53012048192771"/>
      <point x="215.06024096385542" y="113.93975903614458"/>
      <point x="215.06024096385542" y="263.0" type="curve" smooth="yes"/>
      <point x="215.06024096385542" y="412.06024096385545"/>
      <point x="181.710843373494" y="557.9397590361446"/>
      <point x="107.60240963855422" y="694.8313253012049" type="curve" smooth="yes"/>
      <point x="88.14457831325302" y="729.1084337349398"/>
      <point x="30.650602409638555" y="710.9397590361446"/>
      <point x="48.69879518072289" y="661.3855421686746" type="curve" smooth="yes"/>
      <point x="100.06024096385542" y="526.6144578313254"/>
      <point x="128.7710843373494" y="398.8313253012048"/>
      <point x="128.7710843373494" y="263.0" type="curve" smooth="yes"/>
      <point x="128.7710843373494" y="127.16867469879519"/>
      <point x="103.0" y="-1.6144578313253"/>
      <point x="48.69879518072289" y="-135.3855421686747" type="curve" smooth="yes"/>
      <point x="29.180722891566266" y="-185.0"/>
      <point x="88.67469879518072" y="-202.04819277108433"/>
    </contour>
  </outline>
</glyph>
<glyph name="asterisk" format="2">
  <advance width="450.34939759036143"/>
  <unicode hex="002A"/>
  <outline>
    <contour>
      <point x="127.59036144578313" y="367.5421686746988" type="curve" smooth="yes"/>
      <point x="144.6987951807229" y="357.2530120481928"/>
      <point x="161.80722891566265" y="366.6024096385542"/>
      <point x="172.1566265060241" y="387.71084337349396" type="curve" smooth="yes"/>
      <point x="230.289156626506" y="497.96385542168673" type="line"/>
      <point x="220.06024096385542" y="497.96385542168673" type="line"/>
      <point x="277.1927710843373" y="388.2409638554217" type="line" smooth="yes"/>
      <point x="287.5421686746988" y="367.13253012048193"/>
      <point x="305.1807228915663" y="357.7831325301205"/>
      <point x="322.7590361445783" y="368.5421686746988" type="curve" smooth="yes"/>
      <point x="339.33734939759034" y="378.30120481927713"/>
      <point x="340.7469879518072" y="395.93975903614455"/>
      <point x="327.9879518072289" y="415.6385542168675" type="curve" smooth="yes"/>
      <point x="259.2168674698795" y="525.8313253012049" type="line"/>
      <point x="248.04819277108433" y="509.90361445783134" type="line"/>
      <point x="379.3614457831325" y="505.49397590361446" type="line" smooth="yes"/>
      <point x="402.93975903614455" y="504.5542168674699"/>
      <point x="418.1686746987952" y="514.7831325301205"/>
      <point x="418.1686746987952" y="534.8313253012049" type="curve" smooth="yes"/>
      <point x="418.1686746987952" y="553.8795180722891"/>
      <point x="402.93975903614455" y="564.1084337349398"/>
      <point x="379.3614457831325" y="563.1686746987951" type="curve" smooth="yes"/>
      <point x="248.04819277108433" y="558.289156626506" type="line"/>
      <point x="259.2168674698795" y="543.3614457831326" type="line"/>
      <point x="327.9879518072289" y="653.0843373493976" type="line" smooth="yes"/>
      <point x="340.7469879518072" y="673.2530120481928"/>
      <point x="339.33734939759034" y="690.8915662650602"/>
      <point x="322.7590361445783" y="701.6506024096385" type="curve" smooth="yes"/>
      <point x="306.1807228915663" y="711.4096385542168"/>
      <point x="288.0722891566265" y="702.5903614457832"/>
      <point x="277.1927710843373" y="680.9518072289156" type="curve" smooth="yes"/>
      <point x="220.06024096385542" y="571.1686746987951" type="line"/>
      <point x="230.289156626506" y="571.1686746987951" type="line"/>
      <point x="172.6265060240964" y="680.9518072289156" type="line" smooth="yes"/>
      <point x="162.27710843373495" y="702.0602409638554"/>
      <point x="144.16867469879517" y="711.4096385542168"/>
      <point x="128.06024096385542" y="701.6506024096385" type="curve" smooth="yes"/>
      <point x="111.48192771084338" y="691.8915662650602"/>
      <point x="109.07228915662651" y="673.722891566265"/>
      <point x="121.83132530120481" y="653.5542168674699" type="curve" smooth="yes"/>
      <point x="191.13253012048193" y="542.8915662650602" type="line"/>
      <point x="201.7710843373494" y="558.289156626506" type="line"/>
      <point x="70.98795180722891" y="563.1686746987951" type="line" smooth="yes"/>
      <point x="47.40963855421687" y="564.1084337349398"/>
      <point x="32.18072289156626" y="553.8795180722891"/>
      <point x="32.18072289156626" y="534.8313253012049" type="curve" smooth="yes"/>
      <point x="32.18072289156626" y="515.3132530120482"/>
      <point x="47.40963855421687" y="504.5542168674699"/>
      <point x="70.98795180722891" y="505.49397590361446" type="curve" smooth="yes"/>
      <point x="201.7710843373494" y="509.90361445783134" type="line"/>
      <point x="190.66265060240963" y="525.8313253012049" type="line"/>
      <point x="121.36144578313252" y="415.6385542168675" type="line" smooth="yes"/>
      <point x="108.60240963855422" y="395.93975903614455"/>
      <point x="110.48192771084338" y="378.30120481927713"/>
    </contour>
  </outline>
</glyph>
<glyph name="plus" format="2">
  <advance width="600.0"/>
  <unicode hex="002B"/>
  <outline>
    <contour>
      <point x="300.0" y="33.06024096385542" type="curve" smooth="yes"/>
      <point x="320.9879518072289" y="33.06024096385542"/>
      <point x="332.2168674698795" y="45.28915662650603"/>
      <point x="332.2168674698795" y="66.27710843373494" type="curve" smooth="yes"/>
      <point x="332.2168674698795" y="255.72289156626505" type="line"/>
      <point x="518.6626506024096" y="255.72289156626505" type="line" smooth="yes"/>
      <point x="539.1807228915662" y="255.72289156626505"/>
      <point x="550.9397590361446" y="266.95180722891564"/>
      <point x="550.9397590361446" y="287.0" type="curve" smooth="yes"/>
      <point x="550.9397590361446" y="306.51807228915663"/>
      <point x="539.1807228915662" y="317.7469879518072"/>
      <point x="518.6626506024096" y="317.7469879518072" type="curve" smooth="yes"/>
      <point x="332.2168674698795" y="317.7469879518072" type="line"/>
      <point x="332.2168674698795" y="502.1927710843373" type="line" smooth="yes"/>
      <point x="332.2168674698795" y="522.710843373494"/>
      <point x="320.9879518072289" y="534.9397590361446"/>
      <point x="300.0" y="534.9397590361446" type="curve" smooth="yes"/>
      <point x="279.0120481927711" y="534.9397590361446"/>
      <point x="267.7831325301205" y="522.710843373494"/>
      <point x="267.7831325301205" y="502.1927710843373" type="curve" smooth="yes"/>
      <point x="267.7831325301205" y="317.7469879518072" type="line"/>
      <point x="81.33734939759036" y="317.7469879518072" type="line" smooth="yes"/>
      <point x="61.28915662650603" y="317.7469879518072"/>
      <point x="49.06024096385542" y="306.51807228915663"/>
      <point x="49.06024096385542" y="287.0" type="curve" smooth="yes"/>
      <point x="49.06024096385542" y="267.48192771084337"/>
      <point x="61.28915662650603" y="255.72289156626505"/>
      <point x="81.33734939759036" y="255.72289156626505" type="curve" smooth="yes"/>
      <point x="267.7831325301205" y="255.72289156626505" type="line"/>
      <point x="267.7831325301205" y="66.27710843373494" type="line" smooth="yes"/>
      <point x="267.7831325301205" y="45.28915662650603"/>
      <point x="279.0120481927711" y="33.06024096385542"/>
    </contour>
  </outline>
</glyph>
<glyph name="hyphen" format="2">
  <advance width="424.4578313253012"/>
  <unicode hex="002D"/>
  <outline>
    <contour>
      <point x="99.86746987951807" y="232.8433734939759" type="curve" smooth="yes"/>
      <point x="325.06024096385545" y="232.8433734939759" type="line" smooth="yes"/>
      <point x="344.04819277108436" y="232.8433734939759"/>
      <point x="359.1566265060241" y="247.42168674698794"/>
      <point x="359.1566265060241" y="266.4096385542169" type="curve" smooth="yes"/>
      <point x="359.1566265060241" y="285.86746987951807"/>
      <point x="344.04819277108436" y="299.9759036144578"/>
      <point x="325.06024096385545" y="299.9759036144578" type="curve" smooth="yes"/>
      <point x="99.86746987951807" y="299.9759036144578" type="line" smooth="yes"/>
      <point x="80.40963855421687" y="299.9759036144578"/>
      <point x="65.3012048192771" y="285.86746987951807"/>
      <point x="65.3012048192771" y="266.4096385542169" type="curve" smooth="yes"/>
      <point x="65.3012048192771" y="247.42168674698794"/>
      <point x="80.40963855421687" y="232.8433734939759"/>
    </contour>
  </outline>
</glyph>
<glyph name="period" format="2">
  <advance width="228.3855421686747"/>
  <unicode hex="002E"/>
  <outline>
    <contour>
      <point x="114.92771084337349" y="-3.9397590361445785" type="curve" smooth="yes"/>
      <point x="148.20481927710844" y="-3.9397590361445785"/>
      <point x="169.3132530120482" y="19.10843373493976"/>
      <point x="169.3132530120482" y="51.445783132530124" type="curve" smooth="yes"/>
      <point x="169.3132530120482" y="83.3132530120482"/>
      <point x="148.20481927710844" y="105.89156626506025"/>
      <point x="114.92771084337349" y="105.89156626506025" type="curve" smooth="yes"/>
      <point x="81.65060240963855" y="105.89156626506025"/>
      <point x="59.54216867469879" y="83.3132530120482"/>
      <point x="59.54216867469879" y="51.445783132530124" type="curve" smooth="yes"/>
      <point x="59.54216867469879" y="19.10843373493976"/>
      <point x="81.65060240963855" y="-3.9397590361445785"/>
    </contour>
  </outline>
</glyph>
<glyph name="slash" format="2">
  <advance width="282.7831325301205"/>
  <unicode hex="002F"/>
  <outline>
    <contour>
      <point x="54.60240963855422" y="-34.30120481927711" type="curve" smooth="yes"/>
      <point x="292.49397590361446" y="703.843373493976" type="line" smooth="yes"/>
      <point x="306.6024096385542" y="748.1686746987951"/>
      <point x="242.81927710843374" y="767.2168674698795"/>
      <point x="228.18072289156626" y="722.8313253012049" type="curve" smooth="yes"/>
      <point x="-9.710843373493976" y="-14.843373493975903" type="line" smooth="yes"/>
      <point x="-23.819277108433734" y="-59.63855421686747"/>
      <point x="40.433734939759034" y="-78.21686746987952"/>
    </contour>
  </outline>
</glyph>
<glyph name="one" format="2">
  <advance width="600.0"/>
  <unicode hex="0031"/>
  <outline>
    <contour>
      <point x="154.93975903614458" y="0.0" type="curve" smooth="yes"/>
      <point x="487.3975903614458" y="0.0" type="line" smooth="yes"/>
      <point x="511.26506024096386" y="0.0"/>
      <point x="524.9036144578313" y="12.638554216867469"/>
      <point x="524.9036144578313" y="35.975903614457835" type="curve" smooth="yes"/>
      <point x="524.9036144578313" y="58.31325301204819"/>
      <point x="511.26506024096386" y="70.48192771084338"/>
      <point x="487.3975903614458" y="70.48192771084338" type="curve" smooth="yes"/>
      <point x="367.3734939759036" y="70.48192771084338" type="line"/>
      <point x="367.3734939759036" y="677.2530120481928" type="line" smooth="yes"/>
      <point x="367.3734939759036" y="700.6506024096385"/>
      <point x="352.73493975903614" y="711.9397590361446"/>
      <point x="333.7469879518072" y="711.9397590361446" type="curve" smooth="yes"/>
      <point x="318.1686746987952" y="711.9397590361446"/>
      <point x="302.8313253012048" y="704.7710843373494"/>
      <point x="285.3734939759036" y="694.0722891566265" type="curve" smooth="yes"/>
      <point x="147.3734939759036" y="602.5903614457832" type="line" smooth="yes"/>
      <point x="103.51807228915662" y="575.1927710843373"/>
      <point x="140.67469879518072" y="514.5301204819277"/>
      <point x="183.0" y="541.3975903614457" type="curve" smooth="yes"/>
      <point x="328.4096385542169" y="637.289156626506" type="line"/>
      <point x="284.96385542168673" y="637.289156626506" type="line"/>
      <point x="284.96385542168673" y="70.48192771084338" type="line"/>
      <point x="154.93975903614458" y="70.48192771084338" type="line" smooth="yes"/>
      <point x="131.0722891566265" y="70.48192771084338"/>
      <point x="117.43373493975903" y="58.31325301204819"/>
      <point x="117.43373493975903" y="35.975903614457835" type="curve" smooth="yes"/>
      <point x="117.43373493975903" y="13.638554216867469"/>
      <point x="131.0722891566265" y="0.0"/>
    </contour>
  </outline>
</glyph>
<glyph name="two" format="2">
  <advance width="600.0"/>
  <unicode hex="0032"/>
  <outline>
    <contour>
      <point x="128.75903614457832" y="0.0" type="curve" smooth="yes"/>
      <point x="508.421686746988" y="0.0" type="line" smooth="yes"/>
      <point x="532.7590361445783" y="0.0"/>
      <point x="545.9277108433735" y="12.638554216867469"/>
      <point x="545.9277108433735" y="35.975903614457835" type="curve" smooth="yes"/>
      <point x="545.9277108433735" y="58.31325301204819"/>
      <point x="532.7590361445783" y="70.48192771084338"/>
      <point x="508.421686746988" y="70.48192771084338" type="curve" smooth="yes"/>
      <point x="170.95180722891567" y="70.48192771084338" type="line"/>
      <point x="170.95180722891567" y="46.554216867469876" type="line"/>
      <point x="384.3975903614458" y="271.71084337349396" type="line" smooth="yes"/>
      <point x="470.33734939759034" y="362.1807228915663"/>
      <point x="510.3975903614458" y="439.3614457831325"/>
      <point x="510.3975903614458" y="524.3614457831326" type="curve" smooth="yes"/>
      <point x="510.3975903614458" y="645.0602409638554"/>
      <point x="431.6385542168675" y="713.9397590361446"/>
      <point x="291.2409638554217" y="713.9397590361446" type="curve" smooth="yes"/>
      <point x="214.46987951807228" y="713.9397590361446"/>
      <point x="137.34939759036143" y="686.0481927710844"/>
      <point x="84.59036144578313" y="643.277108433735" type="curve" smooth="yes"/>
      <point x="46.795180722891565" y="614.4096385542168"/>
      <point x="80.3012048192771" y="552.566265060241"/>
      <point x="121.80722891566265" y="583.5542168674699" type="curve" smooth="yes"/>
      <point x="171.51807228915663" y="623.0361445783133"/>
      <point x="223.93975903614458" y="641.4578313253012"/>
      <point x="283.72289156626505" y="641.4578313253012" type="curve" smooth="yes"/>
      <point x="377.50602409638554" y="641.4578313253012"/>
      <point x="427.3975903614458" y="598.5060240963855"/>
      <point x="427.3975903614458" y="517.722891566265" type="curve" smooth="yes"/>
      <point x="427.3975903614458" y="454.12048192771084"/>
      <point x="398.6867469879518" y="395.10843373493975"/>
      <point x="330.7951807228916" y="322.09638554216866" type="curve" smooth="yes"/>
      <point x="107.0" y="81.59036144578313" type="line" smooth="yes"/>
      <point x="93.01204819277109" y="67.13253012048193"/>
      <point x="85.78313253012048" y="53.493975903614455"/>
      <point x="85.78313253012048" y="38.975903614457835" type="curve" smooth="yes"/>
      <point x="85.78313253012048" y="15.228915662650603"/>
      <point x="99.01204819277109" y="0.0"/>
    </contour>
  </outline>
</glyph>
<glyph name="three" format="2">
  <advance width="600.0"/>
  <unicode hex="0033"/>
  <outline>
    <contour>
      <point x="291.8313253012048" y="-8.939759036144578" type="curve" smooth="yes"/>
      <point x="438.69879518072287" y="-8.939759036144578"/>
      <point x="528.8072289156627" y="68.0"/>
      <point x="528.8072289156627" y="190.34939759036143" type="curve" smooth="yes"/>
      <point x="528.8072289156627" y="285.87951807228916"/>
      <point x="472.8072289156627" y="352.34939759036143"/>
      <point x="375.2168674698795" y="369.4096385542169" type="curve"/>
      <point x="375.2168674698795" y="358.4698795180723" type="line"/>
      <point x="457.8072289156627" y="379.5301204819277"/>
      <point x="508.86746987951807" y="446.65060240963857"/>
      <point x="508.86746987951807" y="532.7710843373494" type="curve" smooth="yes"/>
      <point x="508.86746987951807" y="646.0602409638554"/>
      <point x="428.1686746987952" y="713.9397590361446"/>
      <point x="291.71084337349396" y="713.9397590361446" type="curve" smooth="yes"/>
      <point x="215.06024096385542" y="713.9397590361446"/>
      <point x="139.81927710843374" y="688.6385542168674"/>
      <point x="86.53012048192771" y="643.6867469879518" type="curve" smooth="yes"/>
      <point x="44.204819277108435" y="611.6987951807229"/>
      <point x="81.89156626506023" y="553.855421686747"/>
      <point x="123.27710843373494" y="583.9638554216867" type="curve" smooth="yes"/>
      <point x="174.74698795180723" y="625.0361445783133"/>
      <point x="225.93975903614458" y="641.4578313253012"/>
      <point x="286.5421686746988" y="641.4578313253012" type="curve" smooth="yes"/>
      <point x="376.7951807228916" y="641.4578313253012"/>
      <point x="427.27710843373495" y="599.9759036144578"/>
      <point x="427.27710843373495" y="525.722891566265" type="curve" smooth="yes"/>
      <point x="427.27710843373495" y="442.7590361445783"/>
      <point x="370.2048192771084" y="392.56626506024094"/>
      <point x="280.3614457831325" y="392.56626506024094" type="curve" smooth="yes"/>
      <point x="215.63855421686748" y="392.56626506024094" type="line" smooth="yes"/>
      <point x="190.83132530120483" y="392.56626506024094"/>
      <point x="177.19277108433735" y="379.4578313253012"/>
      <point x="177.19277108433735" y="357.5903614457831" type="curve" smooth="yes"/>
      <point x="177.19277108433735" y="335.72289156626505"/>
      <point x="190.83132530120483" y="322.0843373493976"/>
      <point x="215.63855421686748" y="322.0843373493976" type="curve" smooth="yes"/>
      <point x="287.06024096385545" y="322.0843373493976" type="line" smooth="yes"/>
      <point x="391.144578313253" y="322.0843373493976"/>
      <point x="447.2168674698795" y="279.48192771084337"/>
      <point x="447.2168674698795" y="195.51807228915663" type="curve" smooth="yes"/>
      <point x="447.2168674698795" y="110.08433734939759"/>
      <point x="391.73493975903614" y="63.5421686746988"/>
      <point x="289.95180722891564" y="63.5421686746988" type="curve" smooth="yes"/>
      <point x="226.87951807228916" y="63.5421686746988"/>
      <point x="169.3975903614458" y="79.8433734939759"/>
      <point x="111.21686746987952" y="119.3855421686747" type="curve" smooth="yes"/>
      <point x="64.5421686746988" y="147.8433734939759"/>
      <point x="32.445783132530124" y="88.40963855421687"/>
      <point x="74.06024096385542" y="58.19277108433735" type="curve" smooth="yes"/>
      <point x="131.06024096385542" y="13.301204819277109"/>
      <point x="214.0" y="-8.939759036144578"/>
    </contour>
  </outline>
</glyph>
<glyph name="four" format="2">
  <advance width="600.0"/>
  <unicode hex="0034"/>
  <outline>
    <contour>
      <point x="418.30120481927713" y="-6.9397590361445785" type="curve" smooth="yes"/>
      <point x="444.51807228915663" y="-6.9397590361445785"/>
      <point x="459.50602409638554" y="8.108433734939759"/>
      <point x="459.50602409638554" y="34.795180722891565" type="curve" smooth="yes"/>
      <point x="459.50602409638554" y="150.96385542168676" type="line"/>
      <point x="532.8915662650602" y="150.96385542168676" type="line" smooth="yes"/>
      <point x="558.1686746987951" y="150.96385542168676"/>
      <point x="571.8072289156627" y="163.13253012048193"/>
      <point x="571.8072289156627" y="186.46987951807228" type="curve" smooth="yes"/>
      <point x="571.8072289156627" y="209.27710843373495"/>
      <point x="558.1686746987951" y="221.44578313253012"/>
      <point x="532.8915662650602" y="221.44578313253012" type="curve" smooth="yes"/>
      <point x="459.50602409638554" y="221.44578313253012" type="line"/>
      <point x="459.50602409638554" y="670.2048192771084" type="line" smooth="yes"/>
      <point x="459.50602409638554" y="698.3012048192771"/>
      <point x="442.9879518072289" y="711.9397590361446"/>
      <point x="420.71084337349396" y="711.9397590361446" type="curve" smooth="yes"/>
      <point x="400.7831325301205" y="711.9397590361446"/>
      <point x="386.67469879518075" y="702.2409638554217"/>
      <point x="374.56626506024094" y="684.3132530120482" type="curve" smooth="yes"/>
      <point x="69.81927710843374" y="240.13253012048193" type="line" smooth="yes"/>
      <point x="53.01204819277108" y="215.6265060240964"/>
      <point x="46.72289156626506" y="202.10843373493975"/>
      <point x="46.72289156626506" y="187.53012048192772" type="curve" smooth="yes"/>
      <point x="46.72289156626506" y="163.72289156626505"/>
      <point x="63.65060240963855" y="150.96385542168676"/>
      <point x="90.33734939759036" y="150.96385542168676" type="curve" smooth="yes"/>
      <point x="377.09638554216866" y="150.96385542168676" type="line"/>
      <point x="377.09638554216866" y="34.795180722891565" type="line" smooth="yes"/>
      <point x="377.09638554216866" y="8.108433734939759"/>
      <point x="392.6144578313253" y="-6.9397590361445785"/>
    </contour>
    <contour>
      <point x="377.09638554216866" y="221.44578313253012" type="line"/>
      <point x="120.79518072289156" y="221.44578313253012" type="line"/>
      <point x="120.79518072289156" y="199.10843373493975" type="line"/>
      <point x="401.32530120481925" y="608.722891566265" type="line"/>
      <point x="377.09638554216866" y="608.722891566265" type="line"/>
    </contour>
  </outline>
</glyph>
<glyph name="five" format="2">
  <advance width="600.0"/>
  <unicode hex="0035"/>
  <outline>
    <contour>
      <point x="315.0120481927711" y="-8.939759036144578" type="curve" smooth="yes"/>
      <point x="461.87951807228916" y="-8.939759036144578"/>
      <point x="552.9879518072289" y="84.0"/>
      <point x="552.9879518072289" y="217.16867469879517" type="curve" smooth="yes"/>
      <point x="552.9879518072289" y="350.6385542168675"/>
      <point x="468.1686746987952" y="441.10843373493975"/>
      <point x="336.2289156626506" y="441.10843373493975" type="curve" smooth="yes"/>
      <point x="260.27710843373495" y="441.10843373493975"/>
      <point x="195.56626506024097" y="409.27710843373495"/>
      <point x="160.50602409638554" y="354.32530120481925" type="curve"/>
      <point x="183.43373493975903" y="354.32530120481925" type="line"/>
      <point x="183.43373493975903" y="634.5180722891566" type="line"/>
      <point x="480.0120481927711" y="634.5180722891566" type="line" smooth="yes"/>
      <point x="504.34939759036143" y="634.5180722891566"/>
      <point x="517.9879518072289" y="647.156626506024"/>
      <point x="517.9879518072289" y="670.0240963855422" type="curve" smooth="yes"/>
      <point x="517.9879518072289" y="692.3614457831326"/>
      <point x="504.34939759036143" y="705.0"/>
      <point x="480.0120481927711" y="705.0" type="curve" smooth="yes"/>
      <point x="140.40963855421685" y="705.0" type="line" smooth="yes"/>
      <point x="116.07228915662651" y="705.0"/>
      <point x="102.43373493975903" y="691.3614457831326"/>
      <point x="102.43373493975903" y="667.0240963855422" type="curve" smooth="yes"/>
      <point x="102.43373493975903" y="318.8192771084337" type="line" smooth="yes"/>
      <point x="102.43373493975903" y="296.8313253012048"/>
      <point x="115.19277108433735" y="283.6024096385542"/>
      <point x="138.06024096385542" y="283.6024096385542" type="curve" smooth="yes"/>
      <point x="154.289156626506" y="283.6024096385542"/>
      <point x="166.86746987951807" y="291.89156626506025"/>
      <point x="175.6867469879518" y="302.89156626506025" type="curve" smooth="yes"/>
      <point x="215.27710843373495" y="350.0843373493976"/>
      <point x="263.2289156626506" y="370.03614457831327"/>
      <point x="321.0722891566265" y="370.03614457831327" type="curve" smooth="yes"/>
      <point x="414.9156626506024" y="370.03614457831327"/>
      <point x="471.3975903614458" y="304.72289156626505"/>
      <point x="471.3975903614458" y="212.6987951807229" type="curve" smooth="yes"/>
      <point x="471.3975903614458" y="123.26506024096386"/>
      <point x="411.855421686747" y="63.5421686746988"/>
      <point x="314.0722891566265" y="63.5421686746988" type="curve" smooth="yes"/>
      <point x="249.18072289156626" y="63.5421686746988"/>
      <point x="190.63855421686748" y="82.25301204819277"/>
      <point x="136.86746987951807" y="121.3855421686747" type="curve" smooth="yes"/>
      <point x="92.60240963855422" y="150.3734939759036"/>
      <point x="58.975903614457835" y="88.53012048192771"/>
      <point x="98.59036144578313" y="60.78313253012048" type="curve" smooth="yes"/>
      <point x="159.59036144578315" y="13.301204819277109"/>
      <point x="238.18072289156626" y="-8.939759036144578"/>
    </contour>
  </outline>
</glyph>
<glyph name="six" format="2">
  <advance width="600.0"/>
  <unicode hex="0036"/>
  <outline>
    <contour>
      <point x="324.4096385542169" y="-8.939759036144578" type="curve" smooth="yes"/>
      <point x="455.578313253012" y="-8.939759036144578"/>
      <point x="548.3975903614457" y="86.87951807228916"/>
      <point x="548.3975903614457" y="219.63855421686748" type="curve" smooth="yes"/>
      <point x="548.3975903614457" y="349.578313253012"/>
      <point x="460.3975903614458" y="442.4578313253012"/>
      <point x="335.6867469879518" y="442.4578313253012" type="curve" smooth="yes"/>
      <point x="228.67469879518072" y="442.4578313253012"/>
      <point x="147.3132530120482" y="371.4457831325301"/>
      <point x="134.96385542168676" y="257.72289156626505" type="curve"/>
      <point x="143.7831325301205" y="257.72289156626505" type="line"/>
      <point x="143.7831325301205" y="351.27710843373495" type="line" smooth="yes"/>
      <point x="143.7831325301205" y="543.5542168674699"/>
      <point x="216.85542168674698" y="641.4578313253012"/>
      <point x="347.1686746987952" y="641.4578313253012" type="curve" smooth="yes"/>
      <point x="395.65060240963857" y="641.4578313253012"/>
      <point x="444.72289156626505" y="625.566265060241"/>
      <point x="489.72289156626505" y="586.9036144578313" type="curve" smooth="yes"/>
      <point x="531.9879518072289" y="555.7951807228916"/>
      <point x="563.4457831325301" y="617.5180722891566"/>
      <point x="529.4698795180723" y="644.566265060241" type="curve" smooth="yes"/>
      <point x="479.65060240963857" y="689.5783132530121"/>
      <point x="409.8192771084337" y="713.9397590361446"/>
      <point x="348.6385542168675" y="713.9397590361446" type="curve" smooth="yes"/>
      <point x="169.7710843373494" y="713.9397590361446"/>
      <point x="63.66265060240964" y="578.4698795180723"/>
      <point x="63.66265060240964" y="335.2289156626506" type="curve" smooth="yes"/>
      <point x="63.66265060240964" y="117.46987951807229"/>
      <point x="157.36144578313252" y="-8.939759036144578"/>
    </contour>
    <contour>
      <point x="319.0" y="60.72289156626506" type="curve" smooth="yes"/>
      <point x="230.03614457831324" y="60.72289156626506"/>
      <point x="168.8433734939759" y="124.3855421686747"/>
      <point x="168.8433734939759" y="216.75903614457832" type="curve" smooth="yes"/>
      <point x="168.8433734939759" y="309.13253012048193"/>
      <point x="230.03614457831324" y="373.26506024096386"/>
      <point x="319.0" y="373.26506024096386" type="curve" smooth="yes"/>
      <point x="407.96385542168673" y="373.26506024096386"/>
      <point x="469.1566265060241" y="309.13253012048193"/>
      <point x="469.1566265060241" y="216.75903614457832" type="curve" smooth="yes"/>
      <point x="469.1566265060241" y="124.3855421686747"/>
      <point x="407.96385542168673" y="60.72289156626506"/>
    </contour>
  </outline>
</glyph>
<glyph name="seven" format="2">
  <advance width="600.0"/>
  <unicode hex="0037"/>
  <outline>
    <contour>
      <point x="167.75903614457832" y="-6.9397590361445785" type="curve" smooth="yes"/>
      <point x="191.03614457831324" y="-6.9397590361445785"/>
      <point x="204.55421686746988" y="1.819277108433735"/>
      <point x="214.25301204819277" y="21.277108433734938" type="curve" smooth="yes"/>
      <point x="521.5783132530121" y="621.5301204819277" type="line" smooth="yes"/>
      <point x="530.3373493975904" y="638.5783132530121"/>
      <point x="535.0963855421687" y="650.6867469879518"/>
      <point x="535.0963855421687" y="669.5542168674699" type="curve" smooth="yes"/>
      <point x="535.0963855421687" y="691.8915662650602"/>
      <point x="519.1084337349398" y="705.0"/>
      <point x="494.7710843373494" y="705.0" type="curve" smooth="yes"/>
      <point x="98.2289156626506" y="705.0" type="line" smooth="yes"/>
      <point x="73.89156626506023" y="705.0"/>
      <point x="60.25301204819277" y="692.3614457831326"/>
      <point x="60.25301204819277" y="669.5542168674699" type="curve" smooth="yes"/>
      <point x="60.25301204819277" y="647.2168674698795"/>
      <point x="73.89156626506023" y="634.0481927710844"/>
      <point x="98.2289156626506" y="634.0481927710844" type="curve" smooth="yes"/>
      <point x="458.27710843373495" y="634.0481927710844" type="line"/>
      <point x="458.27710843373495" y="669.566265060241" type="line"/>
      <point x="136.66265060240963" y="47.493975903614455" type="line" smooth="yes"/>
      <point x="120.6144578313253" y="16.337349397590362"/>
      <point x="139.3132530120482" y="-6.9397590361445785"/>
    </contour>
  </outline>
</glyph>
<glyph name="eight" format="2">
  <advance width="600.0"/>
  <unicode hex="0038"/>
  <outline>
    <contour>
      <point x="300.0" y="-8.939759036144578" type="curve" smooth="yes"/>
      <point x="458.1686746987952" y="-8.939759036144578"/>
      <point x="551.3975903614457" y="62.93975903614458"/>
      <point x="551.3975903614457" y="186.81927710843374" type="curve" smooth="yes"/>
      <point x="551.3975903614457" y="284.28915662650604"/>
      <point x="487.3975903614458" y="353.7590361445783"/>
      <point x="392.8072289156627" y="366.7590361445783" type="curve"/>
      <point x="392.8072289156627" y="352.5903614457831" type="line"/>
      <point x="479.4578313253012" y="369.71084337349396"/>
      <point x="534.9277108433735" y="439.71084337349396"/>
      <point x="534.9277108433735" y="526.0602409638554" type="curve" smooth="yes"/>
      <point x="534.9277108433735" y="644.0"/>
      <point x="443.10843373493975" y="713.9397590361446"/>
      <point x="300.0" y="713.9397590361446" type="curve" smooth="yes"/>
      <point x="157.36144578313252" y="713.9397590361446"/>
      <point x="65.5421686746988" y="644.0"/>
      <point x="65.5421686746988" y="526.0602409638554" type="curve" smooth="yes"/>
      <point x="65.5421686746988" y="439.65060240963857"/>
      <point x="121.01204819277109" y="370.65060240963857"/>
      <point x="208.13253012048193" y="352.12048192771084" type="curve"/>
      <point x="208.13253012048193" y="366.7590361445783" type="line"/>
      <point x="113.5421686746988" y="354.2289156626506"/>
      <point x="48.60240963855422" y="284.7590361445783"/>
      <point x="48.60240963855422" y="186.81927710843374" type="curve" smooth="yes"/>
      <point x="48.60240963855422" y="62.93975903614458"/>
      <point x="141.83132530120483" y="-8.939759036144578"/>
    </contour>
    <contour>
      <point x="300.0" y="59.25301204819277" type="curve" smooth="yes"/>
      <point x="187.3855421686747" y="59.25301204819277"/>
      <point x="127.8433734939759" y="103.14457831325302"/>
      <point x="127.8433734939759" y="191.57831325301206" type="curve" smooth="yes"/>
      <point x="127.8433734939759" y="280.0120481927711"/>
      <point x="187.3855421686747" y="322.90361445783134"/>
      <point x="300.0" y="322.90361445783134" type="curve" smooth="yes"/>
      <point x="413.0843373493976" y="322.90361445783134"/>
      <point x="472.1566265060241" y="280.0120481927711"/>
      <point x="472.1566265060241" y="191.57831325301206" type="curve" smooth="yes"/>
      <point x="472.1566265060241" y="103.14457831325302"/>
      <point x="413.0843373493976" y="59.25301204819277"/>
    </contour>
    <contour>
      <point x="300.0" y="391.09638554216866" type="curve" smooth="yes"/>
      <point x="202.44578313253012" y="391.09638554216866"/>
      <point x="144.7831325301205" y="439.578313253012"/>
      <point x="144.7831325301205" y="519.4216867469879" type="curve" smooth="yes"/>
      <point x="144.7831325301205" y="598.7951807228916"/>
      <point x="202.44578313253012" y="645.7469879518072"/>
      <point x="300.0" y="645.7469879518072" type="curve" smooth="yes"/>
      <point x="397.5542168674699" y="645.7469879518072"/>
      <point x="455.6867469879518" y="598.7951807228916"/>
      <point x="455.6867469879518" y="519.4216867469879" type="curve" smooth="yes"/>
      <point x="455.6867469879518" y="439.578313253012"/>
      <point x="397.5542168674699" y="391.09638554216866"/>
    </contour>
  </outline>
</glyph>
<glyph name="nine" format="2">
  <advance width="600.0"/>
  <unicode hex="0039"/>
  <outline>
    <contour>
      <point x="251.36144578313252" y="-8.939759036144578" type="curve" smooth="yes"/>
      <point x="430.2289156626506" y="-8.939759036144578"/>
      <point x="536.3373493975904" y="126.53012048192771"/>
      <point x="536.3373493975904" y="369.7710843373494" type="curve" smooth="yes"/>
      <point x="536.3373493975904" y="587.5301204819277"/>
      <point x="442.6385542168675" y="713.9397590361446"/>
      <point x="275.5903614457831" y="713.9397590361446" type="curve" smooth="yes"/>
      <point x="144.42168674698794" y="713.9397590361446"/>
      <point x="51.60240963855422" y="618.1204819277109"/>
      <point x="51.60240963855422" y="485.3614457831325" type="curve" smooth="yes"/>
      <point x="51.60240963855422" y="355.421686746988"/>
      <point x="139.6024096385542" y="262.5421686746988"/>
      <point x="264.3132530120482" y="262.5421686746988" type="curve" smooth="yes"/>
      <point x="371.32530120481925" y="262.5421686746988"/>
      <point x="452.6867469879518" y="333.5542168674699"/>
      <point x="465.03614457831327" y="447.27710843373495" type="curve"/>
      <point x="456.2168674698795" y="447.27710843373495" type="line"/>
      <point x="456.2168674698795" y="353.72289156626505" type="line" smooth="yes"/>
      <point x="456.2168674698795" y="161.44578313253012"/>
      <point x="383.144578313253" y="63.5421686746988"/>
      <point x="252.83132530120483" y="63.5421686746988" type="curve" smooth="yes"/>
      <point x="204.34939759036143" y="63.5421686746988"/>
      <point x="155.27710843373495" y="79.96385542168674"/>
      <point x="110.27710843373494" y="118.62650602409639" type="curve" smooth="yes"/>
      <point x="68.01204819277109" y="149.73493975903614"/>
      <point x="36.554216867469876" y="88.01204819277109"/>
      <point x="70.53012048192771" y="60.963855421686745" type="curve" smooth="yes"/>
      <point x="120.34939759036145" y="15.951807228915662"/>
      <point x="190.18072289156626" y="-8.939759036144578"/>
    </contour>
    <contour>
      <point x="281.4698795180723" y="332.2048192771084" type="curve" smooth="yes"/>
      <point x="192.50602409638554" y="332.2048192771084"/>
      <point x="131.3132530120482" y="396.33734939759034"/>
      <point x="131.3132530120482" y="488.71084337349396" type="curve" smooth="yes"/>
      <point x="131.3132530120482" y="581.0843373493976"/>
      <point x="192.50602409638554" y="644.7469879518072"/>
      <point x="281.4698795180723" y="644.7469879518072" type="curve" smooth="yes"/>
      <point x="370.43373493975906" y="644.7469879518072"/>
      <point x="431.6265060240964" y="581.0843373493976"/>
      <point x="431.6265060240964" y="488.71084337349396" type="curve" smooth="yes"/>
      <point x="431.6265060240964" y="396.33734939759034"/>
      <point x="370.43373493975906" y="332.2048192771084"/>
    </contour>
  </outline>
</glyph>
<glyph name="colon" format="2">
  <advance width="228.3855421686747"/>
  <unicode hex="003A"/>
  <outline>
    <contour>
      <point x="114.92771084337349" y="-3.9397590361445785" type="curve" smooth="yes"/>
      <point x="148.20481927710844" y="-3.9397590361445785"/>
      <point x="169.3132530120482" y="19.10843373493976"/>
      <point x="169.3132530120482" y="51.445783132530124" type="curve" smooth="yes"/>
      <point x="169.3132530120482" y="83.3132530120482"/>
      <point x="148.20481927710844" y="105.89156626506025"/>
      <point x="114.92771084337349" y="105.89156626506025" type="curve" smooth="yes"/>
      <point x="81.65060240963855" y="105.89156626506025"/>
      <point x="59.54216867469879" y="83.3132530120482"/>
      <point x="59.54216867469879" y="51.445783132530124" type="curve" smooth="yes"/>
      <point x="59.54216867469879" y="19.10843373493976"/>
      <point x="81.65060240963855" y="-3.9397590361445785"/>
    </contour>
    <contour>
      <point x="114.92771084337349" y="380.4578313253012" type="curve" smooth="yes"/>
      <point x="148.20481927710844" y="380.4578313253012"/>
      <point x="169.3132530120482" y="403.50602409638554"/>
      <point x="169.3132530120482" y="435.3734939759036" type="curve" smooth="yes"/>
      <point x="169.3132530120482" y="467.71084337349396"/>
      <point x="148.20481927710844" y="490.28915662650604"/>
      <point x="114.92771084337349" y="490.28915662650604" type="curve" smooth="yes"/>
      <point x="81.65060240963855" y="490.28915662650604"/>
      <point x="59.54216867469879" y="467.71084337349396"/>
      <point x="59.54216867469879" y="435.3734939759036" type="curve" smooth="yes"/>
      <point x="59.54216867469879" y="403.50602409638554"/>
      <point x="81.65060240963855" y="380.4578313253012"/>
    </contour>
  </outline>
</glyph>
<glyph name="semicolon" format="2">
  <advance width="228.3855421686747"/>
  <unicode hex="003B"/>
  <outline>
    <contour>
      <point x="123.50602409638554" y="-95.33734939759036" type="curve" smooth="yes"/>
      <point x="157.7831325301205" y="-52.71084337349397"/>
      <point x="168.7831325301205" y="-2.8915662650602405"/>
      <point x="168.7831325301205" y="37.68674698795181" type="curve" smooth="yes"/>
      <point x="168.7831325301205" y="81.90361445783132"/>
      <point x="147.20481927710844" y="105.89156626506025"/>
      <point x="113.39759036144578" y="105.89156626506025" type="curve" smooth="yes"/>
      <point x="80.65060240963855" y="105.89156626506025"/>
      <point x="59.54216867469879" y="83.3132530120482"/>
      <point x="59.54216867469879" y="51.445783132530124" type="curve" smooth="yes"/>
      <point x="59.54216867469879" y="18.63855421686747"/>
      <point x="82.59036144578313" y="-3.9397590361445785"/>
      <point x="117.39759036144578" y="-3.9397590361445785" type="curve"/>
      <point x="113.4578313253012" y="16.80722891566265" type="line"/>
      <point x="113.4578313253012" y="-7.0120481927710845"/>
      <point x="105.98795180722891" y="-37.24096385542169"/>
      <point x="85.28915662650603" y="-64.93975903614458" type="curve" smooth="yes"/>
      <point x="57.83132530120482" y="-100.33734939759036"/>
      <point x="96.98795180722891" y="-128.26506024096386"/>
    </contour>
    <contour>
      <point x="114.92771084337349" y="380.4578313253012" type="curve" smooth="yes"/>
      <point x="148.20481927710844" y="380.4578313253012"/>
      <point x="169.3132530120482" y="403.50602409638554"/>
      <point x="169.3132530120482" y="435.3734939759036" type="curve" smooth="yes"/>
      <point x="169.3132530120482" y="467.71084337349396"/>
      <point x="148.20481927710844" y="490.28915662650604"/>
      <point x="114.92771084337349" y="490.28915662650604" type="curve" smooth="yes"/>
      <point x="81.65060240963855" y="490.28915662650604"/>
      <point x="59.54216867469879" y="467.71084337349396"/>
      <point x="59.54216867469879" y="435.3734939759036" type="curve" smooth="yes"/>
      <point x="59.54216867469879" y="403.50602409638554"/>
      <point x="81.65060240963855" y="380.4578313253012"/>
    </contour>
  </outline>
</glyph>
<glyph name="less" format="2">
  <advance width="600.0"/>
  <unicode hex="003C"/>
  <outline>
    <contour>
      <point x="512.3132530120482" y="49.28915662650603" type="line" smooth="yes"/>
      <point x="553.4096385542168" y="31.120481927710845"/>
      <point x="575.4578313253012" y="89.73493975903614"/>
      <point x="536.3614457831326" y="106.90361445783132" type="curve" smooth="yes"/>
      <point x="88.6987951807229" y="307.3975903614458" type="line"/>
      <point x="88.6987951807229" y="266.6024096385542" type="line"/>
      <point x="536.3614457831326" y="467.09638554216866" type="line" smooth="yes"/>
      <point x="575.4578313253012" y="484.26506024096386"/>
      <point x="553.4096385542168" y="543.3493975903615"/>
      <point x="512.3132530120482" y="525.1807228915662" type="curve" smooth="yes"/>
      <point x="86.86746987951807" y="332.3855421686747" type="line" smooth="yes"/>
      <point x="64.87951807228916" y="322.56626506024094"/>
      <point x="54.12048192771084" y="307.9277108433735"/>
      <point x="54.12048192771084" y="287.4698795180723" type="curve" smooth="yes"/>
      <point x="54.12048192771084" y="266.5421686746988"/>
      <point x="64.87951807228916" y="251.43373493975903"/>
      <point x="86.86746987951807" y="241.6144578313253" type="curve" smooth="yes"/>
    </contour>
  </outline>
</glyph>
<glyph name="equal" format="2">
  <advance width="600.0"/>
  <unicode hex="003D"/>
  <outline>
    <contour>
      <point x="81.33734939759036" y="355.72289156626505" type="curve" smooth="yes"/>
      <point x="518.6626506024096" y="355.72289156626505" type="line" smooth="yes"/>
      <point x="539.1807228915662" y="355.72289156626505"/>
      <point x="550.9397590361446" y="366.95180722891564"/>
      <point x="550.9397590361446" y="387.0" type="curve" smooth="yes"/>
      <point x="550.9397590361446" y="406.51807228915663"/>
      <point x="539.1807228915662" y="417.7469879518072"/>
      <point x="518.6626506024096" y="417.7469879518072" type="curve" smooth="yes"/>
      <point x="81.33734939759036" y="417.7469879518072" type="line" smooth="yes"/>
      <point x="61.28915662650603" y="417.7469879518072"/>
      <point x="49.06024096385542" y="406.51807228915663"/>
      <point x="49.06024096385542" y="387.0" type="curve" smooth="yes"/>
      <point x="49.06024096385542" y="367.48192771084337"/>
      <point x="61.28915662650603" y="355.72289156626505"/>
    </contour>
    <contour>
      <point x="81.33734939759036" y="156.72289156626505" type="curve" smooth="yes"/>
      <point x="518.6626506024096" y="156.72289156626505" type="line" smooth="yes"/>
      <point x="539.1807228915662" y="156.72289156626505"/>
      <point x="550.9397590361446" y="167.48192771084337"/>
      <point x="550.9397590361446" y="188.0" type="curve" smooth="yes"/>
      <point x="550.9397590361446" y="207.51807228915663"/>
      <point x="539.1807228915662" y="218.27710843373495"/>
      <point x="518.6626506024096" y="218.27710843373495" type="curve" smooth="yes"/>
      <point x="81.33734939759036" y="218.27710843373495" type="line" smooth="yes"/>
      <point x="61.28915662650603" y="218.27710843373495"/>
      <point x="49.06024096385542" y="207.51807228915663"/>
      <point x="49.06024096385542" y="188.0" type="curve" smooth="yes"/>
      <point x="49.06024096385542" y="168.48192771084337"/>
      <point x="61.28915662650603" y="156.72289156626505"/>
    </contour>
  </outline>
</glyph>
<glyph name="greater" format="2">
  <advance width="600.0"/>
  <unicode hex="003E"/>
  <outline>
    <contour>
      <point x="88.1566265060241" y="49.28915662650603" type="curve" smooth="yes"/>
      <point x="513.6024096385543" y="241.6144578313253" type="line" smooth="yes"/>
      <point x="535.5903614457832" y="251.43373493975903"/>
      <point x="546.3493975903615" y="266.5421686746988"/>
      <point x="546.3493975903615" y="287.4698795180723" type="curve" smooth="yes"/>
      <point x="546.3493975903615" y="307.9277108433735"/>
      <point x="535.5903614457832" y="322.56626506024094"/>
      <point x="513.6024096385543" y="332.3855421686747" type="curve" smooth="yes"/>
      <point x="88.1566265060241" y="525.1807228915662" type="line" smooth="yes"/>
      <point x="47.06024096385542" y="543.3493975903615"/>
      <point x="25.012048192771083" y="484.26506024096386"/>
      <point x="64.10843373493977" y="467.09638554216866" type="curve" smooth="yes"/>
      <point x="511.7710843373494" y="266.6024096385542" type="line"/>
      <point x="511.7710843373494" y="307.3975903614458" type="line"/>
      <point x="64.10843373493977" y="106.90361445783132" type="line" smooth="yes"/>
      <point x="25.012048192771083" y="89.73493975903614"/>
      <point x="47.06024096385542" y="31.120481927710845"/>
    </contour>
  </outline>
</glyph>
<glyph name="question" format="2">
  <advance width="443.09638554216866"/>
  <unicode hex="003F"/>
  <outline>
    <contour>
      <point x="208.6867469879518" y="180.14457831325302" type="curve" smooth="yes"/>
      <point x="225.26506024096386" y="180.14457831325302"/>
      <point x="235.02409638554218" y="190.49397590361446"/>
      <point x="236.49397590361446" y="206.8433734939759" type="curve" smooth="yes"/>
      <point x="241.96385542168676" y="262.855421686747"/>
      <point x="264.144578313253" y="306.8072289156627"/>
      <point x="327.144578313253" y="373.34939759036143" type="curve" smooth="yes"/>
      <point x="395.0843373493976" y="445.3614457831325"/>
      <point x="419.0843373493976" y="492.8313253012048"/>
      <point x="419.0843373493976" y="556.4216867469879" type="curve" smooth="yes"/>
      <point x="419.0843373493976" y="650.6506024096385"/>
      <point x="342.03614457831327" y="713.9397590361446"/>
      <point x="226.63855421686748" y="713.9397590361446" type="curve" smooth="yes"/>
      <point x="155.1566265060241" y="713.9397590361446"/>
      <point x="79.74698795180723" y="688.1084337349398"/>
      <point x="27.867469879518072" y="647.3373493975904" type="curve" smooth="yes"/>
      <point x="-19.397590361445783" y="612.4698795180723"/>
      <point x="13.46987951807229" y="553.0963855421687"/>
      <point x="64.20481927710844" y="587.144578313253" type="curve" smooth="yes"/>
      <point x="111.91566265060241" y="622.2168674698795"/>
      <point x="161.3975903614458" y="641.4578313253012"/>
      <point x="223.40963855421685" y="641.4578313253012" type="curve" smooth="yes"/>
      <point x="293.6024096385542" y="641.4578313253012"/>
      <point x="336.0843373493976" y="606.5060240963855"/>
      <point x="336.0843373493976" y="550.3132530120482" type="curve" smooth="yes"/>
      <point x="336.0843373493976" y="503.7710843373494"/>
      <point x="318.43373493975906" y="467.34939759036143"/>
      <point x="267.95180722891564" y="408.6867469879518" type="curve" smooth="yes"/>
      <point x="204.53012048192772" y="334.5542168674699"/>
      <point x="181.93975903614458" y="280.7831325301205"/>
      <point x="181.93975903614458" y="212.36144578313252" type="curve" smooth="yes"/>
      <point x="181.93975903614458" y="192.3132530120482"/>
      <point x="192.16867469879517" y="180.14457831325302"/>
    </contour>
    <contour>
      <point x="207.74698795180723" y="-3.9397590361445785" type="curve" smooth="yes"/>
      <point x="241.02409638554218" y="-3.9397590361445785"/>
      <point x="262.13253012048193" y="19.10843373493976"/>
      <point x="262.13253012048193" y="51.445783132530124" type="curve" smooth="yes"/>
      <point x="262.13253012048193" y="83.3132530120482"/>
      <point x="241.02409638554218" y="105.89156626506025"/>
      <point x="207.74698795180723" y="105.89156626506025" type="curve" smooth="yes"/>
      <point x="174.46987951807228" y="105.89156626506025"/>
      <point x="152.36144578313252" y="83.3132530120482"/>
      <point x="152.36144578313252" y="51.445783132530124" type="curve" smooth="yes"/>
      <point x="152.36144578313252" y="19.10843373493976"/>
      <point x="174.46987951807228" y="-3.9397590361445785"/>
    </contour>
  </outline>
</glyph>
<glyph name="at" format="2">
  <advance width="946.289156626506"/>
  <unicode hex="0040"/>
  <outline>
    <contour>
      <point x="484.93975903614455" y="-163.40963855421685" type="curve" smooth="yes"/>
      <point x="598.7710843373494" y="-163.40963855421685"/>
      <point x="693.0722891566265" y="-129.10843373493975"/>
      <point x="755.1325301204819" y="-74.50602409638554" type="curve" smooth="yes"/>
      <point x="790.4698795180723" y="-44.74698795180723"/>
      <point x="755.2409638554217" y="-0.4216867469879517"/>
      <point x="719.4939759036145" y="-29.120481927710845" type="curve" smooth="yes"/>
      <point x="663.0843373493976" y="-77.60240963855422"/>
      <point x="583.0120481927711" y="-106.55421686746988"/>
      <point x="484.93975903614455" y="-106.55421686746988" type="curve" smooth="yes"/>
      <point x="263.86746987951807" y="-106.55421686746988"/>
      <point x="124.03614457831326" y="35.9277108433735"/>
      <point x="124.03614457831326" y="272.7710843373494" type="curve" smooth="yes"/>
      <point x="124.03614457831326" y="503.6024096385542"/>
      <point x="273.9277108433735" y="657.0843373493976"/>
      <point x="497.2289156626506" y="657.0843373493976" type="curve" smooth="yes"/>
      <point x="695.9397590361446" y="657.0843373493976"/>
      <point x="828.0722891566265" y="533.3614457831326"/>
      <point x="828.0722891566265" y="344.12048192771084" type="curve" smooth="yes"/>
      <point x="828.0722891566265" y="205.33734939759037"/>
      <point x="775.6506024096385" y="113.3855421686747"/>
      <point x="698.9879518072289" y="113.3855421686747" type="curve" smooth="yes"/>
      <point x="658.156626506024" y="113.3855421686747"/>
      <point x="638.5060240963855" y="135.03614457831324"/>
      <point x="638.5060240963855" y="180.21686746987953" type="curve" smooth="yes"/>
      <point x="638.5060240963855" y="193.1566265060241"/>
      <point x="639.9759036144578" y="209.03614457831324"/>
      <point x="643.4457831325301" y="227.32530120481928" type="curve" smooth="yes"/>
      <point x="682.7469879518072" y="454.2530120481928" type="line" smooth="yes"/>
      <point x="687.156626506024" y="478.2409638554217"/>
      <point x="675.9277108433735" y="490.93975903614455"/>
      <point x="654.4698795180723" y="490.93975903614455" type="curve" smooth="yes"/>
      <point x="634.4216867469879" y="490.93975903614455"/>
      <point x="620.722891566265" y="481.65060240963857"/>
      <point x="616.7831325301205" y="458.5421686746988" type="curve" smooth="yes"/>
      <point x="605.6626506024096" y="391.8192771084337" type="line"/>
      <point x="617.3614457831326" y="391.8192771084337" type="line"/>
      <point x="603.4819277108434" y="457.69879518072287"/>
      <point x="555.3614457831326" y="495.28915662650604"/>
      <point x="482.7710843373494" y="495.28915662650604" type="curve" smooth="yes"/>
      <point x="358.7710843373494" y="495.28915662650604"/>
      <point x="266.65060240963857" y="387.7590361445783"/>
      <point x="266.65060240963857" y="240.6987951807229" type="curve" smooth="yes"/>
      <point x="266.65060240963857" y="127.34939759036145"/>
      <point x="326.06024096385545" y="59.0"/>
      <point x="429.34939759036143" y="59.0" type="curve" smooth="yes"/>
      <point x="497.10843373493975" y="59.0"/>
      <point x="562.6385542168674" y="101.81927710843374"/>
      <point x="597.1686746987951" y="181.6867469879518" type="curve"/>
      <point x="578.3614457831326" y="187.06024096385542" type="line"/>
      <point x="571.8795180722891" y="108.12048192771084"/>
      <point x="615.6987951807229" y="59.0"/>
      <point x="694.5783132530121" y="59.0" type="curve" smooth="yes"/>
      <point x="808.9879518072289" y="59.0"/>
      <point x="885.3975903614457" y="170.59036144578315"/>
      <point x="885.3975903614457" y="344.12048192771084" type="curve" smooth="yes"/>
      <point x="885.3975903614457" y="565.4096385542168"/>
      <point x="728.9277108433735" y="713.9397590361446"/>
      <point x="498.2289156626506" y="713.9397590361446" type="curve" smooth="yes"/>
      <point x="239.24096385542168" y="713.9397590361446"/>
      <point x="60.89156626506024" y="534.9397590361446"/>
      <point x="60.89156626506024" y="272.7710843373494" type="curve" smooth="yes"/>
      <point x="60.89156626506024" y="6.469879518072289"/>
      <point x="230.06024096385542" y="-163.40963855421685"/>
    </contour>
    <contour>
      <point x="438.33734939759034" y="116.79518072289156" type="curve" smooth="yes"/>
      <point x="372.7951807228916" y="116.79518072289156"/>
      <point x="335.49397590361446" y="160.6265060240964"/>
      <point x="335.49397590361446" y="241.16867469879517" type="curve" smooth="yes"/>
      <point x="335.49397590361446" y="354.89156626506025"/>
      <point x="401.6265060240964" y="437.0240963855422"/>
      <point x="490.28915662650604" y="437.0240963855422" type="curve" smooth="yes"/>
      <point x="559.8915662650602" y="437.0240963855422"/>
      <point x="592.1927710843373" y="399.7831325301205"/>
      <point x="592.1927710843373" y="324.65060240963857" type="curve" smooth="yes"/>
      <point x="592.1927710843373" y="203.9879518072289"/>
      <point x="527.0602409638554" y="116.79518072289156"/>
    </contour>
  </outline>
</glyph>
<glyph name="A" format="2">
  <advance width="729.156626506024"/>
  <unicode hex="0041"/>
  <anchor x="365.578313253012" y="0.0" name="bottom"/>
  <anchor x="692.3373493975904" y="0.0" name="ogonek"/>
  <anchor x="365.578313253012" y="705.0" name="top"/>
  <outline>
    <contour>
      <point x="72.33734939759036" y="-6.9397590361445785" type="curve" smooth="yes"/>
      <point x="92.55421686746988" y="-6.9397590361445785"/>
      <point x="105.37349397590361" y="3.7590361445783134"/>
      <point x="116.5421686746988" y="30.036144578313255" type="curve" smooth="yes"/>
      <point x="189.55421686746988" y="201.18072289156626" type="line"/>
      <point x="149.33734939759037" y="179.96385542168676" type="line"/>
      <point x="578.7590361445783" y="179.96385542168676" type="line"/>
      <point x="539.0722891566265" y="201.18072289156626" type="line"/>
      <point x="612.5542168674699" y="30.036144578313255" type="line" smooth="yes"/>
      <point x="622.722891566265" y="6.289156626506024"/>
      <point x="635.9518072289156" y="-6.9397590361445785"/>
      <point x="660.2289156626506" y="-6.9397590361445785" type="curve" smooth="yes"/>
      <point x="691.4457831325301" y="-6.9397590361445785"/>
      <point x="703.3734939759036" y="16.927710843373497"/>
      <point x="689.2650602409639" y="48.554216867469876" type="curve" smooth="yes"/>
      <point x="413.13253012048193" y="675.433734939759" type="line" smooth="yes"/>
      <point x="401.96385542168673" y="701.2409638554217"/>
      <point x="384.9156626506024" y="711.9397590361446"/>
      <point x="365.04819277108436" y="711.9397590361446" type="curve" smooth="yes"/>
      <point x="344.71084337349396" y="711.9397590361446"/>
      <point x="327.66265060240966" y="701.2409638554217"/>
      <point x="316.49397590361446" y="675.433734939759" type="curve" smooth="yes"/>
      <point x="40.83132530120482" y="48.554216867469876" type="line" smooth="yes"/>
      <point x="26.722891566265062" y="17.397590361445783"/>
      <point x="39.65060240963855" y="-6.9397590361445785"/>
    </contour>
    <contour>
      <point x="363.578313253012" y="609.4698795180723" type="line"/>
      <point x="365.578313253012" y="609.4698795180723" type="line"/>
      <point x="526.722891566265" y="230.34939759036143" type="line"/>
      <point x="549.0722891566265" y="248.56626506024097" type="line"/>
      <point x="179.02409638554218" y="248.56626506024097" type="line"/>
      <point x="202.90361445783134" y="230.34939759036143" type="line"/>
    </contour>
  </outline>
</glyph>
<glyph name="C" format="2">
  <advance width="673.1084337349398"/>
  <unicode hex="0043"/>
  <anchor x="385.1686746987952" y="0.0" name="bottom"/>
  <anchor x="386.69879518072287" y="705.0" name="top"/>
  <outline>
    <contour>
      <point x="392.27710843373495" y="-8.939759036144578" type="curve" smooth="yes"/>
      <point x="477.28915662650604" y="-8.939759036144578"/>
      <point x="554.2289156626506" y="15.771084337349397"/>
      <point x="610.8795180722891" y="63.78313253012048" type="curve" smooth="yes"/>
      <point x="651.2048192771084" y="95.06024096385542"/>
      <point x="615.3975903614457" y="156.7831325301205"/>
      <point x="568.3132530120482" y="123.91566265060241" type="curve" smooth="yes"/>
      <point x="518.4819277108434" y="84.72289156626506"/>
      <point x="460.0" y="66.36144578313252"/>
      <point x="393.6265060240964" y="66.36144578313252" type="curve" smooth="yes"/>
      <point x="235.25301204819277" y="66.36144578313252"/>
      <point x="148.65060240963857" y="170.67469879518072"/>
      <point x="148.65060240963857" y="353.0" type="curve" smooth="yes"/>
      <point x="148.65060240963857" y="534.7951807228916"/>
      <point x="235.25301204819277" y="638.6385542168674"/>
      <point x="393.6265060240964" y="638.6385542168674" type="curve" smooth="yes"/>
      <point x="460.12048192771084" y="638.6385542168674"/>
      <point x="517.6024096385543" y="620.7469879518072"/>
      <point x="565.9638554216867" y="582.0843373493976" type="curve" smooth="yes"/>
      <point x="613.5180722891566" y="547.8072289156627"/>
      <point x="652.144578313253" y="611.7590361445783"/>
      <point x="606.5301204819277" y="645.0963855421687" type="curve" smooth="yes"/>
      <point x="552.4698795180723" y="689.1686746987951"/>
      <point x="474.8192771084337" y="713.9397590361446"/>
      <point x="392.27710843373495" y="713.9397590361446" type="curve" smooth="yes"/>
      <point x="183.93975903614458" y="713.9397590361446"/>
      <point x="60.89156626506024" y="575.0602409638554"/>
      <point x="60.89156626506024" y="353.0" type="curve" smooth="yes"/>
      <point x="60.89156626506024" y="129.93975903614458"/>
      <point x="183.93975903614458" y="-8.939759036144578"/>
    </contour>
  </outline>
</glyph>
<glyph name="D" format="2">
  <advance width="742.3855421686746"/>
  <unicode hex="0044"/>
  <anchor x="370.51807228915663" y="0.0" name="bottom"/>
  <anchor x="182.86746987951807" y="358.0" name="center"/>
  <anchor x="369.9879518072289" y="705.0" name="top"/>
  <outline>
    <contour>
      <point x="132.27710843373495" y="0.0" type="curve" smooth="yes"/>
      <point x="325.2168674698795" y="0.0" type="line" smooth="yes"/>
      <point x="553.2650602409639" y="0.0"/>
      <point x="681.9638554216867" y="124.87951807228916"/>
      <point x="681.9638554216867" y="353.0" type="curve" smooth="yes"/>
      <point x="681.9638554216867" y="581.1204819277109"/>
      <point x="553.2650602409639" y="705.0"/>
      <point x="325.2168674698795" y="705.0" type="curve" smooth="yes"/>
      <point x="132.27710843373495" y="705.0" type="line" smooth="yes"/>
      <point x="103.12048192771084" y="705.0"/>
      <point x="87.07228915662651" y="688.9518072289156"/>
      <point x="87.07228915662651" y="659.7951807228916" type="curve" smooth="yes"/>
      <point x="87.07228915662651" y="45.204819277108435" type="line" smooth="yes"/>
      <point x="87.07228915662651" y="16.048192771084338"/>
      <point x="103.12048192771084" y="0.0"/>
    </contour>
    <contour>
      <point x="169.48192771084337" y="70.48192771084338" type="line"/>
      <point x="169.48192771084337" y="634.5180722891566" type="line"/>
      <point x="319.33734939759034" y="634.5180722891566" type="line" smooth="yes"/>
      <point x="503.5421686746988" y="634.5180722891566"/>
      <point x="595.144578313253" y="540.7951807228916"/>
      <point x="595.144578313253" y="353.0" type="curve" smooth="yes"/>
      <point x="595.144578313253" y="165.20481927710844"/>
      <point x="504.0120481927711" y="70.48192771084338"/>
      <point x="319.33734939759034" y="70.48192771084338" type="curve" smooth="yes"/>
    </contour>
  </outline>
</glyph>
<glyph name="E" format="2">
  <advance width="582.6867469879518"/>
  <unicode hex="0045"/>
  <anchor x="323.7590361445783" y="0.0" name="bottom"/>
  <anchor x="493.7590361445783" y="0.0" name="ogonek"/>
  <anchor x="323.7590361445783" y="705.0" name="top"/>
  <anchor x="25.120481927710845" y="705.0" name="topleft"/>
  <outline>
    <contour>
      <point x="132.27710843373495" y="0.0" type="curve" smooth="yes"/>
      <point x="503.5903614457831" y="0.0" type="line" smooth="yes"/>
      <point x="525.9879518072289" y="0.0"/>
      <point x="539.156626506024" y="12.168674698795181"/>
      <point x="539.156626506024" y="34.566265060240966" type="curve" smooth="yes"/>
      <point x="539.156626506024" y="56.433734939759034"/>
      <point x="525.9879518072289" y="68.60240963855422"/>
      <point x="503.5903614457831" y="68.60240963855422" type="curve" smooth="yes"/>
      <point x="167.13253012048193" y="68.60240963855422" type="line"/>
      <point x="167.13253012048193" y="323.43373493975906" type="line"/>
      <point x="482.65060240963857" y="323.43373493975906" type="line" smooth="yes"/>
      <point x="505.51807228915663" y="323.43373493975906"/>
      <point x="518.2168674698795" y="335.6024096385542"/>
      <point x="518.2168674698795" y="358.0" type="curve" smooth="yes"/>
      <point x="518.2168674698795" y="379.86746987951807"/>
      <point x="505.51807228915663" y="392.03614457831327"/>
      <point x="482.65060240963857" y="392.03614457831327" type="curve" smooth="yes"/>
      <point x="167.13253012048193" y="392.03614457831327" type="line"/>
      <point x="167.13253012048193" y="636.3975903614457" type="line"/>
      <point x="503.5903614457831" y="636.3975903614457" type="line" smooth="yes"/>
      <point x="525.9879518072289" y="636.3975903614457"/>
      <point x="539.156626506024" y="649.0361445783133"/>
      <point x="539.156626506024" y="671.433734939759" type="curve" smooth="yes"/>
      <point x="539.156626506024" y="692.8313253012049"/>
      <point x="525.9879518072289" y="705.0"/>
      <point x="503.5903614457831" y="705.0" type="curve" smooth="yes"/>
      <point x="132.27710843373495" y="705.0" type="line" smooth="yes"/>
      <point x="103.12048192771084" y="705.0"/>
      <point x="87.07228915662651" y="688.9518072289156"/>
      <point x="87.07228915662651" y="659.7951807228916" type="curve" smooth="yes"/>
      <point x="87.07228915662651" y="45.204819277108435" type="line" smooth="yes"/>
      <point x="87.07228915662651" y="16.048192771084338"/>
      <point x="103.12048192771084" y="0.0"/>
    </contour>
  </outline>
</glyph>
<glyph name="F" format="2">
  <advance width="548.2168674698795"/>
  <unicode hex="0046"/>
  <anchor x="296.28915662650604" y="0.0" name="bottom"/>
  <anchor x="297.69879518072287" y="705.0" name="top"/>
  <outline>
    <contour>
      <point x="131.33734939759037" y="-6.9397590361445785" type="curve" smooth="yes"/>
      <point x="156.43373493975903" y="-6.9397590361445785"/>
      <point x="169.48192771084337" y="9.108433734939759"/>
      <point x="169.48192771084337" y="38.265060240963855" type="curve" smooth="yes"/>
      <point x="169.48192771084337" y="321.0843373493976" type="line"/>
      <point x="474.06024096385545" y="321.0843373493976" type="line" smooth="yes"/>
      <point x="496.4578313253012" y="321.0843373493976"/>
      <point x="509.6265060240964" y="333.72289156626505"/>
      <point x="509.6265060240964" y="356.12048192771084" type="curve" smooth="yes"/>
      <point x="509.6265060240964" y="377.51807228915663"/>
      <point x="496.4578313253012" y="389.6867469879518"/>
      <point x="474.06024096385545" y="389.6867469879518" type="curve" smooth="yes"/>
      <point x="169.48192771084337" y="389.6867469879518" type="line"/>
      <point x="169.48192771084337" y="636.3975903614457" type="line"/>
      <point x="494.5301204819277" y="636.3975903614457" type="line" smooth="yes"/>
      <point x="517.3975903614457" y="636.3975903614457"/>
      <point x="530.0963855421687" y="649.0361445783133"/>
      <point x="530.0963855421687" y="671.433734939759" type="curve" smooth="yes"/>
      <point x="530.0963855421687" y="692.8313253012049"/>
      <point x="517.3975903614457" y="705.0"/>
      <point x="494.5301204819277" y="705.0" type="curve" smooth="yes"/>
      <point x="132.27710843373495" y="705.0" type="line" smooth="yes"/>
      <point x="103.12048192771084" y="705.0"/>
      <point x="87.07228915662651" y="688.9518072289156"/>
      <point x="87.07228915662651" y="659.7951807228916" type="curve" smooth="yes"/>
      <point x="87.07228915662651" y="38.265060240963855" type="line" smooth="yes"/>
      <point x="87.07228915662651" y="9.108433734939759"/>
      <point x="103.12048192771084" y="-6.9397590361445785"/>
    </contour>
  </outline>
</glyph>
<glyph name="G" format="2">
  <advance width="726.4578313253012"/>
  <unicode hex="0047"/>
  <anchor x="398.4578313253012" y="0.0" name="bottom"/>
  <anchor x="391.4578313253012" y="705.0" name="top"/>
  <outline>
    <contour>
      <point x="408.578313253012" y="-8.939759036144578" type="curve" smooth="yes"/>
      <point x="482.10843373493975" y="-8.939759036144578"/>
      <point x="567.3493975903615" y="7.650602409638554"/>
      <point x="622.6385542168674" y="30.710843373493976" type="curve" smooth="yes"/>
      <point x="638.6265060240964" y="37.06024096385542"/>
      <point x="645.3855421686746" y="51.16867469879518"/>
      <point x="645.3855421686746" y="70.62650602409639" type="curve" smooth="yes"/>
      <point x="645.3855421686746" y="331.65060240963857" type="line" smooth="yes"/>
      <point x="645.3855421686746" y="354.04819277108436"/>
      <point x="632.2168674698795" y="367.2168674698795"/>
      <point x="609.8192771084338" y="367.2168674698795" type="curve" smooth="yes"/>
      <point x="430.50602409638554" y="367.2168674698795" type="line" smooth="yes"/>
      <point x="407.6385542168675" y="367.2168674698795"/>
      <point x="394.93975903614455" y="355.51807228915663"/>
      <point x="394.93975903614455" y="335.06024096385545" type="curve" smooth="yes"/>
      <point x="394.93975903614455" y="314.6024096385542"/>
      <point x="407.6385542168675" y="301.90361445783134"/>
      <point x="430.50602409638554" y="301.90361445783134" type="curve" smooth="yes"/>
      <point x="573.9036144578313" y="301.90361445783134" type="line"/>
      <point x="573.9036144578313" y="52.85542168674699" type="line"/>
      <point x="592.0120481927711" y="99.78313253012048" type="line"/>
      <point x="537.3614457831326" y="77.07228915662651"/>
      <point x="475.0" y="64.48192771084338"/>
      <point x="410.86746987951807" y="64.48192771084338" type="curve" smooth="yes"/>
      <point x="235.72289156626505" y="64.48192771084338"/>
      <point x="147.710843373494" y="164.73493975903614"/>
      <point x="147.710843373494" y="352.06024096385545" type="curve" smooth="yes"/>
      <point x="147.710843373494" y="535.2650602409639"/>
      <point x="235.25301204819277" y="639.5783132530121"/>
      <point x="396.4457831325301" y="639.5783132530121" type="curve" smooth="yes"/>
      <point x="469.9879518072289" y="639.5783132530121"/>
      <point x="530.6506024096385" y="621.8072289156627"/>
      <point x="584.8313253012049" y="579.0240963855422" type="curve" smooth="yes"/>
      <point x="626.5060240963855" y="551.0361445783133"/>
      <point x="661.7831325301205" y="613.6385542168674"/>
      <point x="624.4578313253012" y="640.6265060240964" type="curve" smooth="yes"/>
      <point x="562.2289156626506" y="691.6385542168674"/>
      <point x="481.51807228915663" y="713.9397590361446"/>
      <point x="396.9759036144578" y="713.9397590361446" type="curve" smooth="yes"/>
      <point x="185.34939759036143" y="713.9397590361446"/>
      <point x="60.89156626506024" y="575.0602409638554"/>
      <point x="60.89156626506024" y="352.06024096385545" type="curve" smooth="yes"/>
      <point x="60.89156626506024" y="126.81927710843374"/>
      <point x="182.53012048192772" y="-8.939759036144578"/>
    </contour>
  </outline>
</glyph>
<glyph name="H" format="2">
  <advance width="761.3373493975904"/>
  <unicode hex="0048"/>
  <anchor x="381.1686746987952" y="0.0" name="bottom"/>
  <anchor x="381.1686746987952" y="553.0481927710844" name="center"/>
  <anchor x="380.1686746987952" y="705.0" name="top"/>
  <anchor x="25.120481927710845" y="705.0" name="topleft"/>
  <outline>
    <contour>
      <point x="128.27710843373495" y="-6.9397590361445785" type="curve" smooth="yes"/>
      <point x="155.43373493975903" y="-6.9397590361445785"/>
      <point x="169.48192771084337" y="8.578313253012048"/>
      <point x="169.48192771084337" y="35.734939759036145" type="curve" smooth="yes"/>
      <point x="169.48192771084337" y="322.0240963855422" type="line"/>
      <point x="591.855421686747" y="322.0240963855422" type="line"/>
      <point x="591.855421686747" y="35.734939759036145" type="line" smooth="yes"/>
      <point x="591.855421686747" y="8.578313253012048"/>
      <point x="606.9036144578313" y="-6.9397590361445785"/>
      <point x="633.0602409638554" y="-6.9397590361445785" type="curve" smooth="yes"/>
      <point x="659.2168674698795" y="-6.9397590361445785"/>
      <point x="674.2650602409639" y="8.578313253012048"/>
      <point x="674.2650602409639" y="35.734939759036145" type="curve" smooth="yes"/>
      <point x="674.2650602409639" y="669.2650602409639" type="line" smooth="yes"/>
      <point x="674.2650602409639" y="696.8915662650602"/>
      <point x="659.2168674698795" y="711.9397590361446"/>
      <point x="633.0602409638554" y="711.9397590361446" type="curve" smooth="yes"/>
      <point x="606.9036144578313" y="711.9397590361446"/>
      <point x="591.855421686747" y="696.8915662650602"/>
      <point x="591.855421686747" y="669.2650602409639" type="curve" smooth="yes"/>
      <point x="591.855421686747" y="392.9759036144578" type="line"/>
      <point x="169.48192771084337" y="392.9759036144578" type="line"/>
      <point x="169.48192771084337" y="669.2650602409639" type="line" smooth="yes"/>
      <point x="169.48192771084337" y="696.8915662650602"/>
      <point x="154.43373493975903" y="711.9397590361446"/>
      <point x="128.27710843373495" y="711.9397590361446" type="curve" smooth="yes"/>
      <point x="102.12048192771084" y="711.9397590361446"/>
      <point x="87.07228915662651" y="696.8915662650602"/>
      <point x="87.07228915662651" y="669.2650602409639" type="curve" smooth="yes"/>
      <point x="87.07228915662651" y="35.734939759036145" type="line" smooth="yes"/>
      <point x="87.07228915662651" y="8.578313253012048"/>
      <point x="102.12048192771084" y="-6.9397590361445785"/>
    </contour>
  </outline>
</glyph>
<glyph name="I" format="2">
  <advance width="256.5542168674699"/>
  <unicode hex="0049"/>
  <anchor x="128.27710843373495" y="0.0" name="bottom"/>
  <anchor x="156.79518072289156" y="0.0" name="ogonek"/>
  <anchor x="128.27710843373495" y="705.0" name="top"/>
  <anchor x="25.650602409638555" y="705.0" name="topleft"/>
  <outline>
    <contour>
      <point x="128.27710843373495" y="-6.9397590361445785" type="curve" smooth="yes"/>
      <point x="155.43373493975903" y="-6.9397590361445785"/>
      <point x="169.48192771084337" y="8.578313253012048"/>
      <point x="169.48192771084337" y="35.734939759036145" type="curve" smooth="yes"/>
      <point x="169.48192771084337" y="669.2650602409639" type="line" smooth="yes"/>
      <point x="169.48192771084337" y="696.8915662650602"/>
      <point x="154.43373493975903" y="711.9397590361446"/>
      <point x="128.27710843373495" y="711.9397590361446" type="curve" smooth="yes"/>
      <point x="102.12048192771084" y="711.9397590361446"/>
      <point x="87.07228915662651" y="696.8915662650602"/>
      <point x="87.07228915662651" y="669.2650602409639" type="curve" smooth="yes"/>
      <point x="87.07228915662651" y="35.734939759036145" type="line" smooth="yes"/>
      <point x="87.07228915662651" y="8.578313253012048"/>
      <point x="102.12048192771084" y="-6.9397590361445785"/>
    </contour>
  </outline>
</glyph>
<glyph name="J" format="2">
  <advance width="323.7831325301205"/>
  <unicode hex="004A"/>
  <anchor x="196.50602409638554" y="0.0" name="bottom"/>
  <anchor x="195.50602409638554" y="705.0" name="top"/>
  <outline>
    <contour>
      <point x="27.97590361445783" y="-5.9397590361445785" type="curve" smooth="yes"/>
      <point x="60.915662650602414" y="-3.4096385542168672" type="line" smooth="yes"/>
      <point x="175.5421686746988" y="5.120481927710843"/>
      <point x="237.18072289156626" y="71.40963855421687"/>
      <point x="237.18072289156626" y="187.33734939759037" type="curve" smooth="yes"/>
      <point x="237.18072289156626" y="669.7349397590361" type="line" smooth="yes"/>
      <point x="237.18072289156626" y="696.8915662650602"/>
      <point x="222.13253012048193" y="711.9397590361446"/>
      <point x="195.97590361445782" y="711.9397590361446" type="curve" smooth="yes"/>
      <point x="169.81927710843374" y="711.9397590361446"/>
      <point x="154.7710843373494" y="696.8915662650602"/>
      <point x="154.7710843373494" y="669.7349397590361" type="curve" smooth="yes"/>
      <point x="154.7710843373494" y="187.9277108433735" type="line" smooth="yes"/>
      <point x="154.7710843373494" y="115.26506024096386"/>
      <point x="117.87951807228916" y="71.66265060240964"/>
      <point x="50.39759036144578" y="66.07228915662651" type="curve" smooth="yes"/>
      <point x="18.80722891566265" y="63.5421686746988" type="line" smooth="yes"/>
      <point x="-2.180722891566265" y="62.07228915662651"/>
      <point x="-12.409638554216867" y="46.963855421686745"/>
      <point x="-12.409638554216867" y="30.97590361445783" type="curve" smooth="yes"/>
      <point x="-12.409638554216867" y="9.638554216867469"/>
      <point x="2.168674698795181" y="-7.409638554216867"/>
    </contour>
  </outline>
</glyph>
<glyph name="K" format="2">
  <advance width="625.2409638554217"/>
  <unicode hex="004B"/>
  <anchor x="316.09638554216866" y="0.0" name="bottom"/>
  <anchor x="315.56626506024094" y="705.0" name="top"/>
  <anchor x="25.120481927710845" y="705.0" name="topleft"/>
  <outline>
    <contour>
      <point x="128.27710843373495" y="-6.9397590361445785" type="curve" smooth="yes"/>
      <point x="155.43373493975903" y="-6.9397590361445785"/>
      <point x="169.48192771084337" y="8.578313253012048"/>
      <point x="169.48192771084337" y="35.734939759036145" type="curve" smooth="yes"/>
      <point x="169.48192771084337" y="332.3614457831325" type="line"/>
      <point x="171.48192771084337" y="332.3614457831325" type="line"/>
      <point x="512.6024096385543" y="18.80722891566265" type="line" smooth="yes"/>
      <point x="530.1807228915662" y="1.7590361445783134"/>
      <point x="541.4698795180723" y="-6.9397590361445785"/>
      <point x="562.3373493975904" y="-6.9397590361445785" type="curve" smooth="yes"/>
      <point x="598.2530120481928" y="-6.9397590361445785"/>
      <point x="612.9518072289156" y="26.506024096385545"/>
      <point x="583.0843373493976" y="54.78313253012048" type="curve" smooth="yes"/>
      <point x="227.19277108433735" y="383.86746987951807" type="line"/>
      <point x="225.66265060240966" y="339.65060240963857" type="line"/>
      <point x="566.9638554216867" y="656.2168674698795" type="line" smooth="yes"/>
      <point x="591.4216867469879" y="679.144578313253"/>
      <point x="583.4819277108434" y="711.9397590361446"/>
      <point x="546.6265060240964" y="711.9397590361446" type="curve" smooth="yes"/>
      <point x="528.1084337349398" y="711.9397590361446"/>
      <point x="513.4096385542168" y="704.6506024096385"/>
      <point x="496.65060240963857" y="688.9518072289156" type="curve" smooth="yes"/>
      <point x="171.48192771084337" y="384.51807228915663" type="line"/>
      <point x="169.48192771084337" y="384.51807228915663" type="line"/>
      <point x="169.48192771084337" y="669.7349397590361" type="line" smooth="yes"/>
      <point x="169.48192771084337" y="696.8915662650602"/>
      <point x="154.43373493975903" y="711.9397590361446"/>
      <point x="128.27710843373495" y="711.9397590361446" type="curve" smooth="yes"/>
      <point x="102.12048192771084" y="711.9397590361446"/>
      <point x="87.07228915662651" y="696.8915662650602"/>
      <point x="87.07228915662651" y="669.7349397590361" type="curve" smooth="yes"/>
      <point x="87.07228915662651" y="35.734939759036145" type="line" smooth="yes"/>
      <point x="87.07228915662651" y="8.578313253012048"/>
      <point x="102.12048192771084" y="-6.9397590361445785"/>
    </contour>
  </outline>
</glyph>
<glyph name="L" format="2">
  <advance width="543.4457831325301"/>
  <unicode hex="004C"/>
  <anchor x="307.34939759036143" y="0.0" name="bottom"/>
  <anchor x="173.21686746987953" y="387.0" name="center"/>
  <anchor x="403.26506024096386" y="389.7590361445783" name="dot"/>
  <anchor x="128.27710843373495" y="705.0" name="top"/>
  <anchor x="283.96385542168673" y="705.0" name="topright"/>
  <outline>
    <contour>
      <point x="129.27710843373495" y="0.0" type="curve" smooth="yes"/>
      <point x="496.5903614457831" y="0.0" type="line" smooth="yes"/>
      <point x="520.9277108433735" y="0.0"/>
      <point x="534.566265060241" y="13.108433734939759"/>
      <point x="534.566265060241" y="36.445783132530124" type="curve" smooth="yes"/>
      <point x="534.566265060241" y="58.78313253012048"/>
      <point x="520.9277108433735" y="71.89156626506025"/>
      <point x="496.5903614457831" y="71.89156626506025" type="curve" smooth="yes"/>
      <point x="169.48192771084337" y="71.89156626506025" type="line"/>
      <point x="169.48192771084337" y="667.3855421686746" type="line" smooth="yes"/>
      <point x="169.48192771084337" y="694.5421686746988"/>
      <point x="154.43373493975903" y="709.5903614457832"/>
      <point x="128.27710843373495" y="709.5903614457832" type="curve" smooth="yes"/>
      <point x="102.12048192771084" y="709.5903614457832"/>
      <point x="87.07228915662651" y="694.5421686746988"/>
      <point x="87.07228915662651" y="667.3855421686746" type="curve" smooth="yes"/>
      <point x="87.07228915662651" y="42.674698795180724" type="line" smooth="yes"/>
      <point x="87.07228915662651" y="15.518072289156628"/>
      <point x="102.12048192771084" y="0.0"/>
    </contour>
  </outline>
</glyph>
<glyph name="M" format="2">
  <advance width="855.277108433735"/>
  <unicode hex="004D"/>
  <anchor x="428.10843373493975" y="0.0" name="bottom"/>
  <anchor x="428.10843373493975" y="705.0" name="top"/>
  <outline>
    <contour>
      <point x="126.92771084337349" y="-6.9397590361445785" type="curve" smooth="yes"/>
      <point x="151.14457831325302" y="-6.9397590361445785"/>
      <point x="164.25301204819277" y="7.63855421686747"/>
      <point x="164.25301204819277" y="32.915662650602414" type="curve" smooth="yes"/>
      <point x="164.25301204819277" y="595.5180722891566" type="line"/>
      <point x="139.72289156626505" y="595.5180722891566" type="line"/>
      <point x="392.5421686746988" y="125.63855421686748" type="line" smooth="yes"/>
      <point x="400.8313253012048" y="110.0"/>
      <point x="410.5903614457831" y="101.65060240963855"/>
      <point x="429.1686746987952" y="101.65060240963855" type="curve" smooth="yes"/>
      <point x="447.27710843373495" y="101.65060240963855"/>
      <point x="455.50602409638554" y="109.0"/>
      <point x="464.7951807228916" y="125.63855421686748" type="curve" smooth="yes"/>
      <point x="714.5542168674699" y="594.5180722891566" type="line"/>
      <point x="691.4939759036145" y="594.5180722891566" type="line"/>
      <point x="691.4939759036145" y="32.915662650602414" type="line" smooth="yes"/>
      <point x="691.4939759036145" y="7.63855421686747"/>
      <point x="704.6024096385543" y="-6.9397590361445785"/>
      <point x="729.3493975903615" y="-6.9397590361445785" type="curve" smooth="yes"/>
      <point x="753.566265060241" y="-6.9397590361445785"/>
      <point x="766.6746987951807" y="7.63855421686747"/>
      <point x="766.6746987951807" y="32.915662650602414" type="curve" smooth="yes"/>
      <point x="766.6746987951807" y="672.0843373493976" type="line" smooth="yes"/>
      <point x="766.6746987951807" y="697.8313253012049"/>
      <point x="753.0963855421687" y="711.9397590361446"/>
      <point x="729.8795180722891" y="711.9397590361446" type="curve" smooth="yes"/>
      <point x="708.0120481927711" y="711.9397590361446"/>
      <point x="697.843373493976" y="703.6506024096385"/>
      <point x="687.144578313253" y="683.722891566265" type="curve" smooth="yes"/>
      <point x="414.1686746987952" y="167.87951807228916" type="line"/>
      <point x="444.04819277108436" y="167.87951807228916" type="line"/>
      <point x="170.0120481927711" y="683.722891566265" type="line" smooth="yes"/>
      <point x="159.3132530120482" y="703.6506024096385"/>
      <point x="148.67469879518072" y="711.9397590361446"/>
      <point x="126.80722891566265" y="711.9397590361446" type="curve" smooth="yes"/>
      <point x="103.12048192771084" y="711.9397590361446"/>
      <point x="89.07228915662651" y="697.8313253012049"/>
      <point x="89.07228915662651" y="672.0843373493976" type="curve" smooth="yes"/>
      <point x="89.07228915662651" y="32.915662650602414" type="line" smooth="yes"/>
      <point x="89.07228915662651" y="7.63855421686747"/>
      <point x="103.18072289156626" y="-6.9397590361445785"/>
    </contour>
  </outline>
</glyph>
<glyph name="N" format="2">
  <advance width="739.5180722891566"/>
  <unicode hex="004E"/>
  <anchor x="369.7590361445783" y="0.0" name="bottom"/>
  <anchor x="369.7590361445783" y="705.0" name="top"/>
  <outline>
    <contour>
      <point x="125.86746987951807" y="-6.9397590361445785" type="curve" smooth="yes"/>
      <point x="150.0843373493976" y="-6.9397590361445785"/>
      <point x="163.66265060240963" y="7.63855421686747"/>
      <point x="163.66265060240963" y="33.85542168674699" type="curve" smooth="yes"/>
      <point x="163.66265060240963" y="599.0963855421687" type="line"/>
      <point x="140.7831325301205" y="599.0963855421687" type="line"/>
      <point x="575.7951807228916" y="18.337349397590362" type="line" smooth="yes"/>
      <point x="589.3734939759036" y="0.3493975903614457"/>
      <point x="599.1325301204819" y="-6.9397590361445785"/>
      <point x="619.0" y="-6.9397590361445785" type="curve" smooth="yes"/>
      <point x="639.8674698795181" y="-6.9397590361445785"/>
      <point x="652.4457831325301" y="8.108433734939759"/>
      <point x="652.4457831325301" y="33.445783132530124" type="curve" smooth="yes"/>
      <point x="652.4457831325301" y="671.6144578313254" type="line" smooth="yes"/>
      <point x="652.4457831325301" y="697.3614457831326"/>
      <point x="638.8674698795181" y="711.9397590361446"/>
      <point x="614.6506024096385" y="711.9397590361446" type="curve" smooth="yes"/>
      <point x="589.9638554216867" y="711.9397590361446"/>
      <point x="575.855421686747" y="697.3614457831326"/>
      <point x="575.855421686747" y="671.6144578313254" type="curve" smooth="yes"/>
      <point x="575.855421686747" y="106.37349397590361" type="line"/>
      <point x="599.7349397590361" y="106.37349397590361" type="line"/>
      <point x="164.25301204819277" y="687.1325301204819" type="line" smooth="yes"/>
      <point x="150.67469879518072" y="705.1204819277109"/>
      <point x="143.3855421686747" y="711.9397590361446"/>
      <point x="122.92771084337349" y="711.9397590361446" type="curve" smooth="yes"/>
      <point x="101.12048192771084" y="711.9397590361446"/>
      <point x="87.07228915662651" y="696.8915662650602"/>
      <point x="87.07228915662651" y="669.6746987951807" type="curve" smooth="yes"/>
      <point x="87.07228915662651" y="33.85542168674699" type="line" smooth="yes"/>
      <point x="87.07228915662651" y="7.63855421686747"/>
      <point x="101.18072289156626" y="-6.9397590361445785"/>
    </contour>
  </outline>
</glyph>
<glyph name="O" format="2">
  <advance width="766.9759036144578"/>
  <unicode hex="004F"/>
  <anchor x="382.9879518072289" y="-8.939759036144578" name="Qtail"/>
  <anchor x="382.9879518072289" y="0.0" name="bottom"/>
  <anchor x="383.9879518072289" y="353.0" name="center"/>
  <anchor x="440.33734939759034" y="0.0" name="ogonek"/>
  <anchor x="382.9879518072289" y="705.0" name="top"/>
  <anchor x="26.0" y="705.0" name="topleft"/>
  <anchor x="454.10843373493975" y="705.0" name="topright"/>
  <outline>
    <contour>
      <point x="383.4578313253012" y="-8.939759036144578" type="curve" smooth="yes"/>
      <point x="581.0361445783133" y="-8.939759036144578"/>
      <point x="706.5542168674699" y="131.40963855421685"/>
      <point x="706.5542168674699" y="354.0" type="curve" smooth="yes"/>
      <point x="706.5542168674699" y="575.0602409638554"/>
      <point x="581.566265060241" y="713.9397590361446"/>
      <point x="383.4578313253012" y="713.9397590361446" type="curve" smooth="yes"/>
      <point x="184.87951807228916" y="713.9397590361446"/>
      <point x="60.89156626506024" y="575.0602409638554"/>
      <point x="60.89156626506024" y="353.0" type="curve" smooth="yes"/>
      <point x="60.89156626506024" y="131.40963855421685"/>
      <point x="186.40963855421685" y="-8.939759036144578"/>
    </contour>
    <contour>
      <point x="383.4578313253012" y="64.48192771084338" type="curve" smooth="yes"/>
      <point x="234.3132530120482" y="64.48192771084338"/>
      <point x="147.710843373494" y="171.20481927710844"/>
      <point x="147.710843373494" y="353.0" type="curve" smooth="yes"/>
      <point x="147.710843373494" y="535.2650602409639"/>
      <point x="234.3132530120482" y="640.5180722891566"/>
      <point x="383.4578313253012" y="640.5180722891566" type="curve" smooth="yes"/>
      <point x="534.1325301204819" y="640.5180722891566"/>
      <point x="619.7349397590361" y="535.7951807228916"/>
      <point x="619.7349397590361" y="353.0" type="curve" smooth="yes"/>
      <point x="619.7349397590361" y="170.67469879518072"/>
      <point x="533.1325301204819" y="64.48192771084338"/>
    </contour>
  </outline>
</glyph>
<glyph name="P" format="2">
  <advance width="632.9156626506024"/>
  <unicode hex="0050"/>
  <anchor x="323.51807228915663" y="0.0" name="bottom"/>
  <anchor x="323.51807228915663" y="705.0" name="top"/>
  <outline>
    <contour>
      <point x="128.27710843373495" y="-6.9397590361445785" type="curve" smooth="yes"/>
      <point x="155.43373493975903" y="-6.9397590361445785"/>
      <point x="169.48192771084337" y="8.578313253012048"/>
      <point x="169.48192771084337" y="35.734939759036145" type="curve" smooth="yes"/>
      <point x="169.48192771084337" y="281.49397590361446" type="line"/>
      <point x="366.03614457831327" y="281.49397590361446" type="line" smooth="yes"/>
      <point x="517.3253012048193" y="281.49397590361446"/>
      <point x="601.144578313253" y="358.72289156626505"/>
      <point x="601.144578313253" y="493.48192771084337" type="curve" smooth="yes"/>
      <point x="601.144578313253" y="628.2409638554217"/>
      <point x="517.3253012048193" y="705.0"/>
      <point x="366.03614457831327" y="705.0" type="curve" smooth="yes"/>
      <point x="129.27710843373495" y="705.0" type="line" smooth="yes"/>
      <point x="102.12048192771084" y="705.0"/>
      <point x="87.07228915662651" y="689.9518072289156"/>
      <point x="87.07228915662651" y="662.7951807228916" type="curve" smooth="yes"/>
      <point x="87.07228915662651" y="35.734939759036145" type="line" smooth="yes"/>
      <point x="87.07228915662651" y="8.578313253012048"/>
      <point x="102.12048192771084" y="-6.9397590361445785"/>
    </contour>
    <contour>
      <point x="169.48192771084337" y="349.6265060240964" type="line"/>
      <point x="169.48192771084337" y="636.8674698795181" type="line"/>
      <point x="356.10843373493975" y="636.8674698795181" type="line" smooth="yes"/>
      <point x="464.6024096385542" y="636.8674698795181"/>
      <point x="519.5542168674699" y="587.855421686747"/>
      <point x="519.5542168674699" y="493.48192771084337" type="curve" smooth="yes"/>
      <point x="519.5542168674699" y="399.10843373493975"/>
      <point x="464.6024096385542" y="349.6265060240964"/>
      <point x="356.10843373493975" y="349.6265060240964" type="curve" smooth="yes"/>
    </contour>
  </outline>
</glyph>
<glyph name="R" format="2">
  <advance width="669.0361445783133"/>
  <unicode hex="0052"/>
  <anchor x="341.04819277108436" y="0.0" name="bottom"/>
  <anchor x="340.578313253012" y="705.0" name="top"/>
  <outline>
    <contour>
      <point x="128.27710843373495" y="-6.9397590361445785" type="curve" smooth="yes"/>
      <point x="155.43373493975903" y="-6.9397590361445785"/>
      <point x="169.48192771084337" y="8.578313253012048"/>
      <point x="169.48192771084337" y="35.734939759036145" type="curve" smooth="yes"/>
      <point x="169.48192771084337" y="297.90361445783134" type="line"/>
      <point x="297.34939759036143" y="297.90361445783134" type="line" smooth="yes"/>
      <point x="362.1927710843373" y="297.90361445783134"/>
      <point x="397.96385542168673" y="283.2530120481928"/>
      <point x="428.855421686747" y="225.53012048192772" type="curve" smooth="yes"/>
      <point x="537.8072289156627" y="23.626506024096386" type="line" smooth="yes"/>
      <point x="548.4457831325301" y="3.289156626506024"/>
      <point x="562.0240963855422" y="-6.9397590361445785"/>
      <point x="585.3012048192771" y="-6.9397590361445785" type="curve" smooth="yes"/>
      <point x="618.0963855421687" y="-6.9397590361445785"/>
      <point x="628.3855421686746" y="22.277108433734938"/>
      <point x="612.8072289156627" y="51.493975903614455" type="curve" smooth="yes"/>
      <point x="516.6024096385543" y="230.25301204819277" type="line" smooth="yes"/>
      <point x="485.0722891566265" y="288.8433734939759"/>
      <point x="448.2530120481928" y="314.3132530120482"/>
      <point x="395.8433734939759" y="314.3132530120482" type="curve" smooth="yes"/>
      <point x="376.09638554216866" y="314.3132530120482" type="line"/>
      <point x="366.03614457831327" y="300.90361445783134" type="line"/>
      <point x="514.7349397590361" y="300.90361445783134"/>
      <point x="601.144578313253" y="374.66265060240966"/>
      <point x="601.144578313253" y="501.421686746988" type="curve" smooth="yes"/>
      <point x="601.144578313253" y="631.2409638554217"/>
      <point x="517.3253012048193" y="705.0"/>
      <point x="366.03614457831327" y="705.0" type="curve" smooth="yes"/>
      <point x="129.27710843373495" y="705.0" type="line" smooth="yes"/>
      <point x="102.12048192771084" y="705.0"/>
      <point x="87.07228915662651" y="689.9518072289156"/>
      <point x="87.07228915662651" y="662.7951807228916" type="curve" smooth="yes"/>
      <point x="87.07228915662651" y="35.734939759036145" type="line" smooth="yes"/>
      <point x="87.07228915662651" y="8.578313253012048"/>
      <point x="102.12048192771084" y="-6.9397590361445785"/>
    </contour>
    <contour>
      <point x="169.48192771084337" y="363.2168674698795" type="line"/>
      <point x="169.48192771084337" y="636.8674698795181" type="line"/>
      <point x="353.578313253012" y="636.8674698795181" type="line" smooth="yes"/>
      <point x="463.6024096385542" y="636.8674698795181"/>
      <point x="519.5542168674699" y="590.3855421686746"/>
      <point x="519.5542168674699" y="500.5421686746988" type="curve" smooth="yes"/>
      <point x="519.5542168674699" y="409.69879518072287"/>
      <point x="463.6024096385542" y="363.2168674698795"/>
      <point x="353.578313253012" y="363.2168674698795" type="curve" smooth="yes"/>
    </contour>
  </outline>
</glyph>
<glyph name="S" format="2">
  <advance width="614.566265060241"/>
  <unicode hex="0053"/>
  <anchor x="316.10843373493975" y="0.0" name="bottom"/>
  <anchor x="313.86746987951807" y="705.0" name="top"/>
  <outline>
    <contour>
      <point x="314.69879518072287" y="-8.939759036144578" type="curve" smooth="yes"/>
      <point x="475.1566265060241" y="-8.939759036144578"/>
      <point x="575.2048192771084" y="71.81927710843374"/>
      <point x="575.2048192771084" y="190.33734939759037" type="curve" smooth="yes"/>
      <point x="575.2048192771084" y="287.6867469879518"/>
      <point x="511.2048192771084" y="341.4457831325301"/>
      <point x="377.0843373493976" y="369.4457831325301" type="curve" smooth="yes"/>
      <point x="273.3855421686747" y="390.855421686747" type="line" smooth="yes"/>
      <point x="183.66265060240963" y="408.9759036144578"/>
      <point x="147.24096385542168" y="443.9277108433735"/>
      <point x="147.24096385542168" y="507.8313253012048" type="curve" smooth="yes"/>
      <point x="147.24096385542168" y="588.3253012048193"/>
      <point x="214.43373493975903" y="641.4578313253012"/>
      <point x="320.2168674698795" y="641.4578313253012" type="curve" smooth="yes"/>
      <point x="388.28915662650604" y="641.4578313253012"/>
      <point x="444.71084337349396" y="624.6265060240964"/>
      <point x="498.421686746988" y="584.433734939759" type="curve" smooth="yes"/>
      <point x="544.0361445783133" y="554.4457831325301"/>
      <point x="574.5542168674699" y="615.289156626506"/>
      <point x="536.9879518072289" y="643.8072289156627" type="curve" smooth="yes"/>
      <point x="478.3975903614458" y="691.289156626506"/>
      <point x="404.9277108433735" y="713.9397590361446"/>
      <point x="320.6867469879518" y="713.9397590361446" type="curve" smooth="yes"/>
      <point x="169.34939759036143" y="713.9397590361446"/>
      <point x="64.24096385542168" y="630.1204819277109"/>
      <point x="64.24096385542168" y="505.48192771084337" type="curve" smooth="yes"/>
      <point x="64.24096385542168" y="403.6024096385542"/>
      <point x="125.24096385542168" y="344.2530120481928"/>
      <point x="251.18072289156626" y="318.3132530120482" type="curve" smooth="yes"/>
      <point x="355.34939759036143" y="296.90361445783134" type="line" smooth="yes"/>
      <point x="453.2530120481928" y="276.72289156626505"/>
      <point x="492.2048192771084" y="245.36144578313252"/>
      <point x="492.2048192771084" y="185.57831325301206" type="curve" smooth="yes"/>
      <point x="492.2048192771084" y="112.6144578313253"/>
      <point x="434.5421686746988" y="63.5421686746988"/>
      <point x="314.69879518072287" y="63.5421686746988" type="curve" smooth="yes"/>
      <point x="229.97590361445782" y="63.5421686746988"/>
      <point x="164.50602409638554" y="81.72289156626506"/>
      <point x="103.855421686747" y="124.67469879518072" type="curve" smooth="yes"/>
      <point x="60.06024096385542" y="153.6024096385542"/>
      <point x="28.072289156626503" y="89.0"/>
      <point x="69.98795180722891" y="60.0722891566265" type="curve" smooth="yes"/>
      <point x="131.9879518072289" y="14.771084337349397"/>
      <point x="219.33734939759037" y="-8.939759036144578"/>
    </contour>
  </outline>
</glyph>
<glyph name="T" format="2">
  <advance width="602.4457831325301"/>
  <unicode hex="0054"/>
  <anchor x="301.4578313253012" y="0.0" name="bottom"/>
  <anchor x="301.4578313253012" y="358.0" name="center"/>
  <anchor x="301.4578313253012" y="705.0" name="top"/>
  <outline>
    <contour>
      <point x="301.4578313253012" y="-6.9397590361445785" type="curve" smooth="yes"/>
      <point x="328.6144578313253" y="-6.9397590361445785"/>
      <point x="342.66265060240966" y="8.578313253012048"/>
      <point x="342.66265060240966" y="35.734939759036145" type="curve" smooth="yes"/>
      <point x="342.66265060240966" y="634.0481927710844" type="line"/>
      <point x="568.4096385542168" y="634.0481927710844" type="line" smooth="yes"/>
      <point x="592.277108433735" y="634.0481927710844"/>
      <point x="605.9156626506024" y="647.156626506024"/>
      <point x="605.9156626506024" y="670.0240963855422" type="curve" smooth="yes"/>
      <point x="605.9156626506024" y="692.3614457831326"/>
      <point x="592.277108433735" y="705.0"/>
      <point x="568.4096385542168" y="705.0" type="curve" smooth="yes"/>
      <point x="34.506024096385545" y="705.0" type="line" smooth="yes"/>
      <point x="10.638554216867469" y="705.0"/>
      <point x="-3.0" y="692.3614457831326"/>
      <point x="-3.0" y="670.0240963855422" type="curve" smooth="yes"/>
      <point x="-3.0" y="647.6867469879518"/>
      <point x="10.638554216867469" y="634.0481927710844"/>
      <point x="34.506024096385545" y="634.0481927710844" type="curve" smooth="yes"/>
      <point x="260.2530120481928" y="634.0481927710844" type="line"/>
      <point x="260.2530120481928" y="35.734939759036145" type="line" smooth="yes"/>
      <point x="260.2530120481928" y="8.578313253012048"/>
      <point x="275.30120481927713" y="-6.9397590361445785"/>
    </contour>
  </outline>
</glyph>
<glyph name="U" format="2">
  <advance width="728.4578313253012"/>
  <unicode hex="0055"/>
  <anchor x="364.69879518072287" y="0.0" name="bottom"/>
  <anchor x="421.69879518072287" y="0.0" name="ogonek"/>
  <anchor x="364.69879518072287" y="705.0" name="top"/>
  <anchor x="580.9518072289156" y="705.0" name="topright"/>
  <outline>
    <contour>
      <point x="364.69879518072287" y="-8.939759036144578" type="curve" smooth="yes"/>
      <point x="549.156626506024" y="-8.939759036144578"/>
      <point x="646.3855421686746" y="90.93975903614458"/>
      <point x="646.3855421686746" y="279.4578313253012" type="curve" smooth="yes"/>
      <point x="646.3855421686746" y="669.7349397590361" type="line" smooth="yes"/>
      <point x="646.3855421686746" y="696.8915662650602"/>
      <point x="631.3373493975904" y="711.9397590361446"/>
      <point x="605.6506024096385" y="711.9397590361446" type="curve" smooth="yes"/>
      <point x="579.4939759036145" y="711.9397590361446"/>
      <point x="564.4457831325301" y="696.8915662650602"/>
      <point x="564.4457831325301" y="669.7349397590361" type="curve" smooth="yes"/>
      <point x="564.4457831325301" y="283.10843373493975" type="line" smooth="yes"/>
      <point x="564.4457831325301" y="136.49397590361446"/>
      <point x="496.3734939759036" y="64.48192771084338"/>
      <point x="364.69879518072287" y="64.48192771084338" type="curve" smooth="yes"/>
      <point x="233.02409638554218" y="64.48192771084338"/>
      <point x="164.48192771084337" y="136.49397590361446"/>
      <point x="164.48192771084337" y="283.10843373493975" type="curve" smooth="yes"/>
      <point x="164.48192771084337" y="669.7349397590361" type="line" smooth="yes"/>
      <point x="164.48192771084337" y="696.8915662650602"/>
      <point x="149.43373493975903" y="711.9397590361446"/>
      <point x="123.27710843373494" y="711.9397590361446" type="curve" smooth="yes"/>
      <point x="97.12048192771084" y="711.9397590361446"/>
      <point x="82.07228915662651" y="696.8915662650602"/>
      <point x="82.07228915662651" y="669.7349397590361" type="curve" smooth="yes"/>
      <point x="82.07228915662651" y="279.4578313253012" type="line" smooth="yes"/>
      <point x="82.07228915662651" y="90.93975903614458"/>
      <point x="180.24096385542168" y="-8.939759036144578"/>
    </contour>
  </outline>
</glyph>
<glyph name="V" format="2">
  <advance width="688.6144578313254"/>
  <unicode hex="0056"/>
  <anchor x="344.8072289156627" y="0.0" name="bottom"/>
  <anchor x="343.8072289156627" y="705.0" name="top"/>
  <outline>
    <contour>
      <point x="344.8072289156627" y="-6.9397590361445785" type="curve" smooth="yes"/>
      <point x="370.144578313253" y="-6.9397590361445785"/>
      <point x="383.7831325301205" y="4.8192771084337345"/>
      <point x="394.0120481927711" y="28.746987951807228" type="curve" smooth="yes"/>
      <point x="668.7951807228916" y="658.2168674698795" type="line" smooth="yes"/>
      <point x="682.3132530120482" y="689.1927710843373"/>
      <point x="665.9156626506024" y="711.9397590361446"/>
      <point x="637.7590361445783" y="711.9397590361446" type="curve" smooth="yes"/>
      <point x="614.4819277108434" y="711.9397590361446"/>
      <point x="602.3132530120482" y="700.7710843373494"/>
      <point x="593.0843373493976" y="679.9036144578313" type="curve" smooth="yes"/>
      <point x="330.04819277108436" y="66.28915662650603" type="line"/>
      <point x="362.4457831325301" y="66.28915662650603" type="line"/>
      <point x="98.40963855421687" y="679.433734939759" type="line" smooth="yes"/>
      <point x="89.18072289156626" y="700.7710843373494"/>
      <point x="78.48192771084338" y="711.9397590361446"/>
      <point x="54.265060240963855" y="711.9397590361446" type="curve" smooth="yes"/>
      <point x="25.69879518072289" y="711.9397590361446"/>
      <point x="5.771084337349397" y="690.722891566265"/>
      <point x="19.819277108433734" y="658.2168674698795" type="curve" smooth="yes"/>
      <point x="294.6024096385542" y="28.746987951807228" type="line" smooth="yes"/>
      <point x="304.8313253012048" y="4.8192771084337345"/>
      <point x="319.93975903614455" y="-6.9397590361445785"/>
    </contour>
  </outline>
</glyph>
<glyph name="W" format="2">
  <advance width="1101.3373493975903"/>
  <unicode hex="0057"/>
  <anchor x="551.1686746987951" y="0.0" name="bottom"/>
  <anchor x="550.6385542168674" y="705.0" name="top"/>
  <outline>
    <contour>
      <point x="313.33734939759034" y="-6.9397590361445785" type="curve" smooth="yes"/>
      <point x="337.67469879518075" y="-6.9397590361445785"/>
      <point x="349.7831325301205" y="5.289156626506024"/>
      <point x="359.0722891566265" y="30.686746987951807" type="curve" smooth="yes"/>
      <point x="561.5783132530121" y="610.3855421686746" type="line"/>
      <point x="540.1686746987951" y="610.3855421686746" type="line"/>
      <point x="741.2048192771084" y="31.156626506024097" type="line" smooth="yes"/>
      <point x="750.4939759036145" y="5.289156626506024"/>
      <point x="763.6024096385543" y="-6.9397590361445785"/>
      <point x="788.4698795180723" y="-6.9397590361445785" type="curve" smooth="yes"/>
      <point x="812.8072289156627" y="-6.9397590361445785"/>
      <point x="825.9156626506024" y="5.289156626506024"/>
      <point x="835.2048192771084" y="30.686746987951807" type="curve" smooth="yes"/>
      <point x="1056.8072289156626" y="662.4457831325301" type="line" smooth="yes"/>
      <point x="1067.0361445783133" y="691.1325301204819"/>
      <point x="1051.987951807229" y="711.9397590361446"/>
      <point x="1024.3614457831325" y="711.9397590361446" type="curve" smooth="yes"/>
      <point x="1001.0240963855422" y="711.9397590361446"/>
      <point x="988.3253012048193" y="700.2409638554217"/>
      <point x="980.566265060241" y="676.9036144578313" type="curve" smooth="yes"/>
      <point x="771.5903614457832" y="69.74698795180723" type="line"/>
      <point x="802.8795180722891" y="69.74698795180723" type="line"/>
      <point x="594.9036144578313" y="673.843373493976" type="line" smooth="yes"/>
      <point x="585.6144578313254" y="699.710843373494"/>
      <point x="574.4457831325301" y="711.9397590361446"/>
      <point x="552.5180722891566" y="711.9397590361446" type="curve" smooth="yes"/>
      <point x="530.5903614457832" y="711.9397590361446"/>
      <point x="517.9518072289156" y="699.710843373494"/>
      <point x="508.66265060240966" y="674.3132530120482" type="curve" smooth="yes"/>
      <point x="297.86746987951807" y="69.74698795180723" type="line"/>
      <point x="332.56626506024094" y="69.74698795180723" type="line"/>
      <point x="125.53012048192771" y="676.9036144578313" type="line" smooth="yes"/>
      <point x="117.24096385542168" y="701.2409638554217"/>
      <point x="105.07228915662651" y="711.9397590361446"/>
      <point x="81.79518072289156" y="711.9397590361446" type="curve" smooth="yes"/>
      <point x="50.34939759036145" y="711.9397590361446"/>
      <point x="35.7710843373494" y="690.6024096385543"/>
      <point x="45.46987951807229" y="662.4457831325301" type="curve" smooth="yes"/>
      <point x="266.13253012048193" y="31.156626506024097" type="line" smooth="yes"/>
      <point x="275.421686746988" y="5.289156626506024"/>
      <point x="289.0" y="-6.9397590361445785"/>
    </contour>
  </outline>
</glyph>
<glyph name="X" format="2">
  <advance width="650.2650602409639"/>
  <unicode hex="0058"/>
  <anchor x="325.86746987951807" y="0.0" name="bottom"/>
  <anchor x="325.3975903614458" y="705.0" name="top"/>
  <outline>
    <contour>
      <point x="77.67469879518072" y="-6.9397590361445785" type="curve" smooth="yes"/>
      <point x="94.60240963855422" y="-6.9397590361445785"/>
      <point x="108.3012048192771" y="0.8192771084337349"/>
      <point x="122.34939759036145" y="20.216867469879517" type="curve" smooth="yes"/>
      <point x="341.03614457831327" y="319.4457831325301" type="line"/>
      <point x="309.2289156626506" y="319.4457831325301" type="line"/>
      <point x="528.3855421686746" y="20.216867469879517" type="line" smooth="yes"/>
      <point x="542.433734939759" y="0.8192771084337349"/>
      <point x="556.1325301204819" y="-6.9397590361445785"/>
      <point x="572.5903614457832" y="-6.9397590361445785" type="curve" smooth="yes"/>
      <point x="606.0963855421687" y="-6.9397590361445785"/>
      <point x="623.0240963855422" y="22.626506024096386"/>
      <point x="602.6867469879518" y="50.25301204819277" type="curve" smooth="yes"/>
      <point x="360.90361445783134" y="375.9277108433735" type="line"/>
      <point x="360.90361445783134" y="344.7831325301205" type="line"/>
      <point x="588.9759036144578" y="652.6867469879518" type="line" smooth="yes"/>
      <point x="611.3132530120482" y="682.843373493976"/>
      <point x="592.3855421686746" y="711.9397590361446"/>
      <point x="561.4096385542168" y="711.9397590361446" type="curve" smooth="yes"/>
      <point x="542.4216867469879" y="711.9397590361446"/>
      <point x="530.3132530120482" y="704.1807228915662"/>
      <point x="516.7349397590361" y="685.2530120481928" type="curve" smooth="yes"/>
      <point x="313.34939759036143" y="404.3855421686747" type="line"/>
      <point x="338.9759036144578" y="404.3855421686747" type="line"/>
      <point x="133.53012048192772" y="685.2530120481928" type="line" smooth="yes"/>
      <point x="119.95180722891567" y="704.1807228915662"/>
      <point x="107.8433734939759" y="711.9397590361446"/>
      <point x="89.32530120481928" y="711.9397590361446" type="curve" smooth="yes"/>
      <point x="58.34939759036145" y="711.9397590361446"/>
      <point x="39.89156626506024" y="682.3734939759036"/>
      <point x="61.75903614457831" y="652.6867469879518" type="curve" smooth="yes"/>
      <point x="289.8313253012048" y="344.7831325301205" type="line"/>
      <point x="289.8313253012048" y="375.9277108433735" type="line"/>
      <point x="47.57831325301205" y="50.25301204819277" type="line" smooth="yes"/>
      <point x="27.240963855421686" y="22.626506024096386"/>
      <point x="44.63855421686747" y="-6.9397590361445785"/>
    </contour>
  </outline>
</glyph>
<glyph name="Y" format="2">
  <advance width="596.2650602409639"/>
  <unicode hex="0059"/>
  <anchor x="298.33734939759034" y="0.0" name="bottom"/>
  <anchor x="297.86746987951807" y="705.0" name="top"/>
  <anchor x="17.0" y="705.0" name="topleft"/>
  <outline>
    <contour>
      <point x="297.86746987951807" y="-6.9397590361445785" type="curve" smooth="yes"/>
      <point x="325.0240963855422" y="-6.9397590361445785"/>
      <point x="339.0722891566265" y="8.578313253012048"/>
      <point x="339.0722891566265" y="36.734939759036145" type="curve" smooth="yes"/>
      <point x="339.0722891566265" y="365.12048192771084" type="line"/>
      <point x="321.5542168674699" y="308.26506024096386" type="line"/>
      <point x="571.6867469879518" y="653.156626506024" type="line" smooth="yes"/>
      <point x="592.6746987951807" y="682.9036144578313"/>
      <point x="578.9759036144578" y="711.9397590361446"/>
      <point x="547.1204819277109" y="711.9397590361446" type="curve" smooth="yes"/>
      <point x="527.6626506024096" y="711.9397590361446"/>
      <point x="516.0240963855422" y="704.1807228915662"/>
      <point x="502.4457831325301" y="685.2530120481928" type="curve" smooth="yes"/>
      <point x="289.04819277108436" y="391.49397590361446" type="line"/>
      <point x="310.1566265060241" y="391.49397590361446" type="line"/>
      <point x="97.2289156626506" y="685.2530120481928" type="line" smooth="yes"/>
      <point x="84.12048192771084" y="703.710843373494"/>
      <point x="70.5421686746988" y="711.9397590361446"/>
      <point x="52.024096385542165" y="711.9397590361446" type="curve" smooth="yes"/>
      <point x="19.228915662650603" y="711.9397590361446"/>
      <point x="5.0" y="680.0843373493976"/>
      <point x="24.10843373493976" y="653.6265060240964" type="curve" smooth="yes"/>
      <point x="275.1807228915663" y="308.26506024096386" type="line"/>
      <point x="256.66265060240966" y="365.12048192771084" type="line"/>
      <point x="256.66265060240966" y="36.734939759036145" type="line" smooth="yes"/>
      <point x="256.66265060240966" y="8.578313253012048"/>
      <point x="271.71084337349396" y="-6.9397590361445785"/>
    </contour>
  </outline>
</glyph>
<glyph name="Z" format="2">
  <advance width="589.0963855421687"/>
  <unicode hex="005A"/>
  <anchor x="307.10843373493975" y="0.0" name="bottom"/>
  <anchor x="306.10843373493975" y="705.0" name="top"/>
  <outline>
    <contour>
      <point x="86.3855421686747" y="0.0" type="curve" smooth="yes"/>
      <point x="535.0" y="0.0" type="line" smooth="yes"/>
      <point x="560.3373493975904" y="0.0"/>
      <point x="573.9759036144578" y="12.638554216867469"/>
      <point x="573.9759036144578" y="35.975903614457835" type="curve" smooth="yes"/>
      <point x="573.9759036144578" y="58.78313253012048"/>
      <point x="560.3373493975904" y="70.95180722891567"/>
      <point x="535.0" y="70.95180722891567" type="curve" smooth="yes"/>
      <point x="123.53012048192771" y="70.95180722891567" type="line"/>
      <point x="123.53012048192771" y="39.963855421686745" type="line"/>
      <point x="539.9879518072289" y="624.8192771084338" type="line" smooth="yes"/>
      <point x="570.6144578313254" y="667.2048192771084"/>
      <point x="556.9156626506024" y="705.0"/>
      <point x="514.2409638554217" y="705.0" type="curve" smooth="yes"/>
      <point x="80.09638554216868" y="705.0" type="line" smooth="yes"/>
      <point x="54.75903614457831" y="705.0"/>
      <point x="41.12048192771084" y="692.3614457831326"/>
      <point x="41.12048192771084" y="670.0240963855422" type="curve" smooth="yes"/>
      <point x="41.12048192771084" y="647.2168674698795"/>
      <point x="54.75903614457831" y="634.0481927710844"/>
      <point x="80.09638554216868" y="634.0481927710844" type="curve" smooth="yes"/>
      <point x="477.09638554216866" y="634.0481927710844" type="line"/>
      <point x="477.09638554216866" y="665.5060240963855" type="line"/>
      <point x="60.63855421686747" y="80.18072289156626" type="line" smooth="yes"/>
      <point x="30.481927710843372" y="38.795180722891565"/>
      <point x="44.24096385542169" y="0.0"/>
    </contour>
  </outline>
</glyph>
<glyph name="bracketleft" format="2">
  <advance width="315.30120481927713"/>
  <unicode hex="005B"/>
  <outline>
    <contour>
      <point x="144.6867469879518" y="-180.0" type="curve" smooth="yes"/>
      <point x="281.32530120481925" y="-180.0" type="line" smooth="yes"/>
      <point x="301.2530120481928" y="-180.0"/>
      <point x="314.48192771084337" y="-166.36144578313252"/>
      <point x="314.48192771084337" y="-148.3734939759036" type="curve" smooth="yes"/>
      <point x="314.48192771084337" y="-130.3855421686747"/>
      <point x="301.2530120481928" y="-116.21686746987952"/>
      <point x="281.32530120481925" y="-116.21686746987952" type="curve" smooth="yes"/>
      <point x="190.18072289156626" y="-116.21686746987952" type="line"/>
      <point x="190.18072289156626" y="641.2168674698795" type="line"/>
      <point x="281.32530120481925" y="641.2168674698795" type="line" smooth="yes"/>
      <point x="301.2530120481928" y="641.2168674698795"/>
      <point x="314.48192771084337" y="654.855421686747"/>
      <point x="314.48192771084337" y="673.3734939759036" type="curve" smooth="yes"/>
      <point x="314.48192771084337" y="691.3614457831326"/>
      <point x="301.2530120481928" y="705.0"/>
      <point x="281.32530120481925" y="705.0" type="curve" smooth="yes"/>
      <point x="144.6867469879518" y="705.0" type="line" smooth="yes"/>
      <point x="124.75903614457832" y="705.0"/>
      <point x="109.18072289156626" y="689.8915662650602"/>
      <point x="109.18072289156626" y="669.9638554216867" type="curve" smooth="yes"/>
      <point x="109.18072289156626" y="-144.96385542168676" type="line" smooth="yes"/>
      <point x="109.18072289156626" y="-164.89156626506025"/>
      <point x="124.75903614457832" y="-180.0"/>
    </contour>
  </outline>
</glyph>
<glyph name="backslash" format="2">
  <advance width="282.7831325301205"/>
  <unicode hex="005C"/>
  <outline>
    <contour>
      <point x="228.18072289156626" y="-34.30120481927711" type="line" smooth="yes"/>
      <point x="242.34939759036143" y="-78.21686746987952"/>
      <point x="306.6024096385542" y="-59.63855421686747"/>
      <point x="292.49397590361446" y="-14.843373493975903" type="curve" smooth="yes"/>
      <point x="54.60240963855422" y="722.8313253012049" type="line" smooth="yes"/>
      <point x="39.963855421686745" y="767.2168674698795"/>
      <point x="-23.349397590361445" y="748.1686746987951"/>
      <point x="-9.710843373493976" y="703.843373493976" type="curve" smooth="yes"/>
    </contour>
  </outline>
</glyph>
<glyph name="bracketright" format="2">
  <advance width="315.30120481927713"/>
  <unicode hex="005D"/>
  <outline>
    <contour>
      <point x="33.975903614457835" y="-180.0" type="curve" smooth="yes"/>
      <point x="170.6144578313253" y="-180.0" type="line" smooth="yes"/>
      <point x="190.5421686746988" y="-180.0"/>
      <point x="206.12048192771084" y="-164.89156626506025"/>
      <point x="206.12048192771084" y="-144.96385542168676" type="curve" smooth="yes"/>
      <point x="206.12048192771084" y="669.9638554216867" type="line" smooth="yes"/>
      <point x="206.12048192771084" y="689.8915662650602"/>
      <point x="190.5421686746988" y="705.0"/>
      <point x="170.6144578313253" y="705.0" type="curve" smooth="yes"/>
      <point x="33.975903614457835" y="705.0" type="line" smooth="yes"/>
      <point x="14.048192771084338" y="705.0"/>
      <point x="0.8192771084337349" y="691.3614457831326"/>
      <point x="0.8192771084337349" y="673.3734939759036" type="curve" smooth="yes"/>
      <point x="0.8192771084337349" y="654.855421686747"/>
      <point x="14.048192771084338" y="641.2168674698795"/>
      <point x="33.975903614457835" y="641.2168674698795" type="curve" smooth="yes"/>
      <point x="125.12048192771084" y="641.2168674698795" type="line"/>
      <point x="125.12048192771084" y="-116.21686746987952" type="line"/>
      <point x="33.975903614457835" y="-116.21686746987952" type="line" smooth="yes"/>
      <point x="14.048192771084338" y="-116.21686746987952"/>
      <point x="0.8192771084337349" y="-130.3855421686747"/>
      <point x="0.8192771084337349" y="-148.3734939759036" type="curve" smooth="yes"/>
      <point x="0.8192771084337349" y="-166.36144578313252"/>
      <point x="14.048192771084338" y="-180.0"/>
    </contour>
  </outline>
</glyph>
<glyph name="asciicircum" format="2">
  <advance width="600.0"/>
  <unicode hex="005E"/>
  <outline>
    <contour>
      <point x="91.09638554216868" y="133.06024096385542" type="curve" smooth="yes"/>
      <point x="107.20481927710844" y="133.06024096385542"/>
      <point x="115.49397590361446" y="139.93975903614458"/>
      <point x="123.78313253012048" y="158.86746987951807" type="curve" smooth="yes"/>
      <point x="320.3975903614458" y="594.7710843373494" type="line"/>
      <point x="280.0722891566265" y="594.7710843373494" type="line"/>
      <point x="476.2168674698795" y="158.86746987951807" type="line" smooth="yes"/>
      <point x="483.9759036144578" y="140.46987951807228"/>
      <point x="493.26506024096386" y="133.06024096385542"/>
      <point x="508.90361445783134" y="133.06024096385542" type="curve" smooth="yes"/>
      <point x="537.710843373494" y="133.06024096385542"/>
      <point x="546.4698795180723" y="152.10843373493975"/>
      <point x="535.1807228915662" y="177.6265060240964" type="curve" smooth="yes"/>
      <point x="340.32530120481925" y="608.2530120481928" type="line" smooth="yes"/>
      <point x="332.03614457831327" y="626.710843373494"/>
      <point x="319.3975903614458" y="634.9397590361446"/>
      <point x="300.0" y="634.9397590361446" type="curve" smooth="yes"/>
      <point x="281.0722891566265" y="634.9397590361446"/>
      <point x="267.96385542168673" y="627.1807228915662"/>
      <point x="259.67469879518075" y="608.2530120481928" type="curve" smooth="yes"/>
      <point x="64.81927710843374" y="177.6265060240964" type="line" smooth="yes"/>
      <point x="54.0" y="152.57831325301206"/>
      <point x="63.28915662650603" y="133.06024096385542"/>
    </contour>
  </outline>
</glyph>
<glyph name="underscore" format="2">
  <advance width="500.0"/>
  <unicode hex="005F"/>
  <outline>
    <contour>
      <point x="42.45783132530121" y="-52.734939759036145" type="curve" smooth="yes"/>
      <point x="458.0120481927711" y="-52.734939759036145" type="line" smooth="yes"/>
      <point x="474.1807228915663" y="-52.734939759036145"/>
      <point x="486.93975903614455" y="-41.506024096385545"/>
      <point x="486.93975903614455" y="-26.867469879518072" type="curve" smooth="yes"/>
      <point x="486.93975903614455" y="-12.228915662650603"/>
      <point x="474.1807228915663" y="0.0"/>
      <point x="458.0120481927711" y="0.0" type="curve" smooth="yes"/>
      <point x="42.45783132530121" y="0.0" type="line" smooth="yes"/>
      <point x="25.819277108433734" y="0.0"/>
      <point x="13.060240963855422" y="-12.228915662650603"/>
      <point x="13.060240963855422" y="-26.867469879518072" type="curve" smooth="yes"/>
      <point x="13.060240963855422" y="-41.506024096385545"/>
      <point x="25.819277108433734" y="-52.734939759036145"/>
    </contour>
  </outline>
</glyph>
<glyph name="a" format="2">
  <advance width="529.5060240963855"/>
  <unicode hex="0061"/>
  <anchor x="268.10843373493975" y="0.0" name="bottom"/>
  <anchor x="439.9277108433735" y="0.0" name="ogonek"/>
  <anchor x="271.578313253012" y="484.0" name="top"/>
  <outline>
    <contour>
      <point x="228.65060240963857" y="-8.939759036144578" type="curve" smooth="yes"/>
      <point x="310.8313253012048" y="-8.939759036144578"/>
      <point x="371.0722891566265" y="37.71084337349397"/>
      <point x="389.2530120481928" y="113.01204819277109" type="curve"/>
      <point x="379.66265060240966" y="113.01204819277109" type="line"/>
      <point x="379.66265060240966" y="34.795180722891565" type="line" smooth="yes"/>
      <point x="379.66265060240966" y="8.108433734939759"/>
      <point x="393.7710843373494" y="-6.9397590361445785"/>
      <point x="418.51807228915663" y="-6.9397590361445785" type="curve" smooth="yes"/>
      <point x="442.7951807228916" y="-6.9397590361445785"/>
      <point x="456.3734939759036" y="8.108433734939759"/>
      <point x="456.3734939759036" y="34.795180722891565" type="curve" smooth="yes"/>
      <point x="456.3734939759036" y="306.0722891566265" type="line" smooth="yes"/>
      <point x="456.3734939759036" y="435.5301204819277"/>
      <point x="396.855421686747" y="495.28915662650604"/>
      <point x="271.34939759036143" y="495.28915662650604" type="curve" smooth="yes"/>
      <point x="219.04819277108433" y="495.28915662650604"/>
      <point x="159.4578313253012" y="482.10843373493975"/>
      <point x="102.16867469879519" y="452.86746987951807" type="curve" smooth="yes"/>
      <point x="61.373493975903614" y="434.2289156626506"/>
      <point x="81.48192771084338" y="368.9156626506024"/>
      <point x="126.92771084337349" y="392.0240963855422" type="curve" smooth="yes"/>
      <point x="178.04819277108433" y="419.26506024096386"/>
      <point x="224.10843373493975" y="430.4457831325301"/>
      <point x="270.5301204819277" y="430.4457831325301" type="curve" smooth="yes"/>
      <point x="346.421686746988" y="430.4457831325301"/>
      <point x="378.1927710843373" y="395.49397590361446"/>
      <point x="378.1927710843373" y="313.12048192771084" type="curve" smooth="yes"/>
      <point x="378.1927710843373" y="198.65060240963857" type="line" smooth="yes"/>
      <point x="378.1927710843373" y="113.80722891566265"/>
      <point x="321.2409638554217" y="51.6144578313253"/>
      <point x="242.4578313253012" y="51.6144578313253" type="curve" smooth="yes"/>
      <point x="176.32530120481928" y="51.6144578313253"/>
      <point x="135.8433734939759" y="90.03614457831326"/>
      <point x="135.8433734939759" y="144.63855421686748" type="curve" smooth="yes"/>
      <point x="135.8433734939759" y="209.42168674698794"/>
      <point x="183.67469879518072" y="228.6024096385542"/>
      <point x="347.3734939759036" y="228.6024096385542" type="curve" smooth="yes"/>
      <point x="391.0722891566265" y="228.6024096385542" type="line"/>
      <point x="391.0722891566265" y="282.04819277108436" type="line"/>
      <point x="345.8433734939759" y="282.04819277108436" type="line" smooth="yes"/>
      <point x="126.42168674698794" y="282.04819277108436"/>
      <point x="54.13253012048193" y="246.6987951807229"/>
      <point x="54.13253012048193" y="139.6987951807229" type="curve" smooth="yes"/>
      <point x="54.13253012048193" y="55.93975903614458"/>
      <point x="129.0120481927711" y="-8.939759036144578"/>
    </contour>
  </outline>
</glyph>
<glyph name="b" format="2">
  <advance width="583.0361445783133"/>
  <unicode hex="0062"/>
  <anchor x="308.5903614457831" y="0.0" name="bottom"/>
  <anchor x="306.10843373493975" y="705.0" name="top"/>
  <outline>
    <contour>
      <point x="322.0843373493976" y="-8.939759036144578" type="curve" smooth="yes"/>
      <point x="451.67469879518075" y="-8.939759036144578"/>
      <point x="537.0843373493976" y="88.53012048192771"/>
      <point x="537.0843373493976" y="243.40963855421685" type="curve" smooth="yes"/>
      <point x="537.0843373493976" y="398.28915662650604"/>
      <point x="452.67469879518075" y="495.28915662650604"/>
      <point x="322.0843373493976" y="495.28915662650604" type="curve" smooth="yes"/>
      <point x="234.72289156626505" y="495.28915662650604"/>
      <point x="166.66265060240963" y="447.04819277108436"/>
      <point x="145.13253012048193" y="373.03614457831327" type="curve"/>
      <point x="156.6024096385542" y="373.03614457831327" type="line"/>
      <point x="156.6024096385542" y="670.6746987951807" type="line" smooth="yes"/>
      <point x="156.6024096385542" y="697.3614457831326"/>
      <point x="141.55421686746988" y="711.9397590361446"/>
      <point x="115.86746987951807" y="711.9397590361446" type="curve" smooth="yes"/>
      <point x="90.18072289156626" y="711.9397590361446"/>
      <point x="75.60240963855422" y="697.3614457831326"/>
      <point x="75.60240963855422" y="670.6746987951807" type="curve" smooth="yes"/>
      <point x="75.60240963855422" y="34.795180722891565" type="line" smooth="yes"/>
      <point x="75.60240963855422" y="8.108433734939759"/>
      <point x="90.18072289156626" y="-6.9397590361445785"/>
      <point x="115.86746987951807" y="-6.9397590361445785" type="curve" smooth="yes"/>
      <point x="141.0843373493976" y="-6.9397590361445785"/>
      <point x="155.66265060240963" y="8.108433734939759"/>
      <point x="155.66265060240963" y="34.795180722891565" type="curve" smooth="yes"/>
      <point x="155.66265060240963" y="127.40963855421687" type="line"/>
      <point x="144.66265060240963" y="115.66265060240964" type="line"/>
      <point x="165.72289156626505" y="39.7710843373494"/>
      <point x="233.7831325301205" y="-8.939759036144578"/>
    </contour>
    <contour>
      <point x="305.10843373493975" y="56.373493975903614" type="curve" smooth="yes"/>
      <point x="213.67469879518072" y="56.373493975903614"/>
      <point x="155.13253012048193" y="123.09638554216868"/>
      <point x="155.13253012048193" y="243.40963855421685" type="curve" smooth="yes"/>
      <point x="155.13253012048193" y="363.72289156626505"/>
      <point x="213.67469879518072" y="429.9759036144578"/>
      <point x="305.10843373493975" y="429.9759036144578" type="curve" smooth="yes"/>
      <point x="396.0722891566265" y="429.9759036144578"/>
      <point x="455.0843373493976" y="363.72289156626505"/>
      <point x="455.0843373493976" y="243.40963855421685" type="curve" smooth="yes"/>
      <point x="455.0843373493976" y="123.09638554216868"/>
      <point x="396.0722891566265" y="56.373493975903614"/>
    </contour>
  </outline>
</glyph>
<glyph name="c" format="2">
  <advance width="462.9879518072289"/>
  <unicode hex="0063"/>
  <anchor x="278.1686746987952" y="0.0" name="bottom"/>
  <anchor x="278.1686746987952" y="484.0" name="top"/>
  <outline>
    <contour>
      <point x="281.9879518072289" y="-8.939759036144578" type="curve" smooth="yes"/>
      <point x="329.69879518072287" y="-8.939759036144578"/>
      <point x="383.8192771084337" y="5.240963855421686"/>
      <point x="426.2289156626506" y="39.66265060240964" type="curve" smooth="yes"/>
      <point x="458.73493975903614" y="63.24096385542169"/>
      <point x="431.03614457831327" y="119.14457831325302"/>
      <point x="391.5301204819277" y="92.91566265060241" type="curve" smooth="yes"/>
      <point x="356.28915662650604" y="66.37349397590361"/>
      <point x="319.9277108433735" y="57.31325301204819"/>
      <point x="286.6265060240964" y="57.31325301204819" type="curve" smooth="yes"/>
      <point x="185.3132530120482" y="57.31325301204819"/>
      <point x="128.89156626506025" y="128.44578313253012"/>
      <point x="128.89156626506025" y="245.46987951807228" type="curve" smooth="yes"/>
      <point x="128.89156626506025" y="362.96385542168673"/>
      <point x="185.3132530120482" y="429.03614457831327"/>
      <point x="286.6265060240964" y="429.03614457831327" type="curve" smooth="yes"/>
      <point x="319.9277108433735" y="429.03614457831327"/>
      <point x="356.7590361445783" y="419.50602409638554"/>
      <point x="391.5301204819277" y="392.96385542168673" type="curve" smooth="yes"/>
      <point x="430.09638554216866" y="366.73493975903614"/>
      <point x="462.0240963855422" y="421.69879518072287"/>
      <point x="428.10843373493975" y="446.2168674698795" type="curve" smooth="yes"/>
      <point x="385.2289156626506" y="481.10843373493975"/>
      <point x="329.69879518072287" y="495.28915662650604"/>
      <point x="281.9879518072289" y="495.28915662650604" type="curve" smooth="yes"/>
      <point x="136.0" y="495.28915662650604"/>
      <point x="45.95180722891566" y="400.34939759036143"/>
      <point x="45.95180722891566" y="246.46987951807228" type="curve" smooth="yes"/>
      <point x="45.95180722891566" y="92.12048192771084"/>
      <point x="136.0" y="-8.939759036144578"/>
    </contour>
  </outline>
</glyph>
<glyph name="d" format="2">
  <advance width="583.0361445783133"/>
  <unicode hex="0064"/>
  <anchor x="293.51807228915663" y="0.0" name="bottom"/>
  <anchor x="290.69879518072287" y="245.46987951807228" name="center"/>
  <anchor x="416.6385542168675" y="583.7590361445783" name="stroke"/>
  <anchor x="291.9879518072289" y="705.0" name="top"/>
  <anchor x="553.2048192771084" y="705.0" name="topright"/>
  <outline>
    <contour>
      <point x="260.95180722891564" y="-8.939759036144578" type="curve" smooth="yes"/>
      <point x="348.7831325301205" y="-8.939759036144578"/>
      <point x="416.8433734939759" y="39.7710843373494"/>
      <point x="437.90361445783134" y="115.66265060240964" type="curve"/>
      <point x="426.90361445783134" y="129.75903614457832" type="line"/>
      <point x="426.90361445783134" y="34.795180722891565" type="line" smooth="yes"/>
      <point x="426.90361445783134" y="8.108433734939759"/>
      <point x="441.48192771084337" y="-6.9397590361445785"/>
      <point x="467.1686746987952" y="-6.9397590361445785" type="curve" smooth="yes"/>
      <point x="492.855421686747" y="-6.9397590361445785"/>
      <point x="507.43373493975906" y="8.108433734939759"/>
      <point x="507.43373493975906" y="34.795180722891565" type="curve" smooth="yes"/>
      <point x="507.43373493975906" y="670.6746987951807" type="line" smooth="yes"/>
      <point x="507.43373493975906" y="697.3614457831326"/>
      <point x="492.3855421686747" y="711.9397590361446"/>
      <point x="466.69879518072287" y="711.9397590361446" type="curve" smooth="yes"/>
      <point x="441.0120481927711" y="711.9397590361446"/>
      <point x="426.43373493975906" y="697.3614457831326"/>
      <point x="426.43373493975906" y="670.6746987951807" type="curve" smooth="yes"/>
      <point x="426.43373493975906" y="373.03614457831327" type="line"/>
      <point x="437.43373493975906" y="373.03614457831327" type="line"/>
      <point x="415.90361445783134" y="447.04819277108436"/>
      <point x="348.3132530120482" y="495.28915662650604"/>
      <point x="260.95180722891564" y="495.28915662650604" type="curve" smooth="yes"/>
      <point x="130.36144578313252" y="495.28915662650604"/>
      <point x="45.95180722891566" y="398.28915662650604"/>
      <point x="45.95180722891566" y="243.40963855421685" type="curve" smooth="yes"/>
      <point x="45.95180722891566" y="88.53012048192771"/>
      <point x="131.36144578313252" y="-8.939759036144578"/>
    </contour>
    <contour>
      <point x="277.9277108433735" y="56.373493975903614" type="curve" smooth="yes"/>
      <point x="186.49397590361446" y="56.373493975903614"/>
      <point x="127.95180722891567" y="123.09638554216868"/>
      <point x="127.95180722891567" y="243.40963855421685" type="curve" smooth="yes"/>
      <point x="127.95180722891567" y="363.72289156626505"/>
      <point x="186.49397590361446" y="429.9759036144578"/>
      <point x="277.9277108433735" y="429.9759036144578" type="curve" smooth="yes"/>
      <point x="368.89156626506025" y="429.9759036144578"/>
      <point x="427.90361445783134" y="363.72289156626505"/>
      <point x="427.90361445783134" y="243.40963855421685" type="curve" smooth="yes"/>
      <point x="427.90361445783134" y="123.09638554216868"/>
      <point x="368.89156626506025" y="56.373493975903614"/>
    </contour>
  </outline>
</glyph>
<glyph name="e" format="2">
  <advance width="531.9277108433735"/>
  <unicode hex="0065"/>
  <anchor x="280.28915662650604" y="0.0" name="bottom"/>
  <anchor x="355.6265060240964" y="0.0" name="ogonek"/>
  <anchor x="280.28915662650604" y="484.0" name="top"/>
  <outline>
    <contour>
      <point x="295.3975903614458" y="-8.939759036144578" type="curve" smooth="yes"/>
      <point x="352.69879518072287" y="-8.939759036144578"/>
      <point x="417.6385542168675" y="8.771084337349397"/>
      <point x="461.9879518072289" y="40.95180722891566" type="curve" smooth="yes"/>
      <point x="503.96385542168673" y="69.46987951807229"/>
      <point x="473.67469879518075" y="124.37349397590361"/>
      <point x="428.0" y="95.44578313253012" type="curve" smooth="yes"/>
      <point x="385.8192771084337" y="66.02409638554217"/>
      <point x="339.34939759036143" y="56.373493975903614"/>
      <point x="295.27710843373495" y="56.373493975903614" type="curve" smooth="yes"/>
      <point x="185.20481927710844" y="56.373493975903614"/>
      <point x="124.19277108433735" y="121.56626506024097"/>
      <point x="124.19277108433735" y="243.75903614457832" type="curve" smooth="yes"/>
      <point x="124.19277108433735" y="249.6987951807229" type="line" smooth="yes"/>
      <point x="124.19277108433735" y="358.3614457831325"/>
      <point x="180.14457831325302" y="435.2048192771084"/>
      <point x="281.6385542168675" y="435.2048192771084" type="curve" smooth="yes"/>
      <point x="373.0722891566265" y="435.2048192771084"/>
      <point x="420.96385542168673" y="372.48192771084337"/>
      <point x="420.96385542168673" y="265.578313253012" type="curve"/>
      <point x="437.49397590361446" y="278.9879518072289" type="line"/>
      <point x="107.72289156626506" y="278.9879518072289" type="line"/>
      <point x="107.72289156626506" y="225.5421686746988" type="line"/>
      <point x="456.28915662650604" y="225.5421686746988" type="line" smooth="yes"/>
      <point x="478.8072289156627" y="225.5421686746988"/>
      <point x="490.50602409638554" y="235.89156626506025"/>
      <point x="490.50602409638554" y="256.71084337349396" type="curve" smooth="yes"/>
      <point x="490.50602409638554" y="405.0"/>
      <point x="411.3975903614458" y="495.28915662650604"/>
      <point x="279.8192771084337" y="495.28915662650604" type="curve" smooth="yes"/>
      <point x="142.12048192771084" y="495.28915662650604"/>
      <point x="45.95180722891566" y="392.87951807228916"/>
      <point x="45.95180722891566" y="241.87951807228916" type="curve" smooth="yes"/>
      <point x="45.95180722891566" y="86.93975903614458"/>
      <point x="141.06024096385542" y="-8.939759036144578"/>
    </contour>
  </outline>
</glyph>
<glyph name="f" format="2">
  <advance width="333.2530120481928"/>
  <unicode hex="0066"/>
  <anchor x="142.44578313253012" y="0.0" name="bottom"/>
  <anchor x="142.44578313253012" y="705.0" name="top"/>
  <outline>
    <contour>
      <point x="142.44578313253012" y="-6.9397590361445785" type="curve" smooth="yes"/>
      <point x="169.13253012048193" y="-6.9397590361445785"/>
      <point x="182.710843373494" y="8.108433734939759"/>
      <point x="182.710843373494" y="34.795180722891565" type="curve" smooth="yes"/>
      <point x="182.710843373494" y="423.09638554216866" type="line"/>
      <point x="290.50602409638554" y="423.09638554216866" type="line" smooth="yes"/>
      <point x="312.96385542168673" y="423.09638554216866"/>
      <point x="325.66265060240966" y="434.7951807228916"/>
      <point x="325.66265060240966" y="454.72289156626505" type="curve" smooth="yes"/>
      <point x="325.66265060240966" y="474.65060240963857"/>
      <point x="312.96385542168673" y="486.34939759036143"/>
      <point x="290.50602409638554" y="486.34939759036143" type="curve" smooth="yes"/>
      <point x="170.95180722891567" y="486.34939759036143" type="line"/>
      <point x="182.710843373494" y="471.4096385542169" type="line"/>
      <point x="182.710843373494" y="512.6506024096385" type="line" smooth="yes"/>
      <point x="182.710843373494" y="595.4939759036145"/>
      <point x="217.83132530120483" y="637.566265060241"/>
      <point x="298.6024096385542" y="644.156626506024" type="curve" smooth="yes"/>
      <point x="322.144578313253" y="646.2168674698795" type="line" smooth="yes"/>
      <point x="357.2409638554217" y="649.156626506024"/>
      <point x="360.65060240963857" y="712.4096385542168"/>
      <point x="314.3855421686747" y="708.5301204819277" type="curve" smooth="yes"/>
      <point x="284.6265060240964" y="706.0602409638554" type="line" smooth="yes"/>
      <point x="164.2289156626506" y="695.6506024096385"/>
      <point x="101.71084337349397" y="629.6506024096385"/>
      <point x="101.71084337349397" y="503.2530120481928" type="curve" smooth="yes"/>
      <point x="101.71084337349397" y="465.0120481927711" type="line"/>
      <point x="123.92771084337349" y="486.34939759036143" type="line"/>
      <point x="38.21686746987952" y="486.34939759036143" type="line" smooth="yes"/>
      <point x="15.759036144578314" y="486.34939759036143"/>
      <point x="3.0602409638554215" y="474.65060240963857"/>
      <point x="3.0602409638554215" y="454.72289156626505" type="curve" smooth="yes"/>
      <point x="3.0602409638554215" y="434.7951807228916"/>
      <point x="15.759036144578314" y="423.09638554216866"/>
      <point x="38.21686746987952" y="423.09638554216866" type="curve" smooth="yes"/>
      <point x="101.71084337349397" y="423.09638554216866" type="line"/>
      <point x="101.71084337349397" y="34.795180722891565" type="line" smooth="yes"/>
      <point x="101.71084337349397" y="8.108433734939759"/>
      <point x="116.75903614457832" y="-6.9397590361445785"/>
    </contour>
  </outline>
</glyph>
<glyph name="h" format="2">
  <advance width="568.0361445783133"/>
  <unicode hex="0068"/>
  <anchor x="284.9879518072289" y="0.0" name="bottom"/>
  <anchor x="284.9879518072289" y="246.40963855421685" name="center"/>
  <anchor x="250.51807228915663" y="352.5301204819277" name="dot"/>
  <anchor x="166.86746987951807" y="583.7590361445783" name="stroke"/>
  <anchor x="285.51807228915663" y="705.0" name="top"/>
  <anchor x="192.96385542168676" y="705.0" name="topright"/>
  <outline>
    <contour>
      <point x="115.86746987951807" y="-6.9397590361445785" type="curve" smooth="yes"/>
      <point x="142.55421686746988" y="-6.9397590361445785"/>
      <point x="156.6024096385542" y="8.108433734939759"/>
      <point x="156.6024096385542" y="34.795180722891565" type="curve" smooth="yes"/>
      <point x="156.6024096385542" y="276.5903614457831" type="line" smooth="yes"/>
      <point x="156.6024096385542" y="368.49397590361446"/>
      <point x="214.20481927710844" y="428.56626506024094"/>
      <point x="303.10843373493975" y="428.56626506024094" type="curve" smooth="yes"/>
      <point x="380.0722891566265" y="428.56626506024094"/>
      <point x="413.90361445783134" y="388.144578313253"/>
      <point x="413.90361445783134" y="298.3614457831325" type="curve" smooth="yes"/>
      <point x="413.90361445783134" y="34.795180722891565" type="line" smooth="yes"/>
      <point x="413.90361445783134" y="8.108433734939759"/>
      <point x="428.95180722891564" y="-6.9397590361445785"/>
      <point x="454.6385542168675" y="-6.9397590361445785" type="curve" smooth="yes"/>
      <point x="480.32530120481925" y="-6.9397590361445785"/>
      <point x="494.90361445783134" y="8.108433734939759"/>
      <point x="494.90361445783134" y="34.795180722891565" type="curve" smooth="yes"/>
      <point x="494.90361445783134" y="303.30120481927713" type="line" smooth="yes"/>
      <point x="494.90361445783134" y="431.4096385542169"/>
      <point x="438.3734939759036" y="495.28915662650604"/>
      <point x="321.90361445783134" y="495.28915662650604" type="curve" smooth="yes"/>
      <point x="239.72289156626505" y="495.28915662650604"/>
      <point x="171.0722891566265" y="455.1686746987952"/>
      <point x="143.66265060240963" y="377.7469879518072" type="curve"/>
      <point x="156.6024096385542" y="377.7469879518072" type="line"/>
      <point x="156.6024096385542" y="670.6746987951807" type="line" smooth="yes"/>
      <point x="156.6024096385542" y="697.3614457831326"/>
      <point x="141.55421686746988" y="711.9397590361446"/>
      <point x="115.86746987951807" y="711.9397590361446" type="curve" smooth="yes"/>
      <point x="90.18072289156626" y="711.9397590361446"/>
      <point x="75.60240963855422" y="697.3614457831326"/>
      <point x="75.60240963855422" y="670.6746987951807" type="curve" smooth="yes"/>
      <point x="75.60240963855422" y="34.795180722891565" type="line" smooth="yes"/>
      <point x="75.60240963855422" y="8.108433734939759"/>
      <point x="90.18072289156626" y="-6.9397590361445785"/>
    </contour>
  </outline>
</glyph>
<glyph name="i" format="2">
  <advance width="232.20481927710844"/>
  <unicode hex="0069"/>
  <anchor x="115.86746987951807" y="0.0" name="bottom"/>
  <anchor x="144.3855421686747" y="0.0" name="ogonek"/>
  <outline>
    <contour>
      <point x="115.86746987951807" y="-4.879518072289157" type="curve" smooth="yes"/>
      <point x="142.55421686746988" y="-4.879518072289157"/>
      <point x="156.6024096385542" y="11.108433734939759"/>
      <point x="156.6024096385542" y="38.734939759036145" type="curve" smooth="yes"/>
      <point x="156.6024096385542" y="447.6144578313253" type="line" smooth="yes"/>
      <point x="156.6024096385542" y="475.71084337349396"/>
      <point x="141.55421686746988" y="491.2289156626506"/>
      <point x="115.86746987951807" y="491.2289156626506" type="curve" smooth="yes"/>
      <point x="90.18072289156626" y="491.2289156626506"/>
      <point x="75.60240963855422" y="475.71084337349396"/>
      <point x="75.60240963855422" y="447.6144578313253" type="curve" smooth="yes"/>
      <point x="75.60240963855422" y="38.734939759036145" type="line" smooth="yes"/>
      <point x="75.60240963855422" y="11.108433734939759"/>
      <point x="90.18072289156626" y="-4.879518072289157"/>
    </contour>
    <contour>
      <point x="115.86746987951807" y="603.3132530120482" type="curve" smooth="yes"/>
      <point x="150.6144578313253" y="603.3132530120482"/>
      <point x="169.19277108433735" y="621.4819277108434"/>
      <point x="169.19277108433735" y="652.8795180722891" type="curve" smooth="yes"/>
      <point x="169.19277108433735" y="684.7469879518072"/>
      <point x="150.0843373493976" y="701.9156626506024"/>
      <point x="115.86746987951807" y="701.9156626506024" type="curve" smooth="yes"/>
      <point x="82.12048192771084" y="701.9156626506024"/>
      <point x="62.54216867469879" y="684.7469879518072"/>
      <point x="62.54216867469879" y="652.8795180722891" type="curve" smooth="yes"/>
      <point x="62.54216867469879" y="621.4819277108434"/>
      <point x="82.12048192771084" y="603.3132530120482"/>
    </contour>
  </outline>
</glyph>
<glyph name="k" format="2">
  <advance width="499.95180722891564"/>
  <unicode hex="006B"/>
  <anchor x="249.97590361445782" y="0.0" name="bottom"/>
  <anchor x="285.51807228915663" y="705.0" name="top"/>
  <outline>
    <contour>
      <point x="115.86746987951807" y="-6.9397590361445785" type="curve" smooth="yes"/>
      <point x="142.55421686746988" y="-6.9397590361445785"/>
      <point x="156.6024096385542" y="8.108433734939759"/>
      <point x="156.6024096385542" y="34.795180722891565" type="curve" smooth="yes"/>
      <point x="156.6024096385542" y="228.0722891566265" type="line"/>
      <point x="158.6024096385542" y="228.0722891566265" type="line"/>
      <point x="381.3734939759036" y="22.746987951807228" type="line" smooth="yes"/>
      <point x="401.48192771084337" y="2.7590361445783134"/>
      <point x="412.71084337349396" y="-6.9397590361445785"/>
      <point x="436.9277108433735" y="-6.9397590361445785" type="curve" smooth="yes"/>
      <point x="466.49397590361446" y="-6.9397590361445785"/>
      <point x="484.421686746988" y="23.80722891566265"/>
      <point x="457.43373493975906" y="50.6144578313253" type="curve" smooth="yes"/>
      <point x="219.7831325301205" y="273.578313253012" type="line"/>
      <point x="219.7831325301205" y="230.06024096385542" type="line"/>
      <point x="437.7831325301205" y="437.3855421686747" type="line" smooth="yes"/>
      <point x="462.71084337349396" y="462.72289156626505"/>
      <point x="449.0120481927711" y="493.28915662650604"/>
      <point x="416.56626506024094" y="493.28915662650604" type="curve" smooth="yes"/>
      <point x="393.2289156626506" y="493.28915662650604"/>
      <point x="381.93975903614455" y="483.06024096385545"/>
      <point x="363.89156626506025" y="465.6024096385542" type="curve" smooth="yes"/>
      <point x="158.6024096385542" y="269.86746987951807" type="line"/>
      <point x="156.6024096385542" y="269.86746987951807" type="line"/>
      <point x="156.6024096385542" y="670.6746987951807" type="line" smooth="yes"/>
      <point x="156.6024096385542" y="697.3614457831326"/>
      <point x="141.55421686746988" y="711.9397590361446"/>
      <point x="115.86746987951807" y="711.9397590361446" type="curve" smooth="yes"/>
      <point x="90.18072289156626" y="711.9397590361446"/>
      <point x="75.60240963855422" y="697.3614457831326"/>
      <point x="75.60240963855422" y="670.6746987951807" type="curve" smooth="yes"/>
      <point x="75.60240963855422" y="34.795180722891565" type="line" smooth="yes"/>
      <point x="75.60240963855422" y="8.108433734939759"/>
      <point x="90.18072289156626" y="-6.9397590361445785"/>
    </contour>
  </outline>
</glyph>
<glyph name="l" format="2">
  <advance width="295.67469879518075"/>
  <unicode hex="006C"/>
  <anchor x="186.16867469879517" y="0.0" name="bottom"/>
  <anchor x="125.86746987951807" y="357.0" name="center"/>
  <anchor x="280.65060240963857" y="352.5301204819277" name="dot"/>
  <anchor x="115.86746987951807" y="705.0" name="top"/>
  <anchor x="201.90361445783134" y="705.0" name="topright"/>
  <outline>
    <contour>
      <point x="224.04819277108433" y="-8.939759036144578" type="curve" smooth="yes"/>
      <point x="234.86746987951807" y="-8.939759036144578"/>
      <point x="246.6867469879518" y="-8.46987951807229"/>
      <point x="258.03614457831327" y="-6.469879518072289" type="curve" smooth="yes"/>
      <point x="282.67469879518075" y="-2.4698795180722892"/>
      <point x="292.0240963855422" y="8.638554216867469"/>
      <point x="292.0240963855422" y="32.566265060240966" type="curve" smooth="yes"/>
      <point x="292.0240963855422" y="56.78313253012048"/>
      <point x="286.49397590361446" y="63.07228915662651"/>
      <point x="271.73493975903614" y="62.13253012048193" type="curve" smooth="yes"/>
      <point x="262.73493975903614" y="61.66265060240964"/>
      <point x="253.73493975903614" y="60.13253012048193"/>
      <point x="241.67469879518072" y="60.13253012048193" type="curve" smooth="yes"/>
      <point x="186.25301204819277" y="60.13253012048193"/>
      <point x="156.6024096385542" y="95.49397590361446"/>
      <point x="156.6024096385542" y="167.09638554216866" type="curve" smooth="yes"/>
      <point x="156.6024096385542" y="670.6746987951807" type="line" smooth="yes"/>
      <point x="156.6024096385542" y="697.3614457831326"/>
      <point x="141.55421686746988" y="711.9397590361446"/>
      <point x="115.86746987951807" y="711.9397590361446" type="curve" smooth="yes"/>
      <point x="90.18072289156626" y="711.9397590361446"/>
      <point x="75.60240963855422" y="697.3614457831326"/>
      <point x="75.60240963855422" y="670.6746987951807" type="curve" smooth="yes"/>
      <point x="75.60240963855422" y="160.56626506024097" type="line" smooth="yes"/>
      <point x="75.60240963855422" y="50.81927710843374"/>
      <point x="127.36144578313252" y="-8.939759036144578"/>
    </contour>
  </outline>
</glyph>
<glyph name="m" format="2">
  <advance width="856.3253012048193"/>
  <unicode hex="006D"/>
  <anchor x="429.3975903614458" y="0.0" name="bottom"/>
  <anchor x="429.3975903614458" y="484.0" name="top"/>
  <outline>
    <contour>
      <point x="117.86746987951807" y="-6.9397590361445785" type="curve" smooth="yes"/>
      <point x="144.55421686746988" y="-6.9397590361445785"/>
      <point x="158.6024096385542" y="8.108433734939759"/>
      <point x="158.6024096385542" y="34.795180722891565" type="curve" smooth="yes"/>
      <point x="158.6024096385542" y="274.71084337349396" type="line" smooth="yes"/>
      <point x="158.6024096385542" y="368.96385542168673"/>
      <point x="208.20481927710844" y="428.56626506024094"/>
      <point x="287.9879518072289" y="428.56626506024094" type="curve" smooth="yes"/>
      <point x="359.8313253012048" y="428.56626506024094"/>
      <point x="388.66265060240966" y="388.144578313253"/>
      <point x="388.66265060240966" y="298.8313253012048" type="curve" smooth="yes"/>
      <point x="388.66265060240966" y="34.795180722891565" type="line" smooth="yes"/>
      <point x="388.66265060240966" y="8.108433734939759"/>
      <point x="403.71084337349396" y="-6.9397590361445785"/>
      <point x="429.3975903614458" y="-6.9397590361445785" type="curve" smooth="yes"/>
      <point x="455.0843373493976" y="-6.9397590361445785"/>
      <point x="469.66265060240966" y="8.108433734939759"/>
      <point x="469.66265060240966" y="34.795180722891565" type="curve" smooth="yes"/>
      <point x="469.66265060240966" y="274.71084337349396" type="line" smooth="yes"/>
      <point x="469.66265060240966" y="368.96385542168673"/>
      <point x="519.7349397590361" y="428.56626506024094"/>
      <point x="599.0481927710844" y="428.56626506024094" type="curve" smooth="yes"/>
      <point x="671.3614457831326" y="428.56626506024094"/>
      <point x="700.1927710843373" y="388.144578313253"/>
      <point x="700.1927710843373" y="298.8313253012048" type="curve" smooth="yes"/>
      <point x="700.1927710843373" y="34.795180722891565" type="line" smooth="yes"/>
      <point x="700.1927710843373" y="8.108433734939759"/>
      <point x="714.7710843373494" y="-6.9397590361445785"/>
      <point x="740.4578313253012" y="-6.9397590361445785" type="curve" smooth="yes"/>
      <point x="766.144578313253" y="-6.9397590361445785"/>
      <point x="781.1927710843373" y="8.108433734939759"/>
      <point x="781.1927710843373" y="34.795180722891565" type="curve" smooth="yes"/>
      <point x="781.1927710843373" y="303.30120481927713" type="line" smooth="yes"/>
      <point x="781.1927710843373" y="432.4096385542169"/>
      <point x="727.1927710843373" y="495.28915662650604"/>
      <point x="619.3734939759036" y="495.28915662650604" type="curve" smooth="yes"/>
      <point x="535.6626506024096" y="495.28915662650604"/>
      <point x="470.13253012048193" y="448.10843373493975"/>
      <point x="446.3132530120482" y="374.3975903614458" type="curve"/>
      <point x="460.8433734939759" y="374.3975903614458" type="line"/>
      <point x="443.49397590361446" y="455.6385542168675"/>
      <point x="392.0240963855422" y="495.28915662650604"/>
      <point x="309.2530120481928" y="495.28915662650604" type="curve" smooth="yes"/>
      <point x="229.66265060240963" y="495.28915662650604"/>
      <point x="170.6024096385542" y="452.69879518072287"/>
      <point x="145.66265060240963" y="377.7469879518072" type="curve"/>
      <point x="156.66265060240963" y="363.65060240963857" type="line"/>
      <point x="156.66265060240963" y="452.0240963855422" type="line" smooth="yes"/>
      <point x="156.66265060240963" y="478.71084337349396"/>
      <point x="142.6144578313253" y="493.28915662650604"/>
      <point x="117.39759036144578" y="493.28915662650604" type="curve" smooth="yes"/>
      <point x="92.18072289156626" y="493.28915662650604"/>
      <point x="77.60240963855422" y="478.71084337349396"/>
      <point x="77.60240963855422" y="452.0240963855422" type="curve" smooth="yes"/>
      <point x="77.60240963855422" y="34.795180722891565" type="line" smooth="yes"/>
      <point x="77.60240963855422" y="8.108433734939759"/>
      <point x="92.18072289156626" y="-6.9397590361445785"/>
    </contour>
  </outline>
</glyph>
<glyph name="q" format="2">
  <advance width="583.0361445783133"/>
  <unicode hex="0071"/>
  <anchor x="290.9277108433735" y="0.0" name="bottom"/>
  <anchor x="290.9277108433735" y="484.0" name="top"/>
  <outline>
    <contour>
      <point x="466.69879518072287" y="-186.93975903614458" type="curve" smooth="yes"/>
      <point x="492.3855421686747" y="-186.93975903614458"/>
      <point x="507.43373493975906" y="-172.36144578313252"/>
      <point x="507.43373493975906" y="-145.67469879518072" type="curve" smooth="yes"/>
      <point x="507.43373493975906" y="452.0240963855422" type="line" smooth="yes"/>
      <point x="507.43373493975906" y="478.71084337349396"/>
      <point x="492.855421686747" y="493.28915662650604"/>
      <point x="467.1686746987952" y="493.28915662650604" type="curve" smooth="yes"/>
      <point x="441.48192771084337" y="493.28915662650604"/>
      <point x="426.90361445783134" y="478.71084337349396"/>
      <point x="426.90361445783134" y="452.0240963855422" type="curve" smooth="yes"/>
      <point x="426.90361445783134" y="357.06024096385545" type="line"/>
      <point x="437.90361445783134" y="371.1566265060241" type="line"/>
      <point x="416.8433734939759" y="446.578313253012"/>
      <point x="348.7831325301205" y="495.28915662650604"/>
      <point x="260.95180722891564" y="495.28915662650604" type="curve" smooth="yes"/>
      <point x="131.36144578313252" y="495.28915662650604"/>
      <point x="45.95180722891566" y="398.28915662650604"/>
      <point x="45.95180722891566" y="243.40963855421685" type="curve" smooth="yes"/>
      <point x="45.95180722891566" y="88.53012048192771"/>
      <point x="130.36144578313252" y="-8.939759036144578"/>
      <point x="260.95180722891564" y="-8.939759036144578" type="curve" smooth="yes"/>
      <point x="348.3132530120482" y="-8.939759036144578"/>
      <point x="415.90361445783134" y="39.30120481927711"/>
      <point x="437.43373493975906" y="113.78313253012048" type="curve"/>
      <point x="426.43373493975906" y="113.78313253012048" type="line"/>
      <point x="426.43373493975906" y="-145.67469879518072" type="line" smooth="yes"/>
      <point x="426.43373493975906" y="-172.36144578313252"/>
      <point x="441.0120481927711" y="-186.93975903614458"/>
    </contour>
    <contour>
      <point x="277.9277108433735" y="56.373493975903614" type="curve" smooth="yes"/>
      <point x="186.49397590361446" y="56.373493975903614"/>
      <point x="127.95180722891567" y="123.09638554216868"/>
      <point x="127.95180722891567" y="243.40963855421685" type="curve" smooth="yes"/>
      <point x="127.95180722891567" y="363.72289156626505"/>
      <point x="186.49397590361446" y="429.9759036144578"/>
      <point x="277.9277108433735" y="429.9759036144578" type="curve" smooth="yes"/>
      <point x="368.89156626506025" y="429.9759036144578"/>
      <point x="427.90361445783134" y="363.72289156626505"/>
      <point x="427.90361445783134" y="243.40963855421685" type="curve" smooth="yes"/>
      <point x="427.90361445783134" y="123.09638554216868"/>
      <point x="368.89156626506025" y="56.373493975903614"/>
    </contour>
  </outline>
</glyph>
<glyph name="r" format="2">
  <advance width="357.5421686746988"/>
  <unicode hex="0072"/>
  <anchor x="116.33734939759036" y="0.0" name="bottom"/>
  <anchor x="214.80722891566265" y="484.0" name="top"/>
  <outline>
    <contour>
      <point x="116.80722891566265" y="-6.9397590361445785" type="curve" smooth="yes"/>
      <point x="143.49397590361446" y="-6.9397590361445785"/>
      <point x="157.5421686746988" y="8.108433734939759"/>
      <point x="157.5421686746988" y="34.795180722891565" type="curve" smooth="yes"/>
      <point x="157.5421686746988" y="277.3132530120482" type="line" smooth="yes"/>
      <point x="157.5421686746988" y="363.3855421686747"/>
      <point x="207.55421686746988" y="414.9277108433735"/>
      <point x="298.56626506024094" y="423.4578313253012" type="curve" smooth="yes"/>
      <point x="315.26506024096386" y="424.9277108433735" type="line" smooth="yes"/>
      <point x="340.66265060240966" y="427.33734939759034"/>
      <point x="352.7710843373494" y="441.4457831325301"/>
      <point x="351.3614457831325" y="464.3132530120482" type="curve" smooth="yes"/>
      <point x="349.95180722891564" y="487.65060240963857"/>
      <point x="336.66265060240966" y="497.7590361445783"/>
      <point x="317.144578313253" y="496.34939759036143" type="curve" smooth="yes"/>
      <point x="228.79518072289156" y="492.5903614457831"/>
      <point x="166.3734939759036" y="450.4698795180723"/>
      <point x="144.66265060240963" y="371.0" type="curve"/>
      <point x="154.66265060240963" y="371.0" type="line"/>
      <point x="154.66265060240963" y="452.0240963855422" type="line" smooth="yes"/>
      <point x="154.66265060240963" y="478.71084337349396"/>
      <point x="140.6144578313253" y="493.28915662650604"/>
      <point x="115.39759036144578" y="493.28915662650604" type="curve" smooth="yes"/>
      <point x="90.18072289156626" y="493.28915662650604"/>
      <point x="75.60240963855422" y="478.71084337349396"/>
      <point x="75.60240963855422" y="452.0240963855422" type="curve" smooth="yes"/>
      <point x="75.60240963855422" y="34.795180722891565" type="line" smooth="yes"/>
      <point x="75.60240963855422" y="8.108433734939759"/>
      <point x="90.18072289156626" y="-6.9397590361445785"/>
    </contour>
  </outline>
</glyph>
<glyph name="s" format="2">
  <advance width="481.10843373493975"/>
  <unicode hex="0073"/>
  <anchor x="239.75903614457832" y="0.0" name="bottom"/>
  <anchor x="249.289156626506" y="484.0" name="top"/>
  <outline>
    <contour>
      <point x="239.75903614457832" y="-8.939759036144578" type="curve" smooth="yes"/>
      <point x="357.27710843373495" y="-8.939759036144578"/>
      <point x="433.9156626506024" y="45.87951807228916"/>
      <point x="433.9156626506024" y="135.3975903614458" type="curve" smooth="yes"/>
      <point x="433.9156626506024" y="203.6867469879518"/>
      <point x="390.03614457831327" y="243.03614457831324"/>
      <point x="303.50602409638554" y="261.6867469879518" type="curve" smooth="yes"/>
      <point x="212.51807228915663" y="281.2168674698795" type="line" smooth="yes"/>
      <point x="161.32530120481928" y="292.4578313253012"/>
      <point x="139.0843373493976" y="315.1686746987952"/>
      <point x="139.0843373493976" y="352.71084337349396" type="curve" smooth="yes"/>
      <point x="139.0843373493976" y="401.3734939759036"/>
      <point x="178.56626506024097" y="433.26506024096386"/>
      <point x="252.57831325301206" y="433.26506024096386" type="curve" smooth="yes"/>
      <point x="292.93975903614455" y="433.26506024096386"/>
      <point x="334.65060240963857" y="421.0843373493976"/>
      <point x="374.5301204819277" y="394.2530120481928" type="curve" smooth="yes"/>
      <point x="413.56626506024094" y="370.49397590361446"/>
      <point x="441.6144578313253" y="423.51807228915663"/>
      <point x="407.51807228915663" y="447.27710843373495" type="curve" smooth="yes"/>
      <point x="365.34939759036143" y="479.578313253012"/>
      <point x="311.10843373493975" y="495.28915662650604"/>
      <point x="252.63855421686748" y="495.28915662650604" type="curve" smooth="yes"/>
      <point x="139.18072289156626" y="495.28915662650604"/>
      <point x="62.66265060240964" y="437.4698795180723"/>
      <point x="62.66265060240964" y="349.3614457831325" type="curve" smooth="yes"/>
      <point x="62.66265060240964" y="281.5421686746988"/>
      <point x="103.48192771084338" y="238.66265060240963"/>
      <point x="187.0120481927711" y="220.5421686746988" type="curve" smooth="yes"/>
      <point x="278.0" y="201.0120481927711" type="line" smooth="yes"/>
      <point x="332.2530120481928" y="188.7710843373494"/>
      <point x="357.49397590361446" y="168.53012048192772"/>
      <point x="357.49397590361446" y="130.57831325301206" type="curve" smooth="yes"/>
      <point x="357.49397590361446" y="82.91566265060241"/>
      <point x="318.0120481927711" y="53.084337349397586"/>
      <point x="241.81927710843374" y="53.084337349397586" type="curve" smooth="yes"/>
      <point x="193.63855421686748" y="53.084337349397586"/>
      <point x="145.51807228915663" y="64.20481927710844"/>
      <point x="93.57831325301206" y="95.56626506024097" type="curve" smooth="yes"/>
      <point x="54.48192771084337" y="117.32530120481928"/>
      <point x="29.493975903614455" y="62.0"/>
      <point x="64.87951807228916" y="40.0722891566265" type="curve" smooth="yes"/>
      <point x="117.0" y="4.710843373493976"/>
      <point x="180.16867469879517" y="-8.939759036144578"/>
    </contour>
  </outline>
</glyph>
<glyph name="t" format="2">
  <advance width="350.0722891566265"/>
  <unicode hex="0074"/>
  <anchor x="215.6867469879518" y="0.0" name="bottom"/>
  <anchor x="164.6265060240964" y="266.8313253012048" name="center"/>
  <anchor x="139.97590361445782" y="635.0" name="top"/>
  <anchor x="248.49397590361446" y="705.0" name="topright"/>
  <outline>
    <contour>
      <point x="270.9759036144578" y="-8.939759036144578" type="curve" smooth="yes"/>
      <point x="291.9759036144578" y="-8.939759036144578"/>
      <point x="322.32530120481925" y="-3.4096385542168672"/>
      <point x="337.73493975903614" y="2.0602409638554215" type="curve" smooth="yes"/>
      <point x="353.3132530120482" y="7.409638554216867"/>
      <point x="358.1927710843373" y="21.987951807228917"/>
      <point x="358.1927710843373" y="38.385542168674704" type="curve" smooth="yes"/>
      <point x="358.1927710843373" y="60.72289156626506"/>
      <point x="348.8433734939759" y="68.66265060240964"/>
      <point x="337.0843373493976" y="68.19277108433735" type="curve" smooth="yes"/>
      <point x="324.144578313253" y="67.72289156626506"/>
      <point x="307.144578313253" y="60.13253012048193"/>
      <point x="281.96385542168673" y="60.13253012048193" type="curve" smooth="yes"/>
      <point x="209.42168674698794" y="60.13253012048193"/>
      <point x="180.24096385542168" y="100.08433734939759"/>
      <point x="180.24096385542168" y="176.27710843373495" type="curve" smooth="yes"/>
      <point x="180.24096385542168" y="423.09638554216866" type="line"/>
      <point x="305.855421686747" y="423.09638554216866" type="line" smooth="yes"/>
      <point x="328.3132530120482" y="423.09638554216866"/>
      <point x="341.0120481927711" y="434.7951807228916"/>
      <point x="341.0120481927711" y="454.72289156626505" type="curve" smooth="yes"/>
      <point x="341.0120481927711" y="474.65060240963857"/>
      <point x="328.3132530120482" y="486.34939759036143"/>
      <point x="305.855421686747" y="486.34939759036143" type="curve" smooth="yes"/>
      <point x="180.24096385542168" y="486.34939759036143" type="line"/>
      <point x="180.24096385542168" y="600.6746987951807" type="line" smooth="yes"/>
      <point x="180.24096385542168" y="627.3614457831326"/>
      <point x="165.66265060240963" y="641.9397590361446"/>
      <point x="139.97590361445782" y="641.9397590361446" type="curve" smooth="yes"/>
      <point x="114.28915662650603" y="641.9397590361446"/>
      <point x="99.24096385542168" y="627.3614457831326"/>
      <point x="99.24096385542168" y="600.6746987951807" type="curve" smooth="yes"/>
      <point x="99.24096385542168" y="486.34939759036143" type="line"/>
      <point x="31.867469879518072" y="486.34939759036143" type="line" smooth="yes"/>
      <point x="9.409638554216867" y="486.34939759036143"/>
      <point x="-3.289156626506024" y="474.65060240963857"/>
      <point x="-3.289156626506024" y="454.72289156626505" type="curve" smooth="yes"/>
      <point x="-3.289156626506024" y="434.7951807228916"/>
      <point x="9.409638554216867" y="423.09638554216866"/>
      <point x="31.867469879518072" y="423.09638554216866" type="curve" smooth="yes"/>
      <point x="99.24096385542168" y="423.09638554216866" type="line"/>
      <point x="99.24096385542168" y="168.21686746987953" type="line" smooth="yes"/>
      <point x="99.24096385542168" y="53.87951807228916"/>
      <point x="155.87951807228916" y="-8.939759036144578"/>
    </contour>
  </outline>
</glyph>
<glyph name="u" format="2">
  <advance width="560.9759036144578"/>
  <unicode hex="0075"/>
  <anchor x="280.51807228915663" y="0.0" name="bottom"/>
  <anchor x="468.9277108433735" y="0.0" name="ogonek"/>
  <anchor x="280.51807228915663" y="485.0" name="top"/>
  <anchor x="420.4698795180723" y="484.0" name="topright"/>
  <outline>
    <contour>
      <point x="248.36144578313252" y="-8.939759036144578" type="curve" smooth="yes"/>
      <point x="328.5421686746988" y="-8.939759036144578"/>
      <point x="392.8433734939759" y="33.71084337349397"/>
      <point x="419.2530120481928" y="112.07228915662651" type="curve"/>
      <point x="406.3132530120482" y="126.16867469879519" type="line"/>
      <point x="406.3132530120482" y="34.795180722891565" type="line" smooth="yes"/>
      <point x="406.3132530120482" y="8.108433734939759"/>
      <point x="420.89156626506025" y="-6.9397590361445785"/>
      <point x="446.10843373493975" y="-6.9397590361445785" type="curve" smooth="yes"/>
      <point x="471.7951807228916" y="-6.9397590361445785"/>
      <point x="485.3734939759036" y="8.108433734939759"/>
      <point x="485.3734939759036" y="34.795180722891565" type="curve" smooth="yes"/>
      <point x="485.3734939759036" y="452.0240963855422" type="line" smooth="yes"/>
      <point x="485.3734939759036" y="478.71084337349396"/>
      <point x="470.32530120481925" y="493.28915662650604"/>
      <point x="444.6385542168675" y="493.28915662650604" type="curve" smooth="yes"/>
      <point x="418.95180722891564" y="493.28915662650604"/>
      <point x="404.3734939759036" y="478.71084337349396"/>
      <point x="404.3734939759036" y="452.0240963855422" type="curve" smooth="yes"/>
      <point x="404.3734939759036" y="210.289156626506" type="line" smooth="yes"/>
      <point x="404.3734939759036" y="118.3855421686747"/>
      <point x="346.7710843373494" y="57.78313253012048"/>
      <point x="263.86746987951807" y="57.78313253012048" type="curve" smooth="yes"/>
      <point x="188.02409638554218" y="57.78313253012048"/>
      <point x="154.13253012048193" y="98.73493975903614"/>
      <point x="154.13253012048193" y="185.2289156626506" type="curve" smooth="yes"/>
      <point x="154.13253012048193" y="452.0240963855422" type="line" smooth="yes"/>
      <point x="154.13253012048193" y="478.71084337349396"/>
      <point x="139.0843373493976" y="493.28915662650604"/>
      <point x="113.39759036144578" y="493.28915662650604" type="curve" smooth="yes"/>
      <point x="87.71084337349397" y="493.28915662650604"/>
      <point x="73.13253012048193" y="478.71084337349396"/>
      <point x="73.13253012048193" y="452.0240963855422" type="curve" smooth="yes"/>
      <point x="73.13253012048193" y="184.04819277108433" type="line" smooth="yes"/>
      <point x="73.13253012048193" y="56.93975903614458"/>
      <point x="130.0722891566265" y="-8.939759036144578"/>
    </contour>
  </outline>
</glyph>
<glyph name="v" format="2">
  <advance width="514.8072289156627"/>
  <unicode hex="0076"/>
  <anchor x="258.10843373493975" y="0.0" name="bottom"/>
  <anchor x="258.10843373493975" y="484.0" name="top"/>
  <outline>
    <contour>
      <point x="257.1686746987952" y="-6.9397590361445785" type="curve" smooth="yes"/>
      <point x="281.03614457831327" y="-6.9397590361445785"/>
      <point x="298.67469879518075" y="5.8192771084337345"/>
      <point x="309.43373493975906" y="31.746987951807228" type="curve" smooth="yes"/>
      <point x="483.6265060240964" y="436.73493975903614" type="line" smooth="yes"/>
      <point x="496.26506024096386" y="465.95180722891564"/>
      <point x="484.7469879518072" y="493.28915662650604"/>
      <point x="454.4698795180723" y="493.28915662650604" type="curve" smooth="yes"/>
      <point x="431.6024096385542" y="493.28915662650604"/>
      <point x="421.43373493975906" y="484.4698795180723"/>
      <point x="411.73493975903614" y="461.2530120481928" type="curve" smooth="yes"/>
      <point x="245.16867469879517" y="59.63855421686747" type="line"/>
      <point x="271.9879518072289" y="59.63855421686747" type="line"/>
      <point x="107.83132530120483" y="460.7831325301205" type="line" smooth="yes"/>
      <point x="98.13253012048193" y="484.4698795180723"/>
      <point x="87.49397590361446" y="493.28915662650604"/>
      <point x="67.03614457831326" y="493.28915662650604" type="curve" smooth="yes"/>
      <point x="30.59036144578313" y="493.28915662650604"/>
      <point x="18.42168674698795" y="466.48192771084337"/>
      <point x="31.59036144578313" y="435.73493975903614" type="curve" smooth="yes"/>
      <point x="204.90361445783134" y="31.746987951807228" type="line" smooth="yes"/>
      <point x="216.66265060240963" y="5.289156626506024"/>
      <point x="233.24096385542168" y="-6.9397590361445785"/>
    </contour>
  </outline>
</glyph>
<glyph name="w" format="2">
  <advance width="840.8072289156627"/>
  <unicode hex="0077"/>
  <anchor x="420.6385542168675" y="0.0" name="bottom"/>
  <anchor x="420.6385542168675" y="484.0" name="top"/>
  <outline>
    <contour>
      <point x="243.9277108433735" y="-6.9397590361445785" type="curve" smooth="yes"/>
      <point x="267.32530120481925" y="-6.9397590361445785"/>
      <point x="285.43373493975906" y="5.289156626506024"/>
      <point x="294.72289156626505" y="31.216867469879517" type="curve" smooth="yes"/>
      <point x="442.33734939759034" y="436.5903614457831" type="line"/>
      <point x="399.12048192771084" y="436.5903614457831" type="line"/>
      <point x="546.5542168674699" y="30.746987951807228" type="line" smooth="yes"/>
      <point x="555.843373493976" y="5.289156626506024"/>
      <point x="573.9518072289156" y="-6.9397590361445785"/>
      <point x="597.3493975903615" y="-6.9397590361445785" type="curve" smooth="yes"/>
      <point x="619.7469879518072" y="-6.9397590361445785"/>
      <point x="637.855421686747" y="5.289156626506024"/>
      <point x="647.6144578313254" y="30.746987951807228" type="curve" smooth="yes"/>
      <point x="797.4457831325301" y="435.73493975903614" type="line" smooth="yes"/>
      <point x="808.6144578313254" y="465.48192771084337"/>
      <point x="800.4457831325301" y="493.28915662650604"/>
      <point x="767.8192771084338" y="493.28915662650604" type="curve" smooth="yes"/>
      <point x="748.710843373494" y="493.28915662650604"/>
      <point x="736.1927710843373" y="486.0"/>
      <point x="727.433734939759" y="461.66265060240966" type="curve" smooth="yes"/>
      <point x="584.7590361445783" y="60.45783132530121" type="line"/>
      <point x="608.4096385542168" y="60.45783132530121" type="line"/>
      <point x="466.855421686747" y="460.30120481927713" type="line" smooth="yes"/>
      <point x="458.9759036144578" y="482.4698795180723"/>
      <point x="444.1566265060241" y="493.28915662650604"/>
      <point x="422.578313253012" y="493.28915662650604" type="curve" smooth="yes"/>
      <point x="401.0" y="493.28915662650604"/>
      <point x="386.65060240963857" y="482.93975903614455"/>
      <point x="378.30120481927713" y="460.30120481927713" type="curve" smooth="yes"/>
      <point x="233.6867469879518" y="60.45783132530121" type="line"/>
      <point x="258.27710843373495" y="60.45783132530121" type="line"/>
      <point x="118.19277108433735" y="460.2530120481928" type="line" smooth="yes"/>
      <point x="109.49397590361446" y="485.4698795180723"/>
      <point x="98.32530120481928" y="493.28915662650604"/>
      <point x="78.33734939759036" y="493.28915662650604" type="curve" smooth="yes"/>
      <point x="47.42168674698795" y="493.28915662650604"/>
      <point x="31.19277108433735" y="470.5421686746988"/>
      <point x="43.89156626506024" y="435.73493975903614" type="curve" smooth="yes"/>
      <point x="193.13253012048193" y="30.746987951807228" type="line" smooth="yes"/>
      <point x="202.89156626506025" y="4.8192771084337345"/>
      <point x="220.53012048192772" y="-6.9397590361445785"/>
    </contour>
  </outline>
</glyph>
<glyph name="x" format="2">
  <advance width="524.7951807228916"/>
  <unicode hex="0078"/>
  <anchor x="262.86746987951807" y="0.0" name="bottom"/>
  <anchor x="262.86746987951807" y="484.0" name="top"/>
  <outline>
    <contour>
      <point x="78.32530120481928" y="-6.0602409638554215" type="curve" smooth="yes"/>
      <point x="98.72289156626506" y="-6.0602409638554215"/>
      <point x="110.95180722891567" y="1.7590361445783134"/>
      <point x="123.12048192771084" y="16.867469879518072" type="curve" smooth="yes"/>
      <point x="276.50602409638554" y="210.55421686746988" type="line"/>
      <point x="248.289156626506" y="210.55421686746988" type="line"/>
      <point x="402.144578313253" y="16.867469879518072" type="line" smooth="yes"/>
      <point x="414.8433734939759" y="0.7590361445783134"/>
      <point x="428.0120481927711" y="-6.0602409638554215"/>
      <point x="447.4698795180723" y="-6.0602409638554215" type="curve" smooth="yes"/>
      <point x="475.4457831325301" y="-6.0602409638554215"/>
      <point x="494.6144578313253" y="21.506024096385545"/>
      <point x="469.6867469879518" y="52.31325301204819" type="curve" smooth="yes"/>
      <point x="294.96385542168673" y="268.86746987951807" type="line"/>
      <point x="294.96385542168673" y="232.48192771084337" type="line"/>
      <point x="458.1566265060241" y="434.4457831325301" type="line" smooth="yes"/>
      <point x="483.5542168674699" y="465.72289156626505"/>
      <point x="464.3855421686747" y="493.28915662650604"/>
      <point x="436.87951807228916" y="493.28915662650604" type="curve" smooth="yes"/>
      <point x="416.95180722891564" y="493.28915662650604"/>
      <point x="404.7831325301205" y="485.93975903614455"/>
      <point x="392.6144578313253" y="470.3614457831325" type="curve" smooth="yes"/>
      <point x="248.81927710843374" y="288.7951807228916" type="line"/>
      <point x="277.4457831325301" y="288.7951807228916" type="line"/>
      <point x="134.12048192771084" y="470.3614457831325" type="line" smooth="yes"/>
      <point x="121.95180722891567" y="485.93975903614455"/>
      <point x="109.78313253012048" y="493.28915662650604"/>
      <point x="89.3855421686747" y="493.28915662650604" type="curve" smooth="yes"/>
      <point x="61.87951807228916" y="493.28915662650604"/>
      <point x="42.24096385542169" y="466.1927710843373"/>
      <point x="67.63855421686748" y="434.9156626506024" type="curve" smooth="yes"/>
      <point x="232.36144578313252" y="230.42168674698794" type="line"/>
      <point x="232.36144578313252" y="271.9277108433735" type="line"/>
      <point x="56.57831325301205" y="52.31325301204819" type="line" smooth="yes"/>
      <point x="31.650602409638555" y="21.036144578313255"/>
      <point x="50.81927710843374" y="-6.0602409638554215"/>
    </contour>
  </outline>
</glyph>
